<svg width="129" height="46" viewBox="0 0 129 46" fill="none" xmlns="http://www.w3.org/2000/svg">
<path d="M53.2011 31.4036H65.3501V36H47.4794V8.23078H53.2011V31.4036ZM67.429 25.4912C67.429 23.4441 67.8231 21.6195 68.6115 20.0174C69.3998 18.4154 70.5314 17.1757 72.0063 16.2983C73.494 15.421 75.2168 14.9824 77.1749 14.9824C79.9595 14.9824 82.2291 15.8343 83.9837 17.538C85.7511 19.2418 86.7365 21.5559 86.9399 24.4804L86.9781 25.8917C86.9781 29.0577 86.0944 31.6007 84.327 33.5206C82.5596 35.4278 80.1883 36.3814 77.2131 36.3814C74.2378 36.3814 71.8601 35.4278 70.08 33.5206C68.3127 31.6134 67.429 29.0196 67.429 25.7391V25.4912ZM72.9409 25.8917C72.9409 27.8498 73.3096 29.3501 74.0471 30.3928C74.7845 31.4227 75.8399 31.9376 77.2131 31.9376C78.5481 31.9376 79.5907 31.429 80.3409 30.4118C81.0911 29.3819 81.4662 27.7417 81.4662 25.4912C81.4662 23.5712 81.0911 22.0836 80.3409 21.0283C79.5907 19.9729 78.5354 19.4453 77.1749 19.4453C75.8271 19.4453 74.7845 19.9729 74.0471 21.0283C73.3096 22.0709 72.9409 23.692 72.9409 25.8917ZM97.792 29.2675L101.626 15.3638H107.385L100.424 36H95.1601L88.1987 15.3638H93.9585L97.792 29.2675ZM119.058 36.3814C116.031 36.3814 113.565 35.4533 111.658 33.5969C109.763 31.7405 108.816 29.2675 108.816 26.1778V25.6438C108.816 23.5712 109.216 21.7212 110.017 20.0937C110.818 18.4535 111.95 17.1947 113.412 16.3174C114.887 15.4274 116.566 14.9824 118.447 14.9824C121.27 14.9824 123.489 15.8724 125.104 17.6525C126.731 19.4326 127.545 21.9565 127.545 25.2242V27.4747H114.404C114.582 28.8225 115.116 29.9032 116.006 30.717C116.909 31.5307 118.047 31.9376 119.42 31.9376C121.543 31.9376 123.203 31.1684 124.398 29.6299L127.106 32.6624C126.28 33.8321 125.161 34.7476 123.749 35.4088C122.338 36.0572 120.774 36.3814 119.058 36.3814ZM118.428 19.4453C117.335 19.4453 116.445 19.814 115.758 20.5515C115.084 21.2889 114.652 22.3443 114.461 23.7175H122.128V23.2788C122.103 22.0582 121.772 21.1173 121.136 20.4561C120.501 19.7822 119.598 19.4453 118.428 19.4453Z" fill="black"/>
<path d="M17.1392 10.7804C17.3362 10.6024 17.5262 10.4264 17.7212 10.2594C19.1382 9.04241 20.7632 8.28041 22.6252 8.07941C25.8032 7.73741 28.4392 8.8374 30.5742 11.1664C31.9822 12.7054 32.7892 14.5434 33.1252 16.5984C33.3162 17.7754 33.3102 18.9504 33.1712 20.1304C32.8302 23.0134 31.7672 25.6174 30.1462 28.0074C28.9012 29.8434 27.3872 31.4324 25.6852 32.8474C23.3182 34.8134 20.6882 36.3534 17.9092 37.6504C17.8532 37.6764 17.7982 37.7034 17.7442 37.7324C17.3532 37.9344 16.9732 37.9334 16.5672 37.7444C14.3362 36.7094 12.1922 35.5244 10.1942 34.0834C8.33316 32.7424 6.64016 31.2184 5.19216 29.4304C3.71516 27.6084 2.56316 25.6044 1.82616 23.3714C1.48116 22.3254 1.24016 21.2564 1.11416 20.1604C1.01016 19.2604 0.95616 18.3604 1.04416 17.4594C1.29916 14.8024 2.29916 12.4834 4.23816 10.6104C5.60216 9.2914 7.22316 8.45141 9.09316 8.13241C11.0612 7.79641 12.9412 8.10341 14.7202 9.01341C15.5552 9.44141 16.3032 9.98441 16.9772 10.6354C17.0262 10.6814 17.0782 10.7264 17.1392 10.7804ZM3.17616 18.8044C3.20516 19.1244 3.23216 19.7624 3.32816 20.3874C3.64916 22.4464 4.39916 24.3474 5.49316 26.1164C6.90116 28.3914 8.74116 30.2654 10.8592 31.8774C12.7552 33.3194 14.8042 34.5034 16.9502 35.5284C17.0882 35.5944 17.2032 35.5964 17.3362 35.5254C18.3782 34.9684 19.4432 34.4494 20.4622 33.8544C22.8502 32.4594 25.0242 30.7894 26.8592 28.7064C28.4682 26.8804 29.7142 24.8414 30.4512 22.5094C30.9722 20.8634 31.2192 19.1834 31.0472 17.4584C30.8842 15.8094 30.3312 14.3004 29.2852 13.0064C27.6422 10.9704 25.5322 9.9604 22.8892 10.2354C21.2702 10.4024 19.9122 11.1314 18.7472 12.2524C18.5922 12.4014 18.5862 12.5024 18.7122 12.6734C19.7892 14.1544 20.5672 15.7644 20.7422 17.6154C20.8232 18.4904 20.7562 19.3494 20.3422 20.1504C19.6052 21.5774 18.1672 22.3664 16.6142 22.1214C14.8292 21.8374 13.5602 20.2994 13.5142 18.4874C13.4872 17.4104 13.6842 16.3814 14.0682 15.3834C14.4452 14.4094 14.9432 13.5004 15.5732 12.6654C15.6922 12.5064 15.7062 12.3934 15.5392 12.2604C15.3312 12.0944 15.1482 11.8974 14.9382 11.7334C13.2712 10.4284 11.3962 9.91741 9.30316 10.3114C7.51916 10.6464 6.09616 11.5934 4.98716 13.0084C3.72916 14.6134 3.18516 16.4654 3.17616 18.8044ZM17.1622 12.2804C17.0912 12.3624 17.0482 12.3964 17.0182 12.4424C16.0272 13.9364 15.2602 15.5314 14.9212 17.3044C14.7482 18.1974 14.6712 19.1014 14.9672 19.9904C15.2792 20.9194 16.1502 21.6064 17.0192 21.6214C18.2872 21.6414 19.3042 20.7114 19.4572 19.4254C19.6032 18.2114 19.3712 17.0534 18.9952 15.9104C18.5742 14.6234 17.9412 13.4414 17.1622 12.2804Z" fill="#6C63FF" stroke="#6C63FF" stroke-width="1.618" stroke-miterlimit="10"/>
</svg>
