<svg width="332" height="245" viewBox="0 0 332 245" fill="none" xmlns="http://www.w3.org/2000/svg">
<g clip-path="url(#clip0)">
<path opacity="0.1" d="M21.7294 96.0272H50.5844V135.304H23.8393C23.771 135.71 23.7028 136.113 23.626 136.519H50.5844V168.19C50.5389 168.19 50.4934 168.156 50.4508 168.138C49.6925 167.838 48.9343 167.519 48.176 167.182C48.014 167.108 47.8547 167.031 47.6898 166.96C46.9316 166.602 46.1733 166.224 45.4151 165.824C45.1506 165.685 44.8862 165.54 44.6275 165.393C40.418 163.047 36.5921 160.073 33.2822 156.574C33.1827 156.48 33.0917 156.378 32.9979 156.29C32.5373 155.79 32.0852 155.285 31.6473 154.768C31.4824 154.578 31.3231 154.385 31.161 154.2C30.6435 153.57 30.1431 152.917 29.6597 152.261C29.5858 152.161 29.5176 152.065 29.4465 151.977C27.4663 149.241 25.8242 146.276 24.5558 143.146C24.516 143.053 24.479 142.951 24.4421 142.862C24.0497 141.869 23.6942 140.861 23.3872 139.833C23.2564 139.404 23.1284 138.981 23.0204 138.535C22.9805 138.408 22.9493 138.277 22.9151 138.149C21.3171 131.86 21.1323 125.324 21.1323 118.819C21.1323 118.062 21.1323 117.304 21.1323 116.547C21.1551 113.892 21.1863 111.239 21.2262 108.589C21.2413 107.907 21.2555 107.223 21.2688 106.536C21.3086 104.796 21.3655 103.053 21.4394 101.306C21.4565 100.823 21.4792 100.337 21.5048 99.8575C21.5162 99.5793 21.5304 99.301 21.5475 99.0227C21.5986 98.0176 21.6593 97.0191 21.7294 96.0272Z" fill="#6C63FF"/>
<path opacity="0.1" d="M50.5842 52.2953H34.7549C37.3292 48.2762 40.1406 44.4135 43.1742 40.7278C45.5286 37.843 48.008 35.032 50.5842 32.3232V52.2953Z" fill="#6C63FF"/>
<path opacity="0.1" d="M50.5843 53.5049V94.8119H21.8203C21.8203 94.6927 21.8374 94.5706 21.8487 94.4513C21.8743 94.1248 21.8999 93.8011 21.9284 93.4746C21.9568 93.0941 21.9938 92.7136 22.0307 92.3388C22.0677 91.964 22.1047 91.5097 22.1501 91.098C22.1956 90.6863 22.2326 90.2689 22.2781 89.8572C22.3236 89.4455 22.3691 89.0338 22.4203 88.6249C22.4715 88.2161 22.5169 87.8015 22.5738 87.3927C22.6165 87.0548 22.6591 86.7141 22.7075 86.3733C22.7729 85.8935 22.8411 85.4136 22.9122 84.9366C22.9122 84.8628 22.9349 84.7918 22.9463 84.7208C23.466 81.2292 24.1721 77.7678 25.0618 74.3515C25.9961 70.7683 27.1887 67.2572 28.6303 63.8458C30.1621 60.2715 31.9565 56.8151 33.9987 53.5049H50.5843Z" fill="#6C63FF"/>
<path opacity="0.1" d="M57.4766 96.0272V135.304H119.11V96.0272H57.4766ZM57.4766 136.519V170.251C57.8291 170.322 58.176 170.393 58.5258 170.453C58.9949 170.543 59.467 170.626 59.9475 170.697L60.2318 170.736C60.4195 170.768 60.61 170.793 60.8005 170.816C61.2754 170.884 61.7502 170.935 62.2222 170.981C62.444 171.003 62.6743 171.02 62.899 171.04L63.4477 171.08C63.7463 171.103 64.042 171.12 64.3377 171.131C64.5197 171.131 64.7017 171.145 64.8865 171.151C65.0713 171.157 65.1708 171.151 65.3187 171.151H65.8561C66.1006 171.151 66.3452 171.151 66.5869 171.151H66.8996C67.1442 171.151 67.3887 171.151 67.6304 171.128H67.6446C67.8152 171.128 67.983 171.128 68.1536 171.108C68.2019 171.111 68.2503 171.111 68.2986 171.108C68.4408 171.108 68.5829 171.108 68.7194 171.091C68.7516 171.089 68.7839 171.089 68.8161 171.091C69.1317 171.072 69.4502 171.046 69.7715 171.018C70.0928 170.989 70.397 170.955 70.7184 170.921L71.3638 170.842C74.0013 170.473 76.6095 169.919 79.169 169.183C84.9212 167.582 90.5426 165.342 96.292 163.703C103.719 161.588 111.931 160.546 119.108 163.121V136.519H57.4766ZM119.11 52.2953V0.0056407C112.363 -0.068487 105.634 0.718714 99.0871 2.34811C83.4796 6.26359 69.4644 14.7561 57.4766 25.6025V52.2925H60.5787V53.5049H57.4766V94.8119H119.11V53.5049H73.2689V52.2897L119.11 52.2953ZM198.294 34.6317C194.433 34.4954 190.594 33.2773 187.119 31.3891C180.483 27.786 175.177 22.2151 169.251 17.5188C156.939 7.73154 141.67 1.82283 126.006 0.357722V52.2953H213.984L214.203 52.0653L198.294 34.6317ZM206.309 33.212L214.808 42.5279V30.7616C211.948 31.1222 209.457 31.9598 206.309 33.2006V33.212ZM214.808 178.627V136.519H196.684C196.639 136.34 196.588 136.159 196.531 135.977C196.585 136.159 196.633 136.34 196.682 136.519H126.006V166.969C126.677 167.466 127.339 167.991 127.996 168.519C128.705 169.098 129.409 169.684 130.109 170.277L130.814 170.859C131.152 171.143 131.496 171.426 131.838 171.696C132.522 172.247 133.211 172.792 133.905 173.332C134.252 173.604 134.6 173.872 134.951 174.135C140.505 178.374 146.363 182.199 152.478 185.581C153.848 186.344 155.233 187.08 156.626 187.798C157.553 188.275 158.487 188.743 159.427 189.201C160.838 189.888 162.259 190.55 163.692 191.188C176.905 197.111 190.876 201.174 205.206 203.261C208.387 203.729 211.582 204.098 214.791 204.369V178.621H215.076L214.808 178.627ZM126.006 53.5049V94.8119H214.808V53.5049H126.006ZM126.006 96.0215V135.304H214.808V96.0272L126.006 96.0215ZM221.701 30.7048V43.8511L232.546 31.9627C228.952 31.3702 225.337 30.9509 221.701 30.7048ZM221.701 96.0272V135.304H308.07V96.0272H221.701ZM307.765 181.742L308.07 136.519H221.701V204.826C227.264 205.057 232.836 204.99 238.392 204.624H238.488C241.142 204.454 243.784 204.212 246.413 203.897H246.473C260.504 202.266 274.223 198.607 287.199 193.034L307.765 181.742ZM324.732 102.478C324.404 101.721 324.068 100.964 323.723 100.207C323.08 98.787 322.403 97.4071 321.704 96.03H314.965V135.304H332C331.986 124.179 329.165 112.822 324.732 102.478ZM314.965 136.519V175.419C319.762 170.827 323.819 165.572 326.737 159.564C330.248 152.326 331.855 144.495 331.988 136.516L314.965 136.519ZM314.965 84.5817V94.8034H321.073C319.221 91.2896 317.182 87.8775 314.965 84.5817ZM256.391 38.4137C255.941 38.2405 255.489 38.0673 255.037 37.9026C250.27 36.1434 245.399 34.6811 240.45 33.5243L223.85 51.7133L223.526 52.0625L223.74 52.2925H282.82C274.591 46.6382 265.719 41.9794 256.391 38.4137ZM284.555 53.5049H222.912L221.701 54.6094V94.8119H232.321H308.07V75.3339C301.22 67.0627 293.315 59.7238 284.555 53.5049Z" fill="#6C63FF"/>
<path opacity="0.1" d="M50.5843 74.343V94.812H21.8203C21.8203 94.6927 21.8374 94.5706 21.8487 94.4514C21.8743 94.1248 21.8999 93.8012 21.9284 93.4746C21.9568 93.0942 21.9938 92.7137 22.0307 92.3389C22.0677 91.9641 22.1047 91.5098 22.1501 91.0981C22.1956 90.6864 22.2326 90.269 22.2781 89.8573C22.3236 89.4456 22.3691 89.0339 22.4203 88.625C22.4715 88.2161 22.5169 87.8016 22.5738 87.3927C22.6165 87.0548 22.6591 86.7141 22.7075 86.3734C22.7729 85.8935 22.8411 85.4137 22.9122 84.9367C22.9122 84.8629 22.9349 84.7919 22.9463 84.7209C23.466 81.2293 24.1721 77.7679 25.0618 74.3515L50.5843 74.343Z" fill="#6C63FF"/>
<path opacity="0.1" d="M21.7294 96.0272H50.5844V135.304H23.8393C23.771 135.71 23.7028 136.113 23.626 136.519H50.5844V168.19C50.5389 168.19 50.4934 168.156 50.4508 168.138C49.6925 167.838 48.9343 167.519 48.176 167.182C48.014 167.108 47.8547 167.031 47.6898 166.96C46.9316 166.602 46.1733 166.224 45.4151 165.824C45.1506 165.685 44.8862 165.54 44.6275 165.393C40.418 163.047 36.5921 160.073 33.2822 156.574C33.1827 156.48 33.0917 156.378 32.9979 156.29C32.5373 155.79 32.0852 155.285 31.6473 154.768C31.4824 154.578 31.3231 154.385 31.161 154.2C30.6435 153.57 30.1431 152.917 29.6597 152.261C29.5858 152.161 29.5176 152.065 29.4465 151.977C27.4663 149.241 25.8242 146.276 24.5558 143.146C24.516 143.053 24.479 142.951 24.4421 142.862C24.0497 141.869 23.6942 140.861 23.3872 139.833C23.2564 139.404 23.1284 138.981 23.0204 138.535C22.9805 138.408 22.9493 138.277 22.9151 138.149C21.3171 131.86 21.1323 125.324 21.1323 118.819C21.1323 118.062 21.1323 117.304 21.1323 116.547C21.1551 113.892 21.1863 111.239 21.2262 108.589C21.2413 107.907 21.2555 107.223 21.2688 106.536C21.3086 104.796 21.3655 103.053 21.4394 101.306C21.4565 100.823 21.4792 100.337 21.5048 99.8575C21.5162 99.5793 21.5304 99.301 21.5475 99.0227C21.5986 98.0176 21.6593 97.0191 21.7294 96.0272Z" fill="#6C63FF"/>
<path opacity="0.1" d="M79.1722 59.4222V94.812H57.4741V59.4222H60.5678V47.4401H73.2665V59.4222H79.1722Z" fill="#6C63FF"/>
<path opacity="0.1" d="M79.1694 96.0244H57.4741V135.301H79.1694V96.0244Z" fill="#6C63FF"/>
<path opacity="0.1" d="M57.4766 136.519H79.1718V169.172C76.6127 169.908 74.0044 170.461 71.3666 170.827C71.1505 170.859 70.9373 170.884 70.7212 170.907C70.4027 170.944 70.0871 170.978 69.7715 171.006L68.8189 171.083H68.7223L68.3014 171.106H68.1564C67.9858 171.106 67.8181 171.125 67.6475 171.128H67.6332C67.3887 171.128 67.147 171.145 66.9025 171.151H66.5897C66.348 171.151 66.1063 171.151 65.859 171.151H65.3244H64.8893C64.7045 171.151 64.5225 171.151 64.3377 171.128C64.0458 171.117 63.7501 171.1 63.4506 171.077L62.9018 171.037C62.6743 171.02 62.4469 170.998 62.2222 170.975C61.7445 170.933 61.2706 170.879 60.8005 170.813L60.2318 170.734L59.9475 170.694C59.4726 170.623 59.0006 170.543 58.5258 170.453C58.1732 170.39 57.8263 170.319 57.4766 170.245V136.519Z" fill="#6C63FF"/>
<path opacity="0.1" d="M214.806 55.2427H196.915V94.8092H214.806V55.2427Z" fill="#6C63FF"/>
<path opacity="0.1" d="M214.809 96.0244V135.304H126.006V118.362H173.306V128.356H196.915V96.0244H214.809Z" fill="#6C63FF"/>
<path opacity="0.1" d="M215.09 178.636C214.996 178.636 214.902 178.636 214.806 178.619V204.386C211.6 204.123 208.406 203.755 205.223 203.281C190.888 201.194 176.911 197.133 163.692 191.214C159.877 189.495 156.138 187.622 152.478 185.595C146.365 182.212 140.508 178.386 134.954 174.149C133.555 173.082 132.177 171.991 130.82 170.876C129.879 170.098 128.946 169.303 127.996 168.533C127.342 168.002 126.68 167.477 126.006 166.977V136.519H196.682C196.631 136.338 196.585 136.159 196.534 135.977C196.588 136.159 196.639 136.338 196.685 136.519H214.809V178.616C214.902 178.619 214.996 178.627 215.09 178.636Z" fill="#6C63FF"/>
<path opacity="0.1" d="M261.469 52.2953H249.811V48.678H255.034V37.9026C255.487 38.0692 255.939 38.2395 256.388 38.4137V48.678H261.466L261.469 52.2953Z" fill="#6C63FF"/>
<path opacity="0.1" d="M289.559 94.8119H232.321C232.327 94.8132 232.333 94.8132 232.338 94.8119H232.313H221.701V55.2454H224.709V84.4908H238.455V67.1707H249.814V53.5049H261.472V67.1792H272.826V84.4993H289.562L289.559 94.8119Z" fill="#6C63FF"/>
<path opacity="0.1" d="M221.701 96.0272V135.304H289.562V96.0272H221.701ZM307.973 181.535L308.07 150.444H289.562V136.531H221.701V204.826C227.264 205.057 232.836 204.99 238.392 204.624H238.489C241.143 204.454 243.784 204.212 246.413 203.897H246.473C260.504 202.267 274.223 198.607 287.199 193.034" fill="#6C63FF"/>
<path opacity="0.1" d="M316.16 136.519H331.989C331.852 144.495 330.249 152.329 326.737 159.564C323.82 165.574 319.762 170.83 314.965 175.421V150.435H316.16V136.519Z" fill="#6C63FF"/>
<path opacity="0.1" d="M332 135.304H316.159V102.478H324.732C329.165 112.822 331.986 124.18 332 135.304Z" fill="#6C63FF"/>
<path opacity="0.1" d="M214.809 66.2423H205.224V78.6475H214.809V66.2423Z" fill="#6C63FF"/>
<path opacity="0.1" d="M214.809 91.9556H205.224V94.812H214.809V91.9556Z" fill="#6C63FF"/>
<path opacity="0.1" d="M214.809 96.0244H205.224V104.358H214.809V96.0244Z" fill="#6C63FF"/>
<path opacity="0.1" d="M214.809 117.669H205.224V130.074H214.809V117.669Z" fill="#6C63FF"/>
<path opacity="0.1" d="M214.809 143.382H205.224V155.787H214.809V143.382Z" fill="#6C63FF"/>
<path opacity="0.1" d="M214.809 178.616C214.903 178.616 214.996 178.616 215.093 178.636C214.999 178.636 214.906 178.636 214.809 178.619V181.501H205.224V169.095H214.809V178.616Z" fill="#6C63FF"/>
<path opacity="0.1" d="M214.809 194.806V204.386C211.601 204.123 208.406 203.755 205.224 203.281V194.806H214.809Z" fill="#6C63FF"/>
<path opacity="0.1" d="M167.085 134.393H126.006V135.304H167.085V134.393Z" fill="#6C63FF"/>
<path opacity="0.1" d="M167.085 136.516H126.006V140.009H167.085V136.516Z" fill="#6C63FF"/>
<path opacity="0.1" d="M167.085 151.457H126.006V157.074H167.085V151.457Z" fill="#6C63FF"/>
<path opacity="0.1" d="M167.085 168.522V174.138H134.954C133.555 173.074 132.177 171.982 130.82 170.861C129.876 170.086 128.943 169.291 127.996 168.522H167.085Z" fill="#6C63FF"/>
<path opacity="0.1" d="M167.085 185.583V191.214H163.692C159.877 189.495 156.138 187.622 152.478 185.595L167.085 185.583Z" fill="#6C63FF"/>
<path opacity="0.1" d="M246.479 99.8319H238.392V107.907H246.479V99.8319Z" fill="#6C63FF"/>
<path opacity="0.1" d="M71.387 62.2075H63.3003V70.2827H71.387V62.2075Z" fill="#6C63FF"/>
<path opacity="0.1" d="M71.387 80.9644H63.3003V89.0395H71.387V80.9644Z" fill="#6C63FF"/>
<path opacity="0.1" d="M71.387 99.7212H63.3003V107.796H71.387V99.7212Z" fill="#6C63FF"/>
<path opacity="0.1" d="M71.387 118.475H63.3003V126.55H71.387V118.475Z" fill="#6C63FF"/>
<path opacity="0.1" d="M71.387 137.232H63.3003V145.307H71.387V137.232Z" fill="#6C63FF"/>
<path opacity="0.1" d="M71.387 155.989H63.3003V164.064H71.387V155.989Z" fill="#6C63FF"/>
<path opacity="0.1" d="M277.349 99.8319H269.263V107.907H277.349V99.8319Z" fill="#6C63FF"/>
<path opacity="0.1" d="M246.479 119.75H238.392V127.825H246.479V119.75Z" fill="#6C63FF"/>
<path opacity="0.1" d="M277.349 119.75H269.263V127.825H277.349V119.75Z" fill="#6C63FF"/>
<path opacity="0.1" d="M246.479 139.665H238.392V147.741H246.479V139.665Z" fill="#6C63FF"/>
<path opacity="0.1" d="M277.349 139.665H269.263V147.741H277.349V139.665Z" fill="#6C63FF"/>
<path opacity="0.1" d="M246.479 159.583H238.392V167.659H246.479V159.583Z" fill="#6C63FF"/>
<path opacity="0.1" d="M277.349 159.583H269.263V167.659H277.349V159.583Z" fill="#6C63FF"/>
<path opacity="0.1" d="M246.479 179.502H238.392V187.577H246.479V179.502Z" fill="#6C63FF"/>
<path opacity="0.1" d="M277.349 179.502H269.263V187.577H277.349V179.502Z" fill="#6C63FF"/>
<path opacity="0.1" d="M238.392 204.624V199.417H246.476V203.883L238.392 204.624Z" fill="#6C63FF"/>
<path opacity="0.1" d="M22.9121 84.7124V89.332H50.5842V84.7124H22.9121ZM25.6674 89.0424H23.3926V85.0049H25.6674V89.0424ZM28.4226 89.0424H26.1479V85.0049H28.4226V89.0424ZM31.1722 89.0424H28.8975V85.0049H31.1722V89.0424ZM33.9275 89.0424H31.6528V85.0049H33.9275V89.0424ZM36.6799 89.0424H34.4052V85.0049H36.6799V89.0424ZM39.4352 89.0424H37.1605V85.0049H39.4352V89.0424ZM42.1905 89.0424H39.9157V85.0049H42.1905V89.0424ZM44.9429 89.0424H42.6682V85.0049H44.9429V89.0424ZM47.6953 89.0424H45.4206V85.0049H47.6953V89.0424ZM50.4506 89.0424H48.1759V85.0049H50.4506V89.0424Z" fill="#6C63FF"/>
<path opacity="0.1" d="M22.9121 98.1595V102.779H50.5842V98.1595H22.9121ZM25.6674 102.49H23.3926V98.452H25.6674V102.49ZM28.4226 102.49H26.1479V98.452H28.4226V102.49ZM31.1722 102.49H28.8975V98.452H31.1722V102.49ZM33.9275 102.49H31.6528V98.452H33.9275V102.49ZM36.6799 102.49H34.4052V98.452H36.6799V102.49ZM39.4352 102.49H37.1605V98.452H39.4352V102.49ZM42.1905 102.49H39.9157V98.452H42.1905V102.49ZM44.9429 102.49H42.6682V98.452H44.9429V102.49ZM47.6953 102.49H45.4206V98.452H47.6953V102.49ZM50.4506 102.49H48.1759V98.452H50.4506V102.49Z" fill="#6C63FF"/>
<path opacity="0.1" d="M22.9121 111.61V116.226H50.5842V111.61H22.9121ZM25.6674 115.934H23.3926V111.896H25.6674V115.934ZM28.4226 115.934H26.1479V111.896H28.4226V115.934ZM31.1722 115.934H28.8975V111.896H31.1722V115.934ZM33.9275 115.934H31.6528V111.896H33.9275V115.934ZM36.6799 115.934H34.4052V111.896H36.6799V115.934ZM39.4352 115.934H37.1605V111.896H39.4352V115.934ZM42.1905 115.934H39.9157V111.896H42.1905V115.934ZM44.9429 115.934H42.6682V111.896H44.9429V115.934ZM47.6953 115.934H45.4206V111.896H47.6953V115.934ZM50.4506 115.934H48.1759V111.896H50.4506V115.934Z" fill="#6C63FF"/>
<path opacity="0.1" d="M22.9121 125.057V129.674H50.5842V125.057H22.9121ZM25.6674 129.384H23.3926V125.341H25.6674V129.384ZM28.4226 129.384H26.1479V125.341H28.4226V129.384ZM31.1722 129.384H28.8975V125.341H31.1722V129.384ZM33.9275 129.384H31.6528V125.341H33.9275V129.384ZM36.6799 129.384H34.4052V125.341H36.6799V129.384ZM39.4352 129.384H37.1605V125.341H39.4352V129.384ZM42.1905 129.384H39.9157V125.341H42.1905V129.384ZM44.9429 129.384H42.6682V125.341H44.9429V129.384ZM47.6953 129.384H45.4206V125.341H47.6953V129.384ZM50.4506 129.384H48.1759V125.341H50.4506V129.384Z" fill="#6C63FF"/>
<path opacity="0.1" d="M23.0459 138.498C23.1539 138.936 23.2819 139.367 23.4127 139.796V138.791H25.6874V142.826H24.4676C24.5017 142.922 24.5387 143.022 24.5785 143.11H50.5957V138.498H23.0459ZM28.4484 142.826H26.1737V138.791H28.4484V142.826ZM31.198 142.826H28.9232V138.791H31.198V142.826ZM33.9532 142.826H31.6785V138.791H33.9532V142.826ZM36.7057 142.826H34.4309V138.791H36.7057V142.826ZM39.4609 142.826H37.1862V138.791H39.4609V142.826ZM42.2162 142.826H39.9415V138.791H42.2162V142.826ZM44.9686 142.826H42.6939V138.791H44.9686V142.826ZM47.7211 142.826H45.4463V138.791H47.7211V142.826ZM50.4763 142.826H48.2016V138.791H50.4763V142.826Z" fill="#6C63FF"/>
<path opacity="0.1" d="M29.4551 151.946C29.529 152.036 29.5972 152.139 29.6683 152.229H31.1725V154.169L31.6587 154.737V152.218H33.9335V156.29H32.998C33.089 156.383 33.1771 156.483 33.2823 156.574H50.5788V151.946H29.4551ZM36.6944 156.29H34.4197V152.235H36.6944V156.29ZM39.4497 156.29H37.1749V152.235H39.4497V156.29ZM42.205 156.29H39.9302V152.235H42.205V156.29ZM44.9574 156.29H42.6826V152.235H44.9574V156.29ZM47.7098 156.29H45.4351V152.235H47.7098V156.29ZM50.4651 156.29H48.1903V152.235H50.4651V156.29Z" fill="#6C63FF"/>
<path opacity="0.1" d="M44.6357 165.393C44.8973 165.54 45.1618 165.677 45.4262 165.822V165.68H47.701V166.96C47.8659 167.031 48.0223 167.108 48.1843 167.182V165.68H50.4591V168.138C50.5023 168.158 50.547 168.174 50.5927 168.187V165.393H44.6357Z" fill="#6C63FF"/>
<path opacity="0.1" d="M214.806 178.616H215.09H214.806ZM196.531 135.977C196.585 136.159 196.634 136.34 196.682 136.519C196.639 136.34 196.588 136.159 196.531 135.977ZM60.5791 52.2954V53.5049H73.2806V52.2897L60.5791 52.2954ZM214.809 178.616H215.093H214.809ZM196.531 135.977C196.585 136.159 196.634 136.34 196.682 136.519C196.639 136.34 196.588 136.159 196.531 135.977ZM214.806 178.616H215.09H214.806ZM196.531 135.977C196.585 136.159 196.634 136.34 196.682 136.519C196.639 136.34 196.588 136.159 196.531 135.977Z" fill="#6C63FF"/>
<path opacity="0.1" d="M250.058 245C265.36 245 277.765 243.011 277.765 240.556C277.765 238.102 265.36 236.113 250.058 236.113C234.757 236.113 222.352 238.102 222.352 240.556C222.352 243.011 234.757 245 250.058 245Z" fill="#6C63FF"/>
<path opacity="0.1" d="M125.102 240.556C140.403 240.556 152.808 238.567 152.808 236.113C152.808 233.659 140.403 231.669 125.102 231.669C109.8 231.669 97.3955 233.659 97.3955 236.113C97.3955 238.567 109.8 240.556 125.102 240.556Z" fill="#6C63FF"/>
<path d="M156.999 118.614C156.992 118.586 156.977 118.561 156.956 118.541C156.533 118.123 151.13 110.494 151.13 110.494C151.13 110.494 150.846 109.642 150.385 108.535C150.533 108.344 150.644 108.127 150.712 107.896C150.737 107.798 150.755 107.698 150.766 107.598C150.766 107.566 150.789 107.541 150.798 107.51C150.896 107.125 150.886 106.72 150.769 106.34C150.738 106.437 150.699 106.532 150.653 106.624C150.546 106.293 150.403 105.975 150.226 105.675C149.51 104.443 148.486 103.404 147.732 102.203C146.591 100.337 146.138 98.1317 146.45 95.9676C146.45 96.0783 146.45 96.1919 146.45 96.3027C146.478 95.8735 146.535 95.4466 146.621 95.025C146.739 94.545 146.898 94.0758 147.095 93.6223C147.772 92.0749 148.867 90.7262 149.532 89.173C149.756 88.6492 149.925 88.1041 150.038 87.5461C150.273 86.6142 150.358 85.6511 150.291 84.6925C150.291 84.9197 150.254 85.1468 150.22 85.3711C150.148 83.0665 149.216 80.8719 147.607 79.2182C145.284 76.8871 141.949 75.9814 138.759 75.5043C137.418 75.3481 136.138 74.8602 135.034 74.0847C133.808 73.2925 132.224 73.1022 130.791 73.2754C129.144 73.4533 127.614 74.2089 126.472 75.4078C124.957 77.0717 124.3 79.4283 122.531 80.831C121.459 81.6828 120.1 82.0803 118.852 82.6595C117.604 83.2388 116.424 84.0792 116.023 85.3228C116.023 85.3228 116.023 85.3058 116.023 85.2973V85.3683L116.006 85.4137C115.59 86.8845 116.392 88.3808 116.81 89.8488C117.245 91.3678 117.274 92.9721 117.296 94.5423C117.328 96.4617 117.356 98.3839 117.325 100.306C117.311 101.061 117.285 101.825 117.228 102.578C116.555 102.781 115.902 103.043 115.275 103.361C114.638 103.776 112.255 106.345 112.255 106.345L107.595 124.126L107.657 124.197L107.595 124.438L107.831 124.384C108.49 125.094 110.461 127.115 112.588 128.376L112.787 131.863C112.787 131.863 113.026 135.361 116.247 136.806C116.321 138.019 116.551 142.942 115.485 144.893C114.747 146.318 114.4 147.913 114.479 149.515C114.479 149.515 114.851 152.474 114.427 154.03C114.18 155.07 114.162 156.151 114.373 157.198C114.373 157.198 114.373 157.542 114.373 158.133C114.373 161.281 114.41 171.373 114.373 172.514C114.319 173.863 114.373 193.809 114.373 193.809C114.373 193.809 114.109 203.778 113.262 206.478C112.414 209.179 112.628 218.12 112.628 218.12C112.628 218.12 112.096 228.77 113.975 230.871C113.975 230.965 113.958 231.062 113.955 231.155C113.955 231.198 113.955 231.246 113.955 231.289C113.933 232.098 114.089 232.958 114.786 233.222C116.207 233.768 118.087 235.403 118.442 235.871C118.798 236.34 120.865 237.507 123.56 237.195C125.249 237.005 126.948 236.927 128.647 236.962C128.647 236.962 129.711 236.769 129.367 235.448C129.145 234.625 128.315 233.359 127.723 232.527C127.831 232.555 127.937 232.578 128.036 232.598L128.138 232.618H128.218C128.262 232.62 128.305 232.62 128.349 232.618H128.406C128.459 232.622 128.512 232.622 128.565 232.618C129.279 232.549 131.94 233.787 132.415 234.605C132.89 235.423 134.565 236.045 135.827 236.201C136.578 236.292 138.471 236.138 140.061 235.934C140.861 235.851 141.654 235.707 142.432 235.502C142.808 235.36 142.887 234.906 142.779 234.395C142.652 233.746 142.304 233.16 141.795 232.737C141.335 232.41 140.726 231.55 140.277 230.846L140.158 230.656C140.951 229.9 142.384 227.43 142.819 226.919C143.348 226.297 141.966 203.557 141.966 203.557V192.157L144.084 181.367L145.566 175.657L146.837 167.037C146.837 167.037 149.06 156.968 148.375 155.98C148.375 155.96 147.806 145.594 147.209 143.104C146.95 141.994 147.016 139.495 147.169 137.065C147.33 136.905 147.442 136.704 147.492 136.484C147.542 136.264 147.529 136.034 147.454 135.821C147.411 135.675 147.356 135.534 147.289 135.398C147.289 135.355 147.289 135.31 147.289 135.267C148.517 134.703 149.801 134.267 151.119 133.967C153.237 133.552 152.708 132.462 152.708 132.462C152.708 132.462 153.186 131.528 153.502 130.957C153.817 130.386 153.556 125.349 153.502 124.935C153.482 124.767 153.351 123.842 153.2 122.791C153.88 122.308 154.764 121.709 155.728 121.141C157.562 120.057 157.15 118.912 156.999 118.614ZM129.361 190.601C129.361 190.601 127.772 194.65 128.409 195.686C129.045 196.722 128.303 200.57 128.303 200.57L127.772 206.28C127.772 206.28 126.29 216.87 126.819 219.361C127.234 221.314 127.388 227.149 127.436 229.582C127.4 229.596 127.364 229.614 127.331 229.633L127.26 229.67C127.504 228.713 127.402 226.777 126.188 222.881L126.085 206.791C126.085 206.791 125.898 188.204 127.368 186.126C128.838 184.047 129.358 180.518 129.358 180.518C129.358 180.518 129.04 185.609 128.832 186.958C128.625 188.307 129.361 190.601 129.361 190.601ZM126.401 230.596C126.387 230.63 126.37 230.664 126.358 230.695L126.279 230.593C126.319 230.597 126.36 230.598 126.401 230.596Z" fill="url(#paint0_linear)"/>
<path d="M142.612 236.973C141.79 237.288 137.334 237.825 136.089 237.675C134.843 237.524 133.194 236.894 132.725 236.07C132.256 235.247 129.626 234.003 128.921 234.083C128.632 234.091 128.343 234.051 128.068 233.963C127.581 233.816 127.106 233.634 126.646 233.418C126.582 233.06 126.592 232.693 126.677 232.339C126.694 232.268 126.714 232.198 126.74 232.129C126.906 231.663 127.249 231.282 127.695 231.067L127.797 231.019C127.995 230.934 128.201 230.871 128.412 230.832C130.647 230.403 139.868 231.263 139.868 231.263C139.868 231.263 140.127 231.726 140.482 232.3C140.926 233.009 141.528 233.875 141.983 234.202C142.487 234.632 142.829 235.221 142.953 235.872C143.061 236.374 142.981 236.834 142.612 236.973Z" fill="white"/>
<path opacity="0.1" d="M142.611 236.973C141.79 237.288 137.337 237.825 136.092 237.674C134.846 237.524 133.197 236.891 132.725 236.07C132.253 235.25 129.628 234.003 128.923 234.083C128.218 234.162 126.649 233.418 126.649 233.418C126.649 233.418 126.404 232.282 127.115 231.507L128.537 232.515C128.537 232.515 132.341 233.694 133.046 234.787C133.751 235.88 135.037 236.49 136.893 236.601C138.281 236.692 141.468 236.153 142.961 235.883C143.061 236.374 142.984 236.834 142.611 236.973Z" fill="black"/>
<path d="M129 238.421C127.323 238.389 125.646 238.467 123.979 238.657C121.309 238.969 119.27 237.805 118.915 237.325C118.559 236.845 116.72 235.224 115.306 234.656C114.615 234.389 114.453 233.521 114.485 232.708C114.485 232.666 114.485 232.618 114.485 232.575C114.511 232.061 114.587 231.55 114.712 231.05L125.776 230.815L126.734 232.112L126.882 232.311L127.465 233.103C127.465 233.103 127.729 233.45 128.076 233.955C128.662 234.807 129.481 236.065 129.7 236.897C130.049 238.228 129 238.421 129 238.421Z" fill="white"/>
<path opacity="0.1" d="M129 238.421C127.323 238.389 125.646 238.467 123.979 238.657C121.312 238.969 119.27 237.805 118.917 237.325C118.565 236.845 116.72 235.21 115.306 234.662C114.615 234.395 114.453 233.526 114.485 232.714C115.275 232.899 116.936 233.37 117.587 234.191C118.44 235.287 119.967 237.129 122.136 237.246C123.888 237.339 128.153 237.027 129.717 236.902C130.052 238.228 129 238.421 129 238.421Z" fill="black"/>
<path opacity="0.1" d="M127.684 231.056C127.556 232.004 127.16 232.26 126.876 232.317C126.807 232.33 126.735 232.33 126.666 232.317C126.628 232.314 126.591 232.308 126.555 232.3C126.555 232.3 116.62 234.492 114.612 232.717C114.561 232.671 114.514 232.622 114.47 232.569C114.496 232.055 114.573 231.544 114.698 231.045L125.761 230.809L126.72 232.106C126.886 231.641 127.229 231.259 127.675 231.045L127.684 231.056Z" fill="black"/>
<path opacity="0.1" d="M140.479 232.288C140.257 232.532 140.073 232.671 139.956 232.623C139.433 232.413 135.145 231.683 133.783 232.311C132.421 232.938 127.812 232.413 127.812 232.413C127.812 232.413 127.812 231.868 127.786 230.993C127.983 230.908 128.189 230.846 128.4 230.806C130.635 230.377 139.856 231.238 139.856 231.238C139.856 231.238 140.127 231.715 140.479 232.288Z" fill="black"/>
<path d="M146.968 168.062L145.711 176.733L144.249 182.48L142.156 193.343V204.843C142.156 204.843 143.516 227.722 142.992 228.347C142.469 228.972 140.482 232.53 139.958 232.322C139.435 232.115 135.147 231.382 133.785 232.007C132.423 232.632 127.814 232.112 127.814 232.112C127.814 232.112 127.709 223.233 127.186 220.726C126.663 218.219 128.127 207.563 128.127 207.563L128.65 201.819C128.65 201.819 129.384 197.952 128.755 196.907C128.127 195.862 129.697 191.796 129.697 191.796C129.697 191.796 128.966 189.493 129.176 188.136C129.387 186.779 129.697 181.66 129.697 181.66C129.697 181.66 129.176 185.214 127.723 187.301C126.27 189.388 126.455 208.091 126.455 208.091L126.557 224.275C129.176 232.845 126.557 232.007 126.557 232.007C126.557 232.007 116.623 234.202 114.615 232.424C112.608 230.647 113.182 219.46 113.182 219.46C113.182 219.46 112.974 210.476 113.81 207.762C114.646 205.047 114.911 195.016 114.911 195.016C114.911 195.016 114.857 174.956 114.911 173.601C114.951 172.466 114.911 162.298 114.911 159.121C114.911 158.53 114.911 158.181 114.911 158.181L116.111 155.205L130.328 153.428H137.129C137.129 153.428 147.366 155.83 148.423 156.866C148.446 156.883 148.465 156.905 148.48 156.929C149.165 157.931 146.968 168.062 146.968 168.062Z" fill="#6C63FF"/>
<path opacity="0.1" d="M129.705 213.611C129.705 213.611 132.833 221.132 134.309 221.655C135.784 222.177 129.705 213.611 129.705 213.611Z" fill="black"/>
<path opacity="0.1" d="M130.862 224.684C130.862 224.684 141.423 225.207 141.318 226.357C141.212 227.507 130.862 224.684 130.862 224.684Z" fill="black"/>
<path opacity="0.1" d="M116.733 221.677C117.151 222.072 124.789 222.813 124.16 223.534C123.532 224.256 117.362 225.658 117.362 225.658L116.733 221.677Z" fill="black"/>
<path opacity="0.1" d="M115.479 208.702C115.479 209.014 117.049 218.73 117.47 219.148C117.891 219.565 121.34 219.982 121.34 219.982L115.479 208.702Z" fill="black"/>
<path d="M126.867 75.8933C125.369 77.5657 124.721 79.9365 122.975 81.3505C121.914 82.2023 120.572 82.6084 119.338 83.1876C118.104 83.7668 116.881 84.6499 116.515 85.9616C116.105 87.4381 116.896 88.9458 117.311 90.4223C117.74 91.9499 117.766 93.5456 117.791 95.1441C117.82 97.0777 117.851 99.0113 117.817 100.945C117.766 103.958 117.515 107.109 115.915 109.662C121.695 111.499 127.843 111.749 133.905 111.984C135.07 112.067 136.24 112.038 137.399 111.896C138.404 111.696 139.398 111.445 140.376 111.144C142.312 110.633 144.306 110.378 146.308 110.386C147.181 110.386 148.071 110.44 148.912 110.213C149.754 109.985 150.564 109.403 150.792 108.563C150.994 107.808 150.698 107.004 150.311 106.326C149.606 105.088 148.605 104.054 147.849 102.833C147.077 101.543 146.619 100.091 146.512 98.5921C146.404 97.0933 146.651 95.5904 147.232 94.2043C147.903 92.6455 148.983 91.2883 149.643 89.7266C150.319 88.0499 150.498 86.2148 150.161 84.4392C149.823 82.6636 148.982 81.022 147.738 79.7094C145.443 77.3641 142.151 76.4555 139 75.9728C137.674 75.8163 136.408 75.328 135.321 74.5531C134.112 73.7581 132.546 73.565 131.13 73.741C129.496 73.9238 127.983 74.6878 126.867 75.8933Z" fill="#3F3D56"/>
<g opacity="0.1">
<path opacity="0.1" d="M147.32 92.566C146.74 93.9342 146.492 95.4196 146.595 96.9017C146.659 95.8419 146.904 94.8008 147.32 93.8238C147.988 92.265 149.069 90.9078 149.728 89.3461C150.268 88.0421 150.495 86.6304 150.391 85.2234C150.332 86.2096 150.108 87.179 149.728 88.0911C149.069 89.6528 147.988 91.0072 147.32 92.566Z" fill="black"/>
<path opacity="0.1" d="M117.877 94.758C117.894 95.871 117.911 96.9869 117.913 98.0999C117.913 96.5666 117.899 95.0362 117.877 93.5058C117.854 91.9186 117.825 90.3115 117.396 88.7811C117.112 87.8101 116.691 86.8248 116.543 85.8452C116.29 87.2365 117.009 88.6477 117.396 90.0361C117.825 91.5523 117.854 93.1708 117.877 94.758Z" fill="black"/>
<path opacity="0.1" d="M149.009 108.589C148.156 108.818 147.28 108.767 146.407 108.762C144.407 108.749 142.414 108.999 140.479 109.506C139.5 109.806 138.506 110.056 137.502 110.255C136.342 110.399 135.17 110.429 134.004 110.346C128.147 110.116 122.207 109.869 116.597 108.197C116.43 108.568 116.24 108.928 116.028 109.276C121.809 111.11 127.956 111.363 134.016 111.598C135.182 111.682 136.353 111.651 137.513 111.507C138.514 111.31 139.504 111.061 140.479 110.761C142.41 110.252 144.399 109.999 146.396 110.008C147.269 110.008 148.156 110.062 148.998 109.832C149.839 109.602 150.65 109.026 150.877 108.185C150.973 107.796 150.963 107.388 150.849 107.004C150.596 107.799 149.814 108.353 149.009 108.589Z" fill="black"/>
</g>
<path d="M140.587 105.224C140.377 105.695 139.49 109.767 139.279 110.184C139.069 110.602 137.92 117.283 137.815 117.657C137.71 118.032 130.243 116.09 130.243 116.09L125.747 112.328L121.127 107.737C121.127 107.737 120.99 103.594 124.394 102.265C124.625 102.175 124.863 102.101 125.105 102.044C129.233 101.053 128.818 88.5171 128.818 88.5171L137.292 92.1713C137.292 92.1713 135.722 99.4855 135.776 100.897C135.79 101.371 136.163 101.666 136.649 101.845C137.401 102.059 138.183 102.143 138.963 102.095C138.963 102.095 140.797 104.755 140.587 105.224Z" fill="#FBBEBE"/>
<path d="M155.757 118.961L156.959 119.276C156.959 119.276 157.849 120.627 155.757 121.885C154.428 122.691 153.152 123.582 151.938 124.551L145.753 126.431L144.562 122.697L150.317 118.336L155.757 118.961Z" fill="#6C63FF"/>
<path opacity="0.1" d="M155.757 118.961L156.959 119.276C156.959 119.276 157.849 120.627 155.757 121.885C154.428 122.691 153.152 123.582 151.938 124.551L145.753 126.431L144.562 122.697L150.317 118.336L155.757 118.961Z" fill="black"/>
<path d="M110.623 122.567L108.218 124.918C108.218 124.918 112.557 129.932 115.895 130.244C119.233 130.557 121.386 126.431 121.386 126.431L118.497 121.888L110.623 122.567Z" fill="#6C63FF"/>
<path opacity="0.1" d="M110.623 122.567L108.218 124.918C108.218 124.918 112.557 129.932 115.895 130.244C119.233 130.557 121.386 126.431 121.386 126.431L118.497 121.888L110.623 122.567Z" fill="black"/>
<path opacity="0.1" d="M133.473 96.7087C138.094 96.7087 141.841 92.9675 141.841 88.3525C141.841 83.7374 138.094 79.9962 133.473 79.9962C128.851 79.9962 125.104 83.7374 125.104 88.3525C125.104 92.9675 128.851 96.7087 133.473 96.7087Z" fill="black"/>
<path d="M133.473 96.0811C138.094 96.0811 141.841 92.3399 141.841 87.7249C141.841 83.1099 138.094 79.3687 133.473 79.3687C128.851 79.3687 125.104 83.1099 125.104 87.7249C125.104 92.3399 128.851 96.0811 133.473 96.0811Z" fill="#FBBEBE"/>
<path opacity="0.1" d="M148.486 157.877C146.581 158.095 144.704 158.515 142.887 159.129C139.76 160.168 115.249 159.146 114.908 159.129C114.908 158.539 114.908 158.189 114.908 158.189L116.108 155.214L130.325 153.436H137.127C137.127 153.436 147.363 155.838 148.421 156.875C148.463 157.499 148.486 157.877 148.486 157.877Z" fill="black"/>
<path opacity="0.1" d="M140.587 105.224C140.377 105.695 139.49 109.767 139.279 110.184C139.069 110.602 137.92 117.283 137.815 117.657C137.71 118.032 130.243 116.09 130.243 116.09L125.747 112.328L121.127 107.737C121.127 107.737 120.99 103.594 124.394 102.265L132.844 111.967L136.649 101.845C137.401 102.059 138.183 102.143 138.963 102.095C138.963 102.095 140.797 104.755 140.587 105.224Z" fill="black"/>
<path d="M132.844 112.28L124.195 102.342C123.688 102.019 123.11 101.827 122.511 101.783C121.911 101.739 121.311 101.844 120.763 102.089C118.826 102.927 116.421 103.605 115.792 104.023C115.164 104.44 112.81 107.024 112.81 107.024L119.821 125.341L116.733 137.405C116.733 137.405 117.205 143.569 116.003 145.815C115.27 147.251 114.927 148.854 115.008 150.463C115.008 150.463 115.374 153.442 114.956 155.006C114.712 156.052 114.694 157.138 114.902 158.192C114.902 158.192 139.751 159.237 142.887 158.192C144.703 157.576 146.58 157.156 148.486 156.94C148.486 156.94 147.917 146.491 147.349 143.984C146.78 141.477 147.821 131.92 147.821 131.92L147.141 121.681L151.218 111.175C151.218 111.175 149.009 104.44 146.706 103.762C146.706 103.762 142.523 102.768 141.633 102.299C140.743 101.831 138.127 101.411 138.127 101.411L136.754 101.871L132.844 112.28Z" fill="#6C63FF"/>
<path opacity="0.1" d="M144.912 121.335L126.711 120.099C126.25 120.068 125.852 120.415 125.82 120.875L123.866 149.572C123.835 150.032 124.183 150.43 124.643 150.461L142.845 151.697C143.305 151.729 143.704 151.381 143.736 150.921L145.69 122.225C145.721 121.765 145.373 121.366 144.912 121.335Z" fill="black"/>
<path d="M145.539 120.712L127.338 119.476C126.877 119.445 126.479 119.792 126.447 120.252L124.493 148.949C124.462 149.409 124.81 149.807 125.27 149.838L143.472 151.074C143.932 151.105 144.331 150.758 144.362 150.298L146.317 121.601C146.348 121.141 146 120.743 145.539 120.712Z" fill="#3F3D56"/>
<path d="M144.938 122.961L127.628 121.786L125.849 147.91L143.16 149.086L144.938 122.961Z" fill="white"/>
<path opacity="0.1" d="M143.386 129.629L129.246 128.641L128.97 132.576L143.111 133.565L143.386 129.629Z" fill="black"/>
<path opacity="0.1" d="M142.875 145.268L140.631 145.116L140.491 147.167L142.735 147.319L142.875 145.268Z" fill="black"/>
<path opacity="0.1" d="M140.661 140.318L129.175 139.538L129.035 141.589L140.522 142.369L140.661 140.318Z" fill="black"/>
<path d="M142.796 121.985L130.836 121.172L130.621 124.325L142.581 125.138L142.796 121.985Z" fill="#3F3D56"/>
<path opacity="0.1" d="M142.796 121.985L130.836 121.172L130.621 124.325L142.581 125.138L142.796 121.985Z" fill="black"/>
<path opacity="0.1" d="M133.891 157.301C133.891 157.301 133.785 172.764 129.705 181.643C129.705 181.643 134.624 169.941 134.624 169.473C134.624 169.005 137.342 164.092 136.615 162.63C135.887 161.168 133.891 157.301 133.891 157.301Z" fill="black"/>
<path opacity="0.1" d="M134.113 85.6351C133.956 84.2665 134.292 82.8869 135.06 81.7424C134.968 82.8895 135.293 84.0313 135.975 84.9591C136.657 85.887 137.65 86.5391 138.773 86.7964C138.677 86.7133 138.609 86.6032 138.577 86.4806C138.545 86.3579 138.551 86.2285 138.594 86.1093C139.177 86.768 139.623 87.5489 140.283 88.1281C140.943 88.7073 141.932 89.0537 142.708 88.642C143.763 88.0741 143.775 86.5778 143.502 85.4136C142.916 82.9345 141.714 80.6426 140.007 78.7497C139.581 78.1775 139.028 77.7115 138.392 77.3884C137.756 77.0652 137.053 76.8936 136.339 76.887C134.724 76.7621 133.046 76.9041 131.599 77.6281C130.785 78.0719 130.022 78.6042 129.324 79.2153L125.344 82.4579C124.961 82.7334 124.633 83.0782 124.377 83.4744C124.206 83.8056 124.103 84.1676 124.075 84.5391C123.974 85.6011 124.17 86.6703 124.644 87.6268C125.117 88.5832 125.848 89.3891 126.754 89.9538C126.735 89.1145 126.966 88.2884 127.418 87.5806C127.87 86.8728 128.523 86.3152 129.293 85.9787C129.414 86.0794 129.511 86.2048 129.58 86.3463C129.648 86.4878 129.685 86.6423 129.688 86.7993L130.527 85.3058C130.652 85.034 130.848 84.8013 131.096 84.6328C131.613 84.3489 132.259 84.6839 132.699 85.0843C133.14 85.4846 133.57 85.9844 134.161 86.0468L134.184 83.8236" fill="black"/>
<path d="M134.112 85.3228C133.956 83.9533 134.291 82.5726 135.059 81.4272C134.803 83.6987 136.518 86.044 138.776 86.4813C138.68 86.3989 138.611 86.2893 138.579 86.167C138.547 86.0448 138.553 85.9157 138.596 85.797C139.179 86.4557 139.626 87.2337 140.285 87.8158C140.945 88.3979 141.935 88.7414 142.711 88.3269C143.766 87.759 143.777 86.2626 143.504 85.1013C142.918 82.6222 141.717 80.3303 140.01 78.4374C139.48 77.7927 138.813 77.2746 138.056 76.9211C137.509 76.7189 136.933 76.6021 136.35 76.5747C134.735 76.4498 133.058 76.5889 131.61 77.313C130.796 77.7588 130.034 78.2919 129.335 78.903L125.355 82.1456C124.971 82.4204 124.643 82.7653 124.388 83.1621C124.217 83.4931 124.114 83.8553 124.087 84.2268C123.985 85.2884 124.182 86.3571 124.655 87.3131C125.128 88.2691 125.859 89.0744 126.765 89.6387C126.747 88.7995 126.978 87.9737 127.43 87.2661C127.882 86.5584 128.534 86.0007 129.304 85.6635C129.424 85.7647 129.522 85.8901 129.59 86.0315C129.658 86.173 129.695 86.3272 129.699 86.4841L130.535 84.9963C130.659 84.7241 130.856 84.4912 131.104 84.3234C131.622 84.0394 132.267 84.3745 132.708 84.7748C133.149 85.1752 133.578 85.6721 134.169 85.7374L134.192 83.5113" fill="#3F3D56"/>
<path d="M138.076 138.03C137.346 137.661 125.261 139.543 125.261 139.543C125.261 139.543 123.271 138.975 118.46 138.186C113.649 137.397 113.341 132.7 113.341 132.7L112.815 123.299L114.439 121.88L121.394 126.423C121.394 126.423 121.502 128.72 121.394 129.134C121.326 129.418 121.144 129.756 121.161 129.986C121.166 130.048 121.192 130.107 121.234 130.153C121.276 130.2 121.332 130.231 121.394 130.242C121.866 130.361 128.298 131.4 128.298 131.4C128.298 131.4 143.206 130.381 146.922 135.395C147.217 135.763 147.439 136.183 147.579 136.633C148.5 140.06 138.739 138.356 138.076 138.03Z" fill="#FBBEBE"/>
<path opacity="0.1" d="M147.588 136.653C147.019 136.906 146.666 137.087 146.666 137.087C146.666 137.087 141.332 136.931 138.335 135.846C135.338 134.762 131.696 134.955 131.696 134.955C131.696 134.955 119.208 132.808 121.144 130.006C121.149 130.068 121.175 130.127 121.217 130.173C121.259 130.219 121.315 130.25 121.377 130.261C121.849 130.381 128.281 131.42 128.281 131.42C128.281 131.42 143.189 130.401 146.905 135.415C147.209 135.781 147.44 136.201 147.588 136.653Z" fill="black"/>
<path d="M152.774 120.111C152.774 120.111 153.508 125.281 153.559 125.701C153.61 126.122 153.874 131.184 153.559 131.761C153.243 132.337 152.774 133.274 152.774 133.274C152.774 133.274 153.297 134.37 151.204 134.79C149.112 135.21 146.655 136.46 146.655 136.46C146.655 136.46 141.318 136.304 138.338 135.208C135.358 134.112 131.696 134.319 131.696 134.319C131.696 134.319 115.844 131.602 122.645 128.285C129.447 124.969 134.258 129.461 134.258 129.461L141.841 128.992C141.841 128.992 144.667 127.266 145.452 127.425C146.006 127.495 146.569 127.405 147.073 127.164L147.127 121.678L152.774 120.111Z" fill="#FBBEBE"/>
<path opacity="0.1" d="M114.32 107.419L112.801 107.339L108.201 125.227C108.201 125.227 113.168 123.972 115.309 125.227C117.45 126.482 121.377 126.741 121.377 126.741L119.913 112.481L114.32 107.419Z" fill="black"/>
<path d="M114.32 107.104L112.801 107.024L108.201 124.912C108.201 124.912 113.168 123.657 115.309 124.912C117.45 126.167 121.377 126.425 121.377 126.425L119.913 112.166L114.32 107.104Z" fill="#6C63FF"/>
<path opacity="0.1" d="M149.114 111.022L151.204 111.493C151.204 111.493 156.541 119.159 156.959 119.588C157.377 120.017 154.969 121.576 153.977 121.576C152.984 121.576 148.119 122.144 146.706 123.455C145.293 124.767 145.881 118.166 145.881 118.015C145.881 117.865 147.636 113.699 147.636 113.699L149.114 111.022Z" fill="black"/>
<path d="M149.114 110.71L151.204 111.178C151.204 111.178 156.541 118.859 156.959 119.276C157.377 119.693 154.969 121.263 153.977 121.263C152.984 121.263 148.119 121.831 146.706 123.143C145.293 124.455 145.881 117.853 145.881 117.703C145.881 117.552 147.647 113.373 147.647 113.373L149.114 110.71Z" fill="#6C63FF"/>
<g opacity="0.1">
<path opacity="0.1" d="M135.045 81.4527C135.033 81.235 135.038 81.0167 135.059 80.7997C134.626 81.4484 134.329 82.1774 134.184 82.9434V83.6021C134.184 83.6021 134.184 83.5879 134.184 83.5794V83.7356C134.184 84.1956 134.184 84.6584 134.169 85.1183H134.13V85.3313C134.13 85.2575 134.13 85.1865 134.115 85.1127C133.547 85.0218 133.14 84.5448 132.716 84.1643C132.293 83.7839 131.63 83.4204 131.113 83.7129C130.865 83.8807 130.668 84.1136 130.544 84.3858L129.7 85.8736C129.696 85.7171 129.659 85.5631 129.591 85.4221C129.522 85.281 129.425 85.1562 129.304 85.0559C128.534 85.3924 127.881 85.95 127.429 86.6578C126.977 87.3656 126.746 88.1917 126.765 89.031C125.988 88.5449 125.338 87.8812 124.869 87.0947C124.4 86.3082 124.125 85.4215 124.067 84.5079C124.017 85.5281 124.241 86.5429 124.716 87.4478C125.19 88.3527 125.898 89.1148 126.765 89.6556C126.747 88.8165 126.978 87.9907 127.43 87.2831C127.882 86.5754 128.535 86.0177 129.304 85.6805C129.425 85.7816 129.522 85.9071 129.59 86.0485C129.658 86.1899 129.696 86.3442 129.7 86.5011L130.536 85.0133C130.66 84.741 130.856 84.5082 131.104 84.3404C131.622 84.0564 132.267 84.3915 132.708 84.7918C133.149 85.1922 133.578 85.6891 134.169 85.7544C134.169 85.0275 134.177 84.3025 134.192 83.5794C134.332 82.8208 134.622 82.0977 135.045 81.4527Z" fill="black"/>
<path opacity="0.1" d="M134.084 84.312C134.098 84.1189 134.121 83.9258 134.149 83.7441L134.181 82.9604C134.095 83.4056 134.063 83.8592 134.084 84.312Z" fill="black"/>
<path opacity="0.1" d="M142.711 87.6993C141.935 88.1139 140.945 87.7675 140.285 87.1882C139.626 86.609 139.179 85.8282 138.596 85.1694C138.553 85.2886 138.547 85.4181 138.579 85.5407C138.611 85.6634 138.68 85.7735 138.776 85.8566C138.719 85.8566 138.665 85.8282 138.611 85.814C139.179 86.467 139.631 87.2337 140.285 87.8015C140.939 88.3694 141.935 88.7272 142.711 88.3126C143.487 87.8981 143.709 86.927 143.641 85.9815C143.59 86.7254 143.322 87.37 142.711 87.6993Z" fill="black"/>
<path opacity="0.1" d="M138.594 85.8083C137.643 85.5495 136.794 85.0067 136.161 84.2526C135.527 83.4985 135.14 82.5691 135.051 81.589C134.889 83.8179 136.572 86.0525 138.776 86.4812C138.682 86.3998 138.614 86.2923 138.582 86.1724C138.55 86.0526 138.554 85.9258 138.594 85.8083Z" fill="black"/>
</g>
<path d="M275.146 132.215C275.146 132.215 274.025 132.059 274.025 130.432C274.025 128.805 273.224 125.758 273.224 125.758C273.224 125.758 272.53 120.457 271.572 119.617C270.613 118.776 269.382 113.841 269.382 113.841C269.382 113.841 269.172 111.164 268.742 110.588C268.313 110.011 267.733 108.6 266.877 106.587C266.021 104.574 262.461 103.194 262.461 103.194C262.461 103.194 256.01 99.4572 254.181 98.2391C254.014 98.1382 253.858 98.0202 253.715 97.8871C253.397 97.4725 252.009 97.464 252.009 97.464C251.864 96.5469 251.725 95.4963 251.679 94.5451C251.679 94.4429 251.679 94.3407 251.679 94.2385C253.718 93.0351 255.253 91.1378 256.004 88.8948C256.038 88.7869 256.066 88.6762 256.098 88.5654C256.223 88.527 256.338 88.4626 256.436 88.3764C256.534 88.2903 256.612 88.1844 256.666 88.0657C256.829 87.6994 256.834 87.2735 257.039 86.93C257.278 86.5268 257.733 86.311 258.091 86.01C258.995 85.2405 259.228 83.9486 259.186 82.776C259.157 81.8219 259.004 80.8622 259.063 79.9167C259.063 79.8372 259.063 79.7577 259.081 79.6782C259.098 79.5391 259.117 79.3943 259.143 79.258C259.282 78.5538 259.587 77.8894 259.757 77.191C259.928 76.4925 259.945 75.706 259.547 75.104C258.964 74.221 257.75 74.0449 256.684 73.9683C255.475 73.8661 254.409 73.9967 253.621 72.9944C253.26 72.4709 252.853 71.9806 252.404 71.5293C252.245 71.3816 250.698 70.4361 250.698 70.3765C249.185 69.6738 247.468 69.5417 245.864 70.0045C245.06 70.2373 244.306 70.6178 243.49 70.8081C241.739 71.2226 239.72 70.774 238.23 71.7763C237.399 72.3442 236.902 73.2499 236.436 74.1273C236.056 74.8504 235.672 75.5744 235.281 76.2994C234.65 77.4891 234.013 78.6986 233.749 80.0161C233.693 80.3039 233.658 80.5951 233.643 80.8878C233.643 80.9929 233.643 81.0979 233.643 81.203C233.643 81.2484 233.643 81.2938 233.643 81.3393C233.643 81.4358 233.643 81.5323 233.66 81.6232C233.677 81.7141 233.66 81.7396 233.68 81.7992C233.7 81.8589 233.706 81.9923 233.723 82.0832C233.74 82.174 233.774 82.3359 233.808 82.458C233.808 82.5119 233.842 82.563 233.859 82.617C233.876 82.6709 233.922 82.8072 233.959 82.9009C233.996 82.9946 233.999 83.0003 234.021 83.0485C234.064 83.1479 234.115 83.2445 234.167 83.3325C234.189 83.3694 234.206 83.4063 234.229 83.4432C234.307 83.5761 234.394 83.7033 234.491 83.8237C235.096 84.5818 235.995 85.0645 236.657 85.7743C236.657 85.8027 236.657 85.8311 236.657 85.8595C236.657 85.9362 236.657 86.0128 236.657 86.0923C236.698 87.6756 237.125 89.225 237.902 90.6056C238.679 91.9863 239.783 93.1564 241.116 94.0142C241.116 94.1221 241.13 94.2328 241.136 94.3435C241.191 95.1854 241.181 96.0303 241.104 96.8706C240.988 96.7347 240.843 96.6265 240.68 96.5538C240.517 96.481 240.339 96.4457 240.16 96.4503C240.038 96.4443 239.916 96.4548 239.796 96.4816L239.771 96.4617V96.4873C239.145 96.6406 238.375 97.2908 237.638 99.1392C237.638 99.1392 235.398 101.661 233.692 101.556C231.986 101.45 227.666 104.182 227.666 104.182C227.666 104.182 223.453 106.911 222.548 109.693C222.043 111.271 221.436 112.815 220.731 114.316L215.508 125.026L214.55 133.544C214.55 133.544 215.082 137.323 214.976 137.902C214.871 138.481 217.163 143.677 217.163 143.677C217.163 143.677 224.735 156.96 227.829 157.641L228.05 157.488C228.183 157.555 228.324 157.607 228.468 157.641L229.105 157.196C229.145 157.695 229.128 158.197 229.054 158.692C228.63 160.007 229.216 168.564 229.961 170.243C230.706 171.921 230.442 193.926 230.442 193.926L230.336 195.865C230.336 195.865 230.336 195.927 230.362 196.035L230.336 196.495L230.413 196.535C230.493 197.152 230.467 197.778 230.336 198.386C230.069 199.238 229.961 201.643 229.961 201.643C229.961 201.643 227.829 215.238 228.841 217.969C229.853 220.701 230.709 223.693 230.709 223.693C230.709 223.693 231.775 227.101 230.76 227.669C229.745 228.236 226.87 229.244 227.456 230.661C227.996 231.973 230.046 235.488 230.351 236.002L230.325 236.286L229.907 240.809C229.975 241.406 230.137 241.989 230.388 242.535C230.845 243.524 231.733 244.543 233.427 244.432C233.712 244.412 234.039 244.381 234.36 244.338C237.456 243.921 241.267 242.541 241.267 242.541C241.069 242.416 240.888 242.266 240.729 242.095C240.577 241.948 240.456 241.772 240.375 241.576C240.293 241.381 240.252 241.171 240.254 240.96C240.3 240.133 238.756 236.212 238.369 235.244L238.281 235.028C238.281 235.028 241.801 231.351 241.215 228.097C241.215 228.097 237.32 225.826 238.602 224.577C239.885 223.327 242.176 219.75 242.176 219.75C242.176 219.75 242.282 206.362 242.176 204.366C242.067 202.978 242.133 201.581 242.373 200.209C242.415 200.005 242.466 199.803 242.52 199.602C244.296 199.869 246.088 200.005 247.883 200.008C248.539 200.008 249.202 199.994 249.874 199.968C249.874 200.157 249.882 200.361 249.899 200.581C250.047 203.897 250.323 209.715 250.547 211.876C250.866 214.971 252.626 223.322 252.626 223.322C252.626 223.322 249.268 225.471 253.212 230.778C253.212 230.778 253.212 232.697 252.95 232.978C252.671 233.889 252.446 234.815 252.276 235.752C252.111 236.749 252.043 237.763 252.31 238.285C252.95 239.54 256.789 239.438 256.789 239.438C256.82 239.431 256.851 239.426 256.883 239.424C257.607 239.347 258.34 239.416 259.037 239.625C259.735 239.835 260.384 240.181 260.946 240.644C262.404 241.814 267.938 241.303 270.938 240.928C272.112 240.778 272.897 240.644 272.897 240.644C272.934 240.512 272.948 240.373 272.936 240.236C272.905 239.5 272.328 237.887 268.415 236.448C268.415 236.448 264.736 233.978 264.787 231.825H264.705H264.281C264.548 231.817 264.736 231.817 264.736 231.817C264.736 231.817 263.294 226.567 263.883 226.138C264.472 225.709 262.709 219.892 262.709 219.892C262.709 219.892 261.699 210.124 261.642 209.443C261.646 208.855 261.736 208.272 261.91 207.711L261.642 202.353C261.642 202.353 261.591 200.573 261.642 199.993C261.637 199.491 261.597 198.989 261.523 198.491C261.497 198.293 261.472 198.085 261.443 197.881C262.822 197.532 263.718 197.211 263.718 197.211L263.559 178.57C264.73 176.299 264.946 171.313 264.941 167.781C264.941 165.509 264.838 163.828 264.838 163.828L266.439 161.219C266.439 161.219 266.809 158.096 266.223 157.411C265.964 157.102 266.081 156.781 266.294 156.517C266.406 156.425 266.525 156.342 266.65 156.267C266.636 156.247 266.623 156.226 266.613 156.205C266.724 156.111 266.843 156.027 266.968 155.952C266.968 155.952 266.399 155.072 266.908 154.7C267.386 155.024 267.813 155.282 268.137 155.466C268.114 155.674 268.091 155.793 268.091 155.793L268.228 155.509C268.541 155.685 268.731 155.793 268.731 155.793C268.731 155.793 271.239 150.804 271.185 150.072C271.131 149.339 272.891 146.239 272.891 146.239C272.891 146.239 273.104 144.609 274.065 143.927C275.026 143.246 274.81 138.308 274.81 138.308C274.81 138.308 275.078 135.736 275.717 134.688C276.357 133.64 275.146 132.215 275.146 132.215ZM227.16 130.026L227.209 131.215C226.924 130.758 226.72 130.432 226.72 130.432L227.16 130.026Z" fill="url(#paint1_linear)"/>
<path d="M268.879 153.635L268.265 156.247C268.265 156.247 263.346 153.734 262.462 150.554C261.577 147.374 263.943 146.162 263.943 146.162L268.529 148.098L268.879 153.635Z" fill="white"/>
<path opacity="0.1" d="M268.879 153.635L268.265 156.247C268.265 156.247 263.346 153.734 262.462 150.554C261.577 147.374 263.943 146.162 263.943 146.162L268.529 148.098L268.879 153.635Z" fill="black"/>
<path d="M241.272 242.538C241.272 242.538 236.723 244.208 233.595 244.418C231.934 244.529 231.061 243.512 230.612 242.533C230.368 241.992 230.209 241.418 230.14 240.829L230.552 236.329L230.769 233.935L237.414 232.209L238.355 235.085L238.443 235.301C238.818 236.263 240.337 240.165 240.291 240.98C240.287 241.19 240.327 241.4 240.406 241.595C240.486 241.79 240.604 241.967 240.755 242.115C240.908 242.278 241.082 242.42 241.272 242.538Z" fill="white"/>
<path d="M272.334 240.25C272.345 240.387 272.332 240.526 272.294 240.659C272.294 240.659 262.564 242.277 260.573 240.659C260.014 240.186 259.362 239.835 258.659 239.628C257.956 239.421 257.217 239.363 256.49 239.458C256.49 239.458 252.726 239.56 252.097 238.322C251.836 237.802 251.904 236.794 252.066 235.803C252.231 234.871 252.452 233.95 252.726 233.043L252.876 232.924L253.772 232.206L264.258 231.896H264.338C264.287 234.037 267.895 236.493 267.895 236.493C271.737 237.913 272.302 239.517 272.334 240.25Z" fill="white"/>
<path opacity="0.1" d="M272.337 240.25C272.347 240.387 272.333 240.526 272.294 240.659C272.294 240.659 262.564 242.277 260.577 240.659C260.017 240.185 259.364 239.834 258.66 239.627C257.957 239.421 257.218 239.363 256.491 239.458C256.491 239.458 252.723 239.56 252.095 238.322C251.836 237.802 251.901 236.794 252.063 235.8C253.513 235.945 255.802 236.306 256.701 237.169C258.06 238.475 260.363 239.781 261.774 239.886C262.888 239.954 269.516 240.165 272.337 240.25Z" fill="black"/>
<path opacity="0.1" d="M241.272 242.538C241.272 242.538 236.723 244.208 233.595 244.418C231.934 244.529 231.062 243.512 230.612 242.533C231.772 242.922 233.379 243.328 234.223 242.956C235.224 242.51 238.773 242.226 240.763 242.104C240.913 242.27 241.084 242.416 241.272 242.538Z" fill="black"/>
<path d="M248.023 107.984C244.269 106.527 239.441 101.714 240.647 99.4656C240.913 98.8977 241.072 98.2855 241.116 97.6598C241.194 96.8102 241.205 95.9558 241.15 95.1044C241.066 93.709 240.898 92.32 240.647 90.9447C240.647 90.9447 252.365 91.2088 251.682 92.9323C251.483 93.4405 251.449 94.3179 251.506 95.2974C251.563 96.277 251.702 97.3929 251.85 98.3327C252.052 99.619 252.259 100.604 252.259 100.604C252.259 100.604 251.54 101.607 251.122 101.66C250.704 101.714 253.408 110.071 248.023 107.984Z" fill="#CF6F80"/>
<path opacity="0.1" d="M238.431 235.287L238.343 235.383C234.84 231.152 230.604 236.428 230.604 236.428L230.541 236.314L230.757 233.921L237.402 232.194L238.343 235.071L238.431 235.287Z" fill="black"/>
<path opacity="0.1" d="M264.344 232.195C264.344 232.195 261.785 232.143 260.42 233.347C259.055 234.551 252.458 233.606 252.743 233.347C252.826 233.216 252.876 233.067 252.891 232.913L253.786 232.195L264.273 231.885C264.313 232.084 264.344 232.195 264.344 232.195Z" fill="black"/>
<path d="M242.791 198.971C242.601 199.442 242.456 199.93 242.359 200.428C242.122 201.792 242.056 203.181 242.163 204.562C242.268 206.549 242.163 219.869 242.163 219.869C242.163 219.869 239.913 223.421 238.657 224.673C237.4 225.925 241.216 228.174 241.216 228.174C241.784 231.414 238.338 235.071 238.338 235.071C234.835 230.84 230.598 236.113 230.598 236.113C230.598 236.113 228.295 232.138 227.721 230.718C227.146 229.298 229.97 228.319 230.962 227.74C231.955 227.16 230.911 223.764 230.911 223.764C230.911 223.764 230.075 220.786 229.08 218.069C228.085 215.351 230.178 201.828 230.178 201.828C230.178 201.828 230.286 199.423 230.544 198.585C230.673 197.98 230.699 197.358 230.621 196.745C230.604 196.538 230.584 196.367 230.57 196.248C230.556 196.129 230.544 196.078 230.544 196.078L230.584 196.01L232.006 193.363C232.006 193.363 243.473 197.304 242.791 198.971Z" fill="#6C63FF"/>
<path d="M264.344 231.882C264.344 231.882 261.784 231.828 260.42 233.018C259.055 234.208 252.458 233.279 252.742 233.018C253.027 232.757 253.001 230.826 253.001 230.826C249.131 225.547 252.432 223.407 252.432 223.407C252.432 223.407 250.707 215.101 250.394 212.021C250.175 209.871 249.905 204.071 249.76 200.785C249.697 199.366 249.66 198.386 249.66 198.386L252.794 197.764L253.2 197.685L260.826 196.154C260.826 196.154 261.037 197.574 261.179 198.735C261.251 199.231 261.29 199.731 261.295 200.232C261.247 200.8 261.295 202.58 261.295 202.58L261.557 207.907C261.388 208.466 261.3 209.046 261.295 209.63C261.349 210.311 262.342 220.025 262.342 220.025C262.342 220.025 264.068 225.823 263.479 226.24C262.891 226.658 264.344 231.882 264.344 231.882Z" fill="#6C63FF"/>
<path opacity="0.1" d="M251.682 92.9408C251.483 93.449 251.449 94.3264 251.505 95.306C249.936 96.2498 248.132 96.7323 246.3 96.6982C244.468 96.664 242.683 96.1146 241.15 95.1129C241.065 93.7176 240.897 92.3286 240.646 90.9532C240.646 90.9532 252.364 91.2173 251.682 92.9408Z" fill="black"/>
<path d="M256.206 86.6715C256.237 89.2477 255.242 91.7306 253.439 93.574C251.637 95.4175 249.175 96.4705 246.595 96.5014C244.016 96.5322 241.529 95.5385 239.683 93.7387C237.837 91.9389 236.782 89.4805 236.751 86.9043C236.751 86.8248 236.751 86.751 236.751 86.6715C236.751 84.0946 237.777 81.6232 239.601 79.801C241.426 77.9789 243.901 76.9552 246.482 76.9552C249.062 76.9552 251.537 77.9789 253.362 79.801C255.187 81.6232 256.212 84.0946 256.212 86.6715H256.206Z" fill="#CF6F80"/>
<path opacity="0.1" d="M248.023 107.984C244.269 106.527 239.441 101.715 240.647 99.4657C240.913 98.8978 241.072 98.2856 241.116 97.6599L246.254 101.879L249.433 104.483L251.85 98.3414C252.052 99.6276 252.259 100.613 252.259 100.613C252.259 100.613 251.54 101.615 251.122 101.669C250.704 101.723 253.408 110.071 248.023 107.984Z" fill="black"/>
<path d="M261.31 126.63L257.019 198.608L251.423 198.974L236.93 157.238L239.307 107.688L239.811 97.2197L246.254 102.504L249.433 105.107L251.921 98.7842L256.547 102.81L261.31 126.63Z" fill="#6C63FF"/>
<path opacity="0.1" d="M242.791 198.971C242.601 199.442 242.456 199.93 242.359 200.428C238.283 199.801 234.324 198.567 230.615 196.768L230.539 196.728L230.564 196.271V196.032L231.986 193.386C231.986 193.386 243.473 197.304 242.791 198.971Z" fill="black"/>
<path opacity="0.1" d="M252.888 200.439C251.847 200.617 250.797 200.737 249.743 200.8C249.681 199.38 249.644 198.4 249.644 198.4L252.794 197.764L252.888 200.439Z" fill="black"/>
<path opacity="0.1" d="M261.191 198.735C259.169 199.261 256.044 199.851 253.252 199.482L253.212 197.685L260.838 196.154C260.838 196.154 261.04 197.563 261.191 198.735Z" fill="black"/>
<path opacity="0.1" d="M253.2 199.812C241.542 201.799 230.865 196.1 230.865 196.1L230.968 194.17C230.968 194.17 231.232 172.281 230.499 170.603C229.765 168.925 229.194 160.427 229.609 159.129C230.024 157.832 228.093 138.24 228.093 138.24L227.78 130.29L216.324 125.642L221.442 114.986C222.134 113.492 222.728 111.956 223.222 110.386C224.112 107.617 228.244 104.9 228.244 104.9C228.244 104.9 232.481 102.186 234.155 102.288C235.83 102.39 238.025 99.8859 238.025 99.8859C239.646 95.7603 241.113 97.6144 241.113 97.6144C241.113 97.8132 241.113 97.6144 241.034 98.2249C240.465 102.754 250.229 117.064 250.368 117.32L251.31 139.938L252.251 168.562L253.2 199.812Z" fill="black"/>
<path d="M252.888 199.812C241.23 201.799 230.55 196.1 230.55 196.1L230.655 194.17C230.655 194.17 230.917 172.281 230.183 170.603C229.449 168.925 228.878 160.418 229.296 159.109C229.714 157.8 227.772 138.229 227.772 138.229L227.456 130.278L216.003 125.63L221.121 114.974C221.811 113.481 222.405 111.946 222.901 110.377C223.791 107.617 227.937 104.897 227.937 104.897C227.937 104.897 232.173 102.183 233.845 102.285C235.517 102.387 237.724 99.8859 237.724 99.8859C239.347 95.7603 241.136 97.6144 241.136 97.6144C241.136 97.8132 240.965 97.8984 241.056 98.2249C242.307 102.617 249.939 117.064 250.078 117.32L251.02 139.938L251.941 168.576L252.888 199.812Z" fill="white"/>
<path opacity="0.1" d="M249.745 117.958C248.492 117.436 241.849 109.863 241.849 109.863V108.14C241.608 107.572 240.169 107.919 239.006 108.316L239.506 97.8473L240.075 98.3186C241.318 102.708 249.609 117.706 249.745 117.958Z" fill="black"/>
<path d="M250.061 117.334C248.804 116.808 242.162 109.239 242.162 109.239V107.512C241.921 106.945 240.485 107.291 239.319 107.688L239.811 97.2311L240.379 97.6996C241.633 102.084 249.922 117.078 250.061 117.334Z" fill="white"/>
<path opacity="0.1" d="M230.865 155.097C231.022 155.097 238.972 154.262 238.972 154.262C238.972 154.262 243.786 163.718 243.47 166.015C243.155 168.312 242.583 170.35 240.647 169.99C238.71 169.629 230.226 170.274 230.226 170.274L230.865 155.097Z" fill="black"/>
<path d="M230.55 154.47C230.709 154.47 238.659 153.635 238.659 153.635C238.659 153.635 243.47 163.104 243.158 165.376C242.845 167.647 242.268 169.711 240.334 169.351C238.401 168.99 229.91 169.635 229.91 169.635L230.55 154.47Z" fill="white"/>
<path d="M236.541 150.043C236.541 150.043 243.837 153.962 243.994 155.154C244.15 156.347 240.28 154.632 239.444 154.421C238.893 154.291 238.334 154.204 237.769 154.16L232.193 154.311L236.541 150.043Z" fill="#CF6F80"/>
<path opacity="0.1" d="M247.707 118.447C248.131 118.447 248.475 118.104 248.475 117.68C248.475 117.257 248.131 116.914 247.707 116.914C247.283 116.914 246.939 117.257 246.939 117.68C246.939 118.104 247.283 118.447 247.707 118.447Z" fill="black"/>
<path d="M247.707 118.134C248.131 118.134 248.475 117.791 248.475 117.368C248.475 116.944 248.131 116.601 247.707 116.601C247.283 116.601 246.939 116.944 246.939 117.368C246.939 117.791 247.283 118.134 247.707 118.134Z" fill="#3F3D56"/>
<path opacity="0.1" d="M249.12 151.633C249.544 151.633 249.888 151.29 249.888 150.867C249.888 150.443 249.544 150.1 249.12 150.1C248.696 150.1 248.353 150.443 248.353 150.867C248.353 151.29 248.696 151.633 249.12 151.633Z" fill="black"/>
<path d="M249.12 151.318C249.544 151.318 249.888 150.975 249.888 150.552C249.888 150.128 249.544 149.785 249.12 149.785C248.696 149.785 248.353 150.128 248.353 150.552C248.353 150.975 248.696 151.318 249.12 151.318Z" fill="#3F3D56"/>
<path opacity="0.1" d="M248.475 135.04C248.899 135.04 249.243 134.697 249.243 134.273C249.243 133.85 248.899 133.507 248.475 133.507C248.051 133.507 247.707 133.85 247.707 134.273C247.707 134.697 248.051 135.04 248.475 135.04Z" fill="black"/>
<path d="M248.475 134.728C248.899 134.728 249.243 134.384 249.243 133.961C249.243 133.538 248.899 133.194 248.475 133.194C248.051 133.194 247.707 133.538 247.707 133.961C247.707 134.384 248.051 134.728 248.475 134.728Z" fill="#3F3D56"/>
<path d="M266.172 154.001C266.172 154.001 266.695 154.785 266.172 155.137C265.649 155.489 266.223 156.392 266.223 156.392C266.223 156.392 264.918 157.153 265.493 157.843C266.067 158.533 265.703 161.631 265.703 161.631L264.133 164.24C264.133 164.24 264.227 165.912 264.233 168.173C264.233 171.699 264.025 176.657 262.877 178.917L263.03 197.461C263.03 197.461 257.534 199.468 252.933 198.855L252.251 169.098C252.251 169.098 253.246 152.224 253.613 148.987C253.827 147.307 253.915 145.612 253.874 143.919C253.874 143.919 253.718 138.853 253.192 136.505C253.192 136.505 252.623 126.317 252.566 123.498C252.541 122.149 252.612 118.214 252.691 114.472C252.78 110.38 252.879 106.521 252.879 106.521L251.841 98.3185C251.841 98.3185 252.879 98.2163 253.192 98.6309C253.332 98.7615 253.484 98.8785 253.647 98.9801C255.441 100.19 261.771 103.909 261.771 103.909C261.771 103.909 265.274 105.301 266.112 107.294C266.951 109.287 267.534 110.701 267.941 111.269C268.347 111.837 268.569 114.506 268.569 114.506C268.569 114.506 269.775 119.418 270.716 120.25C271.657 121.082 272.334 126.363 272.334 126.363L264.017 132.893C264.017 132.893 263.286 143.757 263.13 144.177C262.973 144.597 266.172 154.001 266.172 154.001Z" fill="white"/>
<path d="M266.488 154.001C266.488 154.001 267.008 154.785 266.488 155.137C265.968 155.489 266.536 156.392 266.536 156.392C266.536 156.392 265.231 157.153 265.806 157.843C266.38 158.533 266.016 161.631 266.016 161.631L264.452 164.24C264.452 164.24 264.546 165.912 264.554 168.173C264.554 171.699 264.347 176.657 263.198 178.917L263.355 197.461C263.355 197.461 257.858 199.468 253.258 198.855L252.578 169.098C252.578 169.098 253.57 152.224 253.94 148.987C254.155 147.307 254.241 145.612 254.199 143.919C254.199 143.919 254.042 138.853 253.519 136.505C253.519 136.505 252.95 126.318 252.891 123.498C252.865 122.149 252.936 118.214 253.016 114.472C253.104 110.38 253.204 106.522 253.204 106.522L251.833 98.2079C251.833 98.2079 253.204 98.2079 253.519 98.6309C253.658 98.7632 253.81 98.8803 253.974 98.9802C255.765 100.19 262.095 103.909 262.095 103.909C262.095 103.909 265.589 105.301 266.442 107.294C267.296 109.287 267.864 110.701 268.271 111.269C268.677 111.837 268.899 114.506 268.899 114.506C268.899 114.506 270.105 119.418 271.046 120.25C271.987 121.082 272.667 126.363 272.667 126.363L264.35 132.894C264.35 132.894 263.619 143.757 263.46 144.177C263.301 144.597 266.488 154.001 266.488 154.001Z" fill="white"/>
<path opacity="0.1" d="M256.527 108.932L257.281 111.118L253.325 115.094C253.414 111.002 253.513 107.143 253.513 107.143L252.143 98.8325C252.143 98.8325 253.513 98.8325 253.829 99.2556C253.968 99.3878 254.12 99.5049 254.284 99.6048L257.645 109.284L256.527 108.932Z" fill="black"/>
<path d="M256.206 108.305L256.959 110.488L253.007 114.463C253.092 110.372 253.195 106.513 253.195 106.513L251.821 98.1993C251.821 98.1993 253.195 98.1993 253.507 98.6224C253.647 98.7538 253.799 98.8709 253.962 98.9716L257.343 108.66L256.206 108.305Z" fill="white"/>
<path opacity="0.1" d="M256.206 86.6715C256.207 87.6946 256.046 88.7114 255.728 89.6841C255.675 89.693 255.62 89.6911 255.567 89.6784C255.515 89.6657 255.465 89.6425 255.421 89.6102C255.345 87.0548 254.088 84.6527 252.538 82.6112C252.102 81.9955 251.575 81.4497 250.974 80.9928C250.366 80.5371 249.61 80.3235 248.853 80.3937C248 80.5101 247.246 81.0893 246.385 81.1631C245.248 81.2568 244.23 80.4703 243.101 80.4334C242.642 80.4372 242.189 80.539 241.773 80.732C241.356 80.9249 240.986 81.2046 240.687 81.5521C240.093 82.2512 239.652 83.0665 239.393 83.9457C238.946 85.2798 238.702 86.6734 238.671 88.0798C238.657 88.8748 238.58 89.8715 237.84 90.1611C237.896 89.5768 237.83 88.9873 237.645 88.43C237.461 87.8728 237.162 87.36 236.769 86.9242L236.751 86.9043C236.751 86.8248 236.751 86.751 236.751 86.6715C236.751 84.0946 237.777 81.6232 239.601 79.801C241.426 77.9789 243.901 76.9552 246.482 76.9552C249.062 76.9552 251.537 77.9789 253.362 79.801C255.187 81.6232 256.212 84.0946 256.212 86.6715H256.206Z" fill="black"/>
<path d="M250.519 71.2453C249.042 70.5512 247.361 70.42 245.793 70.8762C245.006 71.109 244.264 71.4866 243.465 71.6769C241.759 72.0886 239.768 71.6428 238.304 72.6394C237.491 73.2073 237.002 74.1045 236.547 74.979L235.409 77.1398C234.789 78.3238 234.164 79.5277 233.905 80.831C233.646 82.1342 233.803 83.5937 234.63 84.6442C235.23 85.4052 236.123 85.885 236.777 86.6034C237.17 87.0413 237.468 87.5558 237.652 88.1143C237.836 88.6729 237.902 89.2634 237.846 89.8488C238.585 89.5648 238.659 88.5625 238.676 87.7675C238.708 86.3611 238.952 84.9675 239.399 83.6334C239.658 82.7542 240.099 81.9389 240.692 81.2398C240.991 80.8919 241.362 80.6118 241.778 80.4184C242.194 80.2249 242.647 80.1226 243.106 80.1183C244.244 80.158 245.265 80.9445 246.391 80.848C247.244 80.777 248 80.1978 248.859 80.0814C249.616 80.0098 250.372 80.2235 250.98 80.6805C251.581 81.136 252.108 81.682 252.541 82.2989C254.093 84.3433 255.353 86.734 255.427 89.2979C255.748 89.5308 256.212 89.2241 256.371 88.8607C256.53 88.4972 256.536 88.0713 256.738 87.7249C256.971 87.3246 257.417 87.1088 257.767 86.8078C258.654 86.044 258.876 84.7578 258.842 83.5908C258.808 82.4238 258.58 81.2398 258.802 80.0927C258.936 79.3914 259.237 78.7298 259.402 78.0342C259.567 77.3386 259.587 76.5577 259.197 75.9586C258.629 75.0813 257.432 74.9052 256.388 74.8229C255.202 74.7207 254.142 74.8513 253.385 73.8547C253.029 73.3352 252.63 72.847 252.191 72.3952C252.035 72.2447 250.519 71.3078 250.519 71.2453Z" fill="#512E4E"/>
<path opacity="0.1" d="M219.605 131.122L216.637 125.639L215.696 134.1C215.696 134.1 216.219 137.86 216.114 138.436C216.009 139.012 218.258 144.18 218.258 144.18C218.258 144.18 225.688 157.397 228.721 158.076L238.958 150.762L236.239 147.315C236.239 147.315 235.298 146.948 235.062 147.315C235.062 147.315 230.012 138.643 229.492 138.019C228.972 137.394 229.071 136.136 229.071 136.136C229.071 136.136 228.286 135.301 228.548 134.518C228.81 133.734 227.047 131.02 227.047 131.02L228.667 129.506L219.605 131.122Z" fill="black"/>
<path d="M216.793 125.011L216.009 125.639L215.067 134.1C215.067 134.1 215.591 137.86 215.485 138.436C215.38 139.012 217.632 144.18 217.632 144.18C217.632 144.18 225.059 157.397 228.093 158.076L238.346 150.762L235.625 147.315C235.625 147.315 234.684 146.948 234.448 147.315C234.448 147.315 229.401 138.643 228.878 138.019C228.355 137.394 228.46 136.136 228.46 136.136C228.46 136.136 227.675 135.301 227.937 134.518C228.198 133.734 226.418 131.02 226.418 131.02L228.039 129.506L216.793 125.011Z" fill="white"/>
<path opacity="0.1" d="M265.493 158.17C266.061 158.86 265.703 161.96 265.703 161.96L264.133 164.552C264.133 164.552 264.227 166.228 264.233 168.488L261.594 169.311C261.355 169.386 261.102 169.402 260.856 169.359C260.609 169.315 260.377 169.214 260.178 169.063C259.978 168.912 259.818 168.715 259.711 168.49C259.603 168.264 259.551 168.016 259.558 167.767L260.016 153.115L266.172 155.464C265.649 155.827 266.223 156.719 266.223 156.719C266.223 156.719 264.918 157.48 265.493 158.17Z" fill="black"/>
<path d="M265.805 157.857C266.374 158.544 266.016 161.645 266.016 161.645L264.452 164.24C264.452 164.24 264.546 165.912 264.554 168.173L261.867 169.01C261.634 169.083 261.386 169.099 261.145 169.058C260.905 169.016 260.677 168.917 260.482 168.769C260.288 168.622 260.131 168.43 260.026 168.209C259.92 167.989 259.869 167.747 259.877 167.502L260.335 152.8L266.488 155.154C265.962 155.518 266.536 156.409 266.536 156.409C266.536 156.409 265.231 157.167 265.805 157.857Z" fill="white"/>
<path d="M267.847 150.867C267.847 150.867 267.429 153.533 266.382 153.689C265.336 153.845 264.867 158.002 263.823 157.857C262.78 157.712 263.471 153.99 263.508 153.269C263.545 152.548 262.37 149.561 263.246 148.882C264.122 148.203 266.908 148.882 266.908 148.882L267.847 150.867Z" fill="#CF6F80"/>
<path opacity="0.1" d="M270.059 130.338L272.029 126.363C272.029 126.363 272.817 129.393 272.817 131.011C272.817 132.629 273.915 132.788 273.915 132.788C273.915 132.788 275.117 134.208 274.483 135.244C273.849 136.281 273.596 138.848 273.596 138.848C273.596 138.848 273.804 143.757 272.863 144.435C271.921 145.114 271.711 146.735 271.711 146.735C271.711 146.735 269.985 149.816 270.039 150.549C270.093 151.281 267.634 156.242 267.634 156.242C267.634 156.242 268.836 150.077 261.827 147.414C261.827 147.414 261.773 145.324 262.296 144.751C262.82 144.177 263.636 143.899 263.124 141.014C262.612 138.129 262.976 134.651 262.976 133.955C262.976 133.26 264.546 128.924 264.546 128.924L270.059 130.338Z" fill="black"/>
<path d="M270.935 125.795L272.658 126.363C272.658 126.363 273.446 129.393 273.446 131.011C273.446 132.629 274.543 132.788 274.543 132.788C274.543 132.788 275.746 134.208 275.112 135.244C274.478 136.281 274.222 138.848 274.222 138.848C274.222 138.848 274.432 143.757 273.491 144.435C272.55 145.114 272.354 146.735 272.354 146.735C272.354 146.735 270.628 149.816 270.682 150.549C270.736 151.281 268.273 156.242 268.273 156.242C268.273 156.242 269.476 150.077 262.467 147.414C262.467 147.414 262.416 145.324 262.939 144.751C263.462 144.177 264.278 143.899 263.767 141.014C263.255 138.129 263.619 134.651 263.619 133.955C263.619 133.26 265.188 128.924 265.188 128.924L270.935 125.795Z" fill="white"/>
<path opacity="0.1" d="M232.867 228.827C232.867 228.827 235.614 227.104 237.417 228.356C239.219 229.608 232.867 228.827 232.867 228.827Z" fill="black"/>
<path opacity="0.1" d="M254.215 223.498C254.215 223.498 256.646 223.185 258.688 225.38C260.73 227.575 254.215 223.498 254.215 223.498Z" fill="black"/>
<g opacity="0.1">
<path opacity="0.1" d="M257.767 86.1832C257.417 86.487 256.968 86.7 256.735 87.1003C256.536 87.4439 256.53 87.8698 256.371 88.2361C256.212 88.6024 255.748 88.9062 255.424 88.6733C255.35 86.1179 254.09 83.7187 252.541 81.6743C252.107 81.0582 251.581 80.5132 250.98 80.0587C250.371 79.6008 249.614 79.3862 248.856 79.4568C248.003 79.5732 247.252 80.1524 246.39 80.2263C245.253 80.32 244.232 79.5335 243.103 79.4966C242.645 79.5 242.192 79.6017 241.776 79.7947C241.36 79.9876 240.991 80.2675 240.692 80.6153C240.099 81.3144 239.658 82.1297 239.398 83.0088C238.952 84.3429 238.708 85.7365 238.676 87.1429C238.659 87.9351 238.585 88.9232 237.852 89.2185C237.869 89.4292 237.869 89.641 237.852 89.8517C238.594 89.5677 238.668 88.5655 238.685 87.7704C238.717 86.364 238.96 84.9704 239.407 83.6363C239.666 82.7572 240.107 81.9419 240.701 81.2428C240.999 80.895 241.369 80.6151 241.785 80.4216C242.201 80.2282 242.653 80.1258 243.112 80.1212C244.249 80.161 245.273 80.9475 246.399 80.8509C247.252 80.7799 248.008 80.2007 248.864 80.0843C249.622 80.0129 250.38 80.2265 250.988 80.6834C251.589 81.1389 252.116 81.6849 252.549 82.3018C254.099 84.3462 255.358 86.7369 255.432 89.3008C255.757 89.5337 256.22 89.227 256.379 88.8636C256.538 88.5001 256.544 88.0742 256.743 87.7278C256.976 87.3275 257.426 87.1117 257.775 86.8107C258.663 86.0469 258.884 84.7607 258.85 83.5937C258.85 83.5568 258.85 83.5228 258.85 83.4858C258.793 84.5023 258.523 85.533 257.767 86.1832Z" fill="black"/>
<path opacity="0.1" d="M236.774 85.9844C236.123 85.2661 235.23 84.7834 234.63 84.0224C234.123 83.3507 233.835 82.5402 233.803 81.6998C233.714 82.7506 234.007 83.7983 234.63 84.6499C235.23 85.4109 236.123 85.8907 236.774 86.6091C237.403 87.3114 237.781 88.2021 237.849 89.1418C237.892 88.5704 237.819 87.9962 237.634 87.4537C237.449 86.9112 237.157 86.4115 236.774 85.9844Z" fill="black"/>
<path opacity="0.1" d="M259.402 77.4096C259.234 78.1052 258.936 78.7668 258.799 79.4681C258.717 79.9423 258.687 80.4241 258.711 80.9048C258.72 80.6333 258.75 80.3628 258.799 80.0956C258.936 79.3943 259.234 78.7327 259.402 78.0371C259.498 77.6531 259.53 77.2559 259.496 76.8616C259.477 77.0462 259.446 77.2293 259.402 77.4096Z" fill="black"/>
</g>
<path opacity="0.1" d="M37.7404 238.188C53.0422 238.188 65.4467 236.199 65.4467 233.745C65.4467 231.291 53.0422 229.301 37.7404 229.301C22.4387 229.301 10.0342 231.291 10.0342 233.745C10.0342 236.199 22.4387 238.188 37.7404 238.188Z" fill="#6C63FF"/>
<path d="M38.6334 148.618H36.8506V188.701H38.6334V148.618Z" fill="#535461"/>
<path d="M49.8394 188.582L49.7256 190.388L49.5692 192.943L49.5038 194.005L49.3446 196.561L49.2764 197.622L49.12 200.178L47.3201 229.159C47.2433 230.406 46.6932 231.577 45.7817 232.433C44.8703 233.288 43.6663 233.765 42.4152 233.765H33.0689C31.8144 233.765 30.6072 233.286 29.6951 232.426C28.783 231.566 28.2352 230.39 28.164 229.139L26.3641 200.158L26.2077 197.603L26.1423 196.541L25.9803 193.985L25.9149 192.923L25.7585 190.368L25.6447 188.562C25.6251 188.216 25.6761 187.869 25.7948 187.544C25.9135 187.218 26.0973 186.92 26.3351 186.667C26.5729 186.414 26.8597 186.213 27.1781 186.074C27.4964 185.936 27.8396 185.864 28.1868 185.862H47.3002C47.6489 185.864 47.9936 185.937 48.313 186.077C48.6323 186.217 48.9198 186.42 49.1575 186.675C49.3953 186.929 49.5785 187.23 49.6957 187.558C49.813 187.886 49.8618 188.234 49.8394 188.582Z" fill="#3F3D56"/>
<path d="M49.7258 190.385L49.5666 192.935H25.9151L25.7559 190.385H49.7258Z" fill="#9D9CB5"/>
<path d="M49.5012 193.997L49.3448 196.546H26.1397L25.9805 193.997H49.5012Z" fill="#9D9CB5"/>
<path d="M49.2766 197.611L49.1202 200.158H26.3643L26.2051 197.611H49.2766Z" fill="#9D9CB5"/>
<path d="M23.0457 163.644C33.4299 171.145 37.7547 182.878 37.7547 182.878C37.7547 182.878 25.2437 182.449 14.8567 174.947C4.46968 167.446 0.13916 155.722 0.13916 155.722C0.13916 155.722 12.6502 156.142 23.0457 163.644Z" fill="#6C63FF"/>
<path d="M0.13916 155.722C0.13916 155.722 13.125 162.92 17.2906 168.88C21.4562 174.839 37.7433 182.883 37.7433 182.883" stroke="#535461" stroke-width="2" stroke-miterlimit="10"/>
<path d="M29.7366 148.533C35.3893 152.613 37.7437 158.999 37.7437 158.999C37.7437 158.999 30.9195 158.766 25.281 154.686C19.6425 150.605 17.2739 144.217 17.2739 144.217C17.2739 144.217 24.0867 144.45 29.7366 148.533Z" fill="#6C63FF"/>
<path d="M17.2739 144.217C17.2739 144.217 24.3427 148.135 26.6117 151.378C28.8807 154.62 37.7437 158.999 37.7437 158.999" stroke="#535461" stroke-width="2" stroke-miterlimit="10"/>
<path d="M45.9552 158.675C39.4637 165.799 38.0903 175.109 38.0903 175.109C38.0903 175.109 47.2433 172.866 53.7291 165.739C60.2149 158.612 61.594 149.305 61.594 149.305C61.594 149.305 52.4467 151.551 45.9552 158.675Z" fill="#6C63FF"/>
<path d="M61.5997 149.308C61.5997 149.308 53.1434 156.611 50.9937 161.642C48.8441 166.673 38.0903 175.109 38.0903 175.109" stroke="#535461" stroke-width="2" stroke-miterlimit="10"/>
</g>
<defs>
<linearGradient id="paint0_linear" x1="132.369" y1="237.246" x2="132.369" y2="73.23" gradientUnits="userSpaceOnUse">
<stop stop-color="#808080" stop-opacity="0.25"/>
<stop offset="0.54" stop-color="#808080" stop-opacity="0.12"/>
<stop offset="1" stop-color="#808080" stop-opacity="0.1"/>
</linearGradient>
<linearGradient id="paint1_linear" x1="54104.3" y1="153709" x2="54104.3" y2="46204.7" gradientUnits="userSpaceOnUse">
<stop stop-color="#808080" stop-opacity="0.25"/>
<stop offset="0.54" stop-color="#808080" stop-opacity="0.12"/>
<stop offset="1" stop-color="#808080" stop-opacity="0.1"/>
</linearGradient>
<clipPath id="clip0">
<rect width="332" height="245" fill="white"/>
</clipPath>
</defs>
</svg>
