<svg width="370" height="354" viewBox="0 0 370 354" fill="none" xmlns="http://www.w3.org/2000/svg">
<g filter="url(#filter0_d)">
<path fill-rule="evenodd" clip-rule="evenodd" d="M191.266 0.443123C222.182 -0.60191 255.408 5.71606 277.791 27.0682C299.184 47.4767 292.886 82.2635 305.209 109.14C320.116 141.653 364.379 165.029 357.101 200.049C349.974 234.339 302.925 240.308 273.88 259.877C246.233 278.504 224.187 306.523 191.266 311.78C155.296 317.523 113.24 314.956 86.9702 289.721C61.1919 264.958 75.577 221.268 62.4376 188.025C47.8376 151.086 -4.88595 124.18 6.5 86.127C17.8092 48.331 73.1007 49.3745 108.89 32.7775C136.322 20.0561 161.046 1.46468 191.266 0.443123Z" fill="#FFB3D5"/>
<g clip-path="url(#clip0)">
<path d="M230.054 326.719C231.938 332.423 228.079 338.829 228.079 338.829C228.079 338.829 221.166 335.985 219.282 330.281C217.398 324.576 221.257 318.17 221.257 318.17C221.257 318.17 228.17 321.014 230.054 326.719Z" fill="#E6E6E6"/>
<path d="M358.728 331.895C355.135 336.71 347.678 337.216 347.678 337.216C347.678 337.216 346.046 329.918 349.638 325.104C353.23 320.289 360.688 319.783 360.688 319.783C360.688 319.783 362.32 327.081 358.728 331.895Z" fill="#E6E6E6"/>
<path d="M286.117 346C330.235 346 366 343.459 366 340.324C366 337.189 330.235 334.648 286.117 334.648C241.999 334.648 206.234 337.189 206.234 340.324C206.234 343.459 241.999 346 286.117 346Z" fill="#E6E6E6"/>
<path d="M324.674 29.1761H15.1326V227.549H324.674V29.1761Z" fill="#E6E6E6"/>
<path d="M315.823 54.0565H23.9834V215.813H315.823V54.0565Z" fill="white"/>
<path d="M324.542 29H15V42.159H324.542V29Z" fill="#FF91C2"/>
<path d="M24.7725 38.1665C26.1186 38.1665 27.2099 37.0746 27.2099 35.7276C27.2099 34.3806 26.1186 33.2887 24.7725 33.2887C23.4264 33.2887 22.3352 34.3806 22.3352 35.7276C22.3352 37.0746 23.4264 38.1665 24.7725 38.1665Z" fill="white"/>
<path d="M34.024 38.1665C35.3701 38.1665 36.4613 37.0746 36.4613 35.7276C36.4613 34.3806 35.3701 33.2887 34.024 33.2887C32.6779 33.2887 31.5867 34.3806 31.5867 35.7276C31.5867 37.0746 32.6779 38.1665 34.024 38.1665Z" fill="white"/>
<path d="M43.2755 38.1665C44.6216 38.1665 45.7128 37.0746 45.7128 35.7276C45.7128 34.3806 44.6216 33.2887 43.2755 33.2887C41.9294 33.2887 40.8381 34.3806 40.8381 35.7276C40.8381 37.0746 41.9294 38.1665 43.2755 38.1665Z" fill="white"/>
<path d="M224.473 68.2433H115.203V79.1093H224.473V68.2433Z" fill="#E6E6E6"/>
<path d="M224.473 93.8386H115.203V97.9541H224.473V93.8386Z" fill="#E6E6E6"/>
<path d="M224.473 106.4H115.203V110.516H224.473V106.4Z" fill="#E6E6E6"/>
<path d="M171.663 119.121H115.203V123.237H171.663V119.121Z" fill="#E6E6E6"/>
<path d="M224.473 132.068H115.203V136.183H224.473V132.068Z" fill="#E6E6E6"/>
<path d="M224.473 145.014H115.203V149.13H224.473V145.014Z" fill="#E6E6E6"/>
<path d="M169.772 157.961H115.203V162.076H169.772V157.961Z" fill="#E6E6E6"/>
<path d="M224.473 170.907H115.203V175.023H224.473V170.907Z" fill="#E6E6E6"/>
<path d="M224.473 183.854H115.203V187.97H224.473V183.854Z" fill="#E6E6E6"/>
<path d="M224.603 199.734H190.097V211.086H224.603V199.734Z" fill="#FF91C2"/>
<path d="M231.366 195.806L231.103 196.013L225.042 200.778C225.042 200.778 216.461 209.816 213.299 204.845C210.138 199.874 222.332 193.998 222.332 193.998L226.849 190.835L231.366 195.806Z" fill="#9F616A"/>
<path d="M328.246 201.907C328.246 201.907 324.633 214.562 323.73 215.466L316.955 205.523L320.116 200.1L328.246 201.907Z" fill="#9F616A"/>
<path d="M317.632 203.489L323.956 215.692L320.794 227.895V266.31L323.956 323.708H307.244L291.436 230.606L273.822 323.708H256.659L260.272 264.05L259.369 229.25C259.369 229.25 259.82 208.913 264.337 207.105C268.853 205.297 317.632 203.489 317.632 203.489Z" fill="#2F2E41"/>
<path d="M320.342 321.448L321.697 326.872C321.697 326.872 326.666 330.487 325.311 334.555C323.956 338.622 324.859 340.882 321.697 341.786C318.536 342.69 308.148 344.046 308.599 339.526C309.051 335.007 308.599 325.516 308.599 325.516L309.954 322.352L320.342 321.448Z" fill="#2F2E41"/>
<path d="M260.723 321.448L259.368 326.872C259.368 326.872 254.4 330.487 255.755 334.555C257.11 338.622 256.207 340.882 259.368 341.786C262.53 342.69 272.918 344.046 272.466 339.526C272.015 335.007 272.466 325.516 272.466 325.516L271.111 322.352L260.723 321.448Z" fill="#2F2E41"/>
<path d="M278.112 106.626C286.803 106.626 293.847 99.5769 293.847 90.8809C293.847 82.1849 286.803 75.1354 278.112 75.1354C269.422 75.1354 262.377 82.1849 262.377 90.8809C262.377 99.5769 269.422 106.626 278.112 106.626Z" fill="#9F616A"/>
<path d="M290.321 97.6679L292.491 115.585H272.958L274.585 100.382L290.321 97.6679Z" fill="#9F616A"/>
<path d="M252.819 122.816C252.819 122.816 272.241 109.71 281.725 109.71C291.21 109.71 315.148 114.681 318.761 120.556L316.051 183.829C316.051 183.829 322.375 193.32 318.761 196.936C315.148 200.552 319.439 208.009 319.439 208.009C319.439 208.009 291.21 206.427 281.725 210.494C272.241 214.562 260.949 210.494 260.949 210.494C260.949 210.494 265.692 204.393 261.175 202.585C256.658 200.778 263.885 171.853 263.885 171.853L261.852 153.549L252.819 122.816Z" fill="#575A89"/>
<path d="M314.697 120.556L318.084 119.878C318.084 119.878 339.989 155.357 338.634 163.04C337.279 170.723 328.698 205.523 328.698 205.523L316.955 202.359L323.73 169.367L312.89 141.798L314.697 120.556Z" fill="#575A89"/>
<path d="M257.788 124.624L253.045 122.59C252.267 124.732 251.339 126.816 250.266 128.826C244.664 139.371 242.883 173.886 242.883 173.886L223.462 190.157L230.237 200.1C230.237 200.1 255.513 185.445 259.594 177.05C263.002 170.039 262.53 145.188 262.53 145.188L257.788 124.624Z" fill="#575A89"/>
<path d="M290.976 101.669C290.976 101.669 306.948 90.253 298.582 76.5533C292.777 67.0491 280.75 67.8015 273.928 69.1537C272.089 69.4931 270.361 70.2748 268.892 71.4313C267.424 72.5878 266.258 74.0844 265.495 75.7922C264.355 78.456 264.355 81.1198 268.918 81.1198C278.045 81.1198 273.482 87.9697 273.482 87.9697C273.482 87.9697 279.567 89.4919 278.045 94.8196C276.524 100.147 290.976 101.669 290.976 101.669Z" fill="#2F2E41"/>
</g>
</g>
<defs>
<filter id="filter0_d" x="0.902832" y="0.334473" width="369.097" height="353.666" filterUnits="userSpaceOnUse" color-interpolation-filters="sRGB">
<feFlood flood-opacity="0" result="BackgroundImageFix"/>
<feColorMatrix in="SourceAlpha" type="matrix" values="0 0 0 0 0 0 0 0 0 0 0 0 0 0 0 0 0 0 127 0"/>
<feOffset dy="4"/>
<feGaussianBlur stdDeviation="2"/>
<feColorMatrix type="matrix" values="0 0 0 0 0 0 0 0 0 0 0 0 0 0 0 0 0 0 0.25 0"/>
<feBlend mode="normal" in2="BackgroundImageFix" result="effect1_dropShadow"/>
<feBlend mode="normal" in="SourceGraphic" in2="effect1_dropShadow" result="shape"/>
</filter>
<clipPath id="clip0">
<rect width="351" height="317" fill="white" transform="translate(15 29)"/>
</clipPath>
</defs>
</svg>
