<svg width="381" height="309" viewBox="0 0 381 309" fill="none" xmlns="http://www.w3.org/2000/svg">
<path fill-rule="evenodd" clip-rule="evenodd" d="M175.056 12.6711C206.043 7.65607 241.46 -0.907474 268.898 11.1081C296.702 23.284 296.509 54.3185 315.27 74.0745C332.971 92.7125 366.346 102.324 376.159 124.052C386.045 145.943 379.399 170.696 368.692 192.363C358.483 213.024 339.817 231.115 316.654 244.47C295.44 256.701 265.383 254.692 242.539 265.099C216.815 276.818 205.039 308.031 175.056 308.978C145.551 309.91 130.256 280.809 104.809 269.45C81.7382 259.151 51.0545 259.645 32.2225 245.216C13.0692 230.541 -0.0221037 209.793 2.80184e-05 189.148C0.0218161 168.823 28.3447 154.255 32.3416 134.157C36.7774 111.852 10.3004 87.5783 24.1683 67.6216C37.3482 48.655 73.2206 47.934 98.708 38.652C124.172 29.3785 147.429 17.1423 175.056 12.6711Z" fill="#FFDBA9"/>
<g clip-path="url(#clip0)">
<path opacity="0.0" d="M82.9638 124.792C78.8264 126.385 74.9647 130.24 73.9221 135.588C72.7388 141.733 75.464 147.942 75.8529 154.243C77.1245 174.923 54.0265 189.514 57.3199 209.836C58.6301 217.902 63.9205 223.848 69.1365 228.741C77.4858 236.579 86.7482 243.501 96.9953 245.458C112.563 248.426 128.832 239.694 143.966 245.214C156.172 249.665 165.512 262.714 177.634 267.529C186.864 271.196 196.802 269.75 206.398 268.267C211.559 267.471 216.981 266.547 221.155 262.597C228.925 255.243 229.394 240.724 234.59 230.318C242.609 214.254 260.19 211.117 274.933 214.238C289.677 217.359 303.984 225.054 318.92 224.404C322.111 224.271 325.385 223.715 328.166 221.722C331.55 219.297 333.84 215.028 335.862 210.802C348.461 184.468 355.481 153.837 355.981 123C356.066 117.672 355.92 112.113 353.953 107.395C351.471 101.443 346.506 97.8892 341.541 95.4899C329.658 89.7616 316.531 88.835 304.883 82.3329C293.648 76.0681 284.546 65.0763 274.765 55.6743C255.366 36.997 232.563 24.0708 208.698 18.2026C203.08 16.8209 197.249 15.8326 191.666 17.4289C185.233 19.269 179.689 24.3764 174.705 29.8707C161.44 44.5004 150.813 62.5373 138.593 78.565C130.222 89.5384 121.038 99.612 111.151 108.666C106.619 112.818 101.82 117.747 96.7802 120.816C92.171 123.621 87.8377 122.916 82.9638 124.792Z" fill="#FF91C2"/>
<path d="M336.844 135.325C330.775 133.83 319.287 131.024 306.284 127.916C287.034 123.316 282.011 140.728 282.011 140.728C282.011 149.597 256.911 186.386 256.911 186.386L249.425 166.62C250.575 166.829 251.751 166.736 252.867 166.347C257.154 164.838 259.272 159.139 259.959 153.934C260.984 146.095 260.047 138.073 257.264 130.852C255.987 127.555 254.332 124.454 253.306 121.04C248.978 106.716 256.475 90.1355 251.94 75.8666C250.067 69.979 246.333 65.2032 243.751 59.7024C237.959 47.3321 238.207 31.8571 231.89 19.8412C225.965 8.57632 214.29 1.89865 203.105 3.38764C196.509 4.26542 191.796 7.04182 185.65 3.71274C180.462 0.910333 174.233 -2.22368 168.891 2.19125C164.334 5.95597 163.559 13.3716 161.071 19.2333C156.702 29.5294 146.336 36.2493 145.117 47.6702C144.816 50.4857 145.117 53.4051 144.419 56.123C142.427 63.8052 133.755 66.0744 130.203 72.9309C126.724 79.6411 130.239 89.7876 136.71 91.722C139.468 92.5478 142.436 92.0471 145.191 92.9217C147.776 93.7344 150.283 96.5823 149.836 99.5571L144.105 100.786L127.613 102.945L125.061 103.133C125.061 103.133 125.061 103.185 125.061 103.28L124.923 103.299L125.058 103.429C125.058 103.66 125.058 104.021 125.058 104.495C120.416 106.638 112.894 112.356 110.053 127.357C109.402 130.78 108.087 133.98 106.211 136.704C101.982 142.848 94.9654 154.848 95.357 166.366C95.9087 182.791 95.9087 189.361 114.329 184.761C118.982 183.6 124.043 181.22 129.011 178.314C129.301 185.161 130.054 191.874 131.626 196.913C136.649 213.009 126.046 269.837 126.046 269.837H228.442C228.442 269.837 219.792 236.332 211.424 219.251C205.496 207.151 207.686 199.833 209.468 196.591C211.013 193.837 212.167 190.804 212.886 187.612C213.189 186.211 213.484 184.621 213.738 182.859C215.622 184.676 217.633 186.308 219.908 187.283C222.016 188.184 224.412 188.431 226.545 187.735C230.908 194.023 235.782 200.918 240.998 208.084C261.087 235.675 266.667 218.594 266.667 218.594C266.667 218.594 287.034 172.937 289.837 159.139C292.639 145.342 298.765 145.998 298.765 145.998C315.558 151.002 330.442 143.739 337.357 139.369C337.693 139.159 337.965 138.831 338.137 138.431C338.308 138.03 338.37 137.577 338.314 137.133C338.257 136.69 338.086 136.278 337.823 135.954C337.559 135.63 337.217 135.41 336.844 135.325V135.325ZM129.662 143.58C131.063 141.697 132.267 139.624 133.248 137.403H133.3C132.792 139.699 132.136 141.946 131.339 144.126C129.775 144.48 128.832 144.665 128.832 144.665L129.662 143.58Z" fill="url(#paint0_linear)"/>
<path d="M168.16 5.11392C163.655 8.83963 162.889 16.1675 160.436 21.9804C156.117 32.1692 145.87 38.8241 144.664 50.1248C144.367 52.9109 144.664 55.8011 143.975 58.4865C142.008 66.0907 133.433 68.3372 129.908 75.1221C126.468 81.7608 129.943 91.8033 136.34 93.7181C139.073 94.5374 142 94.0432 144.725 94.9048C147.45 95.7663 150.09 98.9133 149.188 102.057C148.518 104.398 146.154 105.731 145.724 108.15C145.349 110.23 146.551 112.213 147.715 113.832C149.194 115.881 150.771 117.896 152.749 119.239C158.188 122.932 164.974 120.715 171.246 120.471C178.835 120.206 186.274 122.993 192.339 128.374C194.074 129.925 195.707 131.716 196.783 133.95C200.288 141.226 196.973 150.358 197.718 158.677C198.562 168.132 204.553 175.719 210.602 182.004C213.018 184.514 215.567 186.988 218.601 188.285C221.635 189.582 225.262 189.51 227.813 187.196C230.495 184.764 231.427 180.456 231.443 176.467C231.46 172.478 230.748 168.509 230.919 164.526C231.002 162.575 231.606 160.257 233.22 159.874C234.028 159.682 234.847 160.069 235.584 160.505C240.731 163.554 245.668 169.526 251.185 167.589C255.424 166.096 257.529 160.456 258.196 155.303C259.208 147.548 258.282 139.613 255.532 132.467C254.268 129.216 252.633 126.138 251.618 122.757C247.353 108.553 254.759 92.1381 250.28 78.0253C248.429 72.1994 244.736 67.4724 242.184 62.0269C236.447 49.7834 236.703 34.4677 230.456 22.5753C224.6 11.4242 213.054 4.81807 201.999 6.2908C195.478 7.15883 190.819 9.90922 184.743 6.6159C179.612 3.84926 173.456 0.731498 168.16 5.11392Z" fill="#40243E"/>
<path d="M211.879 108.098C211.879 108.098 229.808 101.595 236.979 139.308L255.184 187.423C255.184 187.423 280.009 151.011 280.009 142.234C280.009 142.234 284.974 125.003 304.006 129.554C316.862 132.63 328.207 135.406 334.218 136.886C334.583 136.975 334.916 137.195 335.172 137.515C335.428 137.836 335.594 138.241 335.648 138.677C335.702 139.112 335.641 139.556 335.474 139.95C335.306 140.343 335.04 140.666 334.711 140.875C327.876 145.199 313.161 152.387 296.559 147.435C296.559 147.435 290.49 146.785 287.732 160.44C284.974 174.094 264.838 219.284 264.838 219.284C264.838 219.284 259.321 236.189 239.462 208.88C219.602 181.571 204.707 158.164 204.707 158.164L211.879 108.098Z" fill="#FFBCC8"/>
<path d="M211.879 112.649L209.501 121.879L207.151 131.008L202.501 149.061L180.434 153.937L173.243 148.531L164.436 141.908L156.842 135.731L145.68 126.629L136.577 104.196C136.577 104.196 139.087 103.673 146.913 101.995L157.816 99.6448C165.346 98.0193 168.193 91.4131 169.062 84.69C170.102 76.6404 168.298 68.4347 168.298 68.4347H196.156C196.156 68.4347 199.273 73.9615 198.785 83.5066C198.632 86.3311 198.213 89.1268 197.536 91.8423C195.086 101.836 200.617 105.172 204.368 106.254C205.382 106.558 206.42 106.739 207.466 106.797L211.879 112.649Z" fill="#FFBCC8"/>
<path opacity="0.1" d="M198.777 83.5065C194.508 87.2294 189.38 89.3365 184.072 89.549C178.764 89.7614 173.527 88.0693 169.053 84.6964C170.093 76.6468 168.289 68.4412 168.289 68.4412H196.148C196.148 68.4412 199.273 73.9452 198.777 83.5065Z" fill="black"/>
<path d="M183.192 88.5912C197.664 88.5912 209.396 74.7635 209.396 57.7062C209.396 40.6489 197.664 26.8212 183.192 26.8212C168.72 26.8212 156.989 40.6489 156.989 57.7062C156.989 74.7635 168.72 88.5912 183.192 88.5912Z" fill="#FFBCC8"/>
<path opacity="0.1" d="M211.879 112.649L209.501 121.879L207.151 131.008L202.501 149.061L180.434 153.937L173.243 148.531L164.436 141.909L156.842 135.732L145.68 126.629L136.577 104.196C136.577 104.196 139.087 103.673 146.913 101.995C152.429 120.087 159.408 126.824 165.705 129.008C169.47 130.309 172.989 129.984 175.795 129.496C179.4 128.816 183.087 129.037 186.615 130.146C195.083 132.923 199.541 127.607 201.883 120.861C203.615 115.871 204.189 110.094 204.365 106.231C205.38 106.535 206.417 106.717 207.463 106.774L211.879 112.649Z" fill="black"/>
<path d="M125.82 270C125.82 270 136.301 213.757 131.336 197.827C129.916 193.275 129.171 187.319 128.837 181.155C128.01 165.787 129.681 149.061 129.681 149.061C129.919 148.518 130.142 147.978 130.357 147.435C130.909 146.048 131.394 144.691 131.814 143.365C137.725 124.619 130.371 112.139 126.642 107.366C126.044 106.583 125.398 105.852 124.711 105.178L145.812 102.415C151.359 121.177 158.473 128.098 164.872 130.315C168.637 131.616 172.157 131.291 174.962 130.803C178.567 130.123 182.254 130.344 185.783 131.453C194.251 134.229 198.708 128.914 201.05 122.168C203.957 113.793 203.598 103.218 203.598 103.218L215.735 107.444C215.735 107.444 214.665 115.279 213.697 125.575C213.468 127.991 213.244 130.54 213.043 133.157C212.215 144.074 211.724 156.145 212.701 164.337C213.693 172.433 213.34 180.679 211.661 188.616C210.952 191.775 209.812 194.778 208.285 197.505C206.522 200.71 204.357 207.957 210.216 219.937C218.49 236.842 227.041 270.003 227.041 270.003L125.82 270Z" fill="#FF808E"/>
<path d="M215.602 107.61C215.602 107.61 225.623 126.141 212.474 142.071C199.326 158.001 204.569 135.569 204.569 135.569L207.879 109.56L215.602 107.61Z" fill="#FF808E"/>
<path opacity="0.1" d="M126.642 107.366C127.389 107.087 128.156 106.885 128.934 106.761C132.52 108.777 134.506 114.372 135.584 120.214C136.304 124.177 136.341 128.269 135.693 132.249C135.046 136.228 133.726 140.014 131.813 143.381C137.724 124.619 130.371 112.139 126.642 107.366Z" fill="black"/>
<path opacity="0.1" d="M213.048 133.16C207.159 133.618 199.466 132.806 199.466 132.806C200.503 138.397 198.363 142.767 196.156 145.615C195.312 146.716 194.248 147.55 193.059 148.041C191.871 148.531 190.597 148.661 189.354 148.42C176.628 145.82 157.275 159.474 157.275 159.474C157.275 159.474 143.434 172.65 128.837 181.165C128.01 165.797 129.681 149.071 129.681 149.071C129.918 148.528 130.142 147.988 130.357 147.445C136.254 146.145 157.681 141.008 161.953 133.466C162.588 132.344 163.608 131.294 164.877 130.319C168.526 127.536 174.366 125.354 179.918 123.761C186.829 121.763 193.986 121.228 201.055 122.181C204.09 122.591 207.093 123.281 210.036 124.246C211.321 124.665 212.563 125.117 213.702 125.588C216.824 126.889 219.191 128.342 219.602 129.889C220.156 131.97 217.009 132.854 213.048 133.16Z" fill="black"/>
<path opacity="0.1" d="M207.151 131.008C202.906 130.923 199.191 130.53 199.191 130.53C200.228 136.122 198.087 140.491 195.881 143.339C195.037 144.44 193.972 145.275 192.783 145.765C191.595 146.255 190.321 146.386 189.079 146.145C184.282 145.169 178.542 146.499 173.254 148.531L164.436 141.908L156.842 135.731C159.049 134.337 160.756 132.805 161.678 131.18C164.127 126.85 172.159 123.628 179.642 121.476C189.463 118.622 199.738 118.76 209.501 121.879L209.76 121.96C214.557 123.537 218.766 125.491 219.326 127.604C220.132 130.644 213.12 131.131 207.151 131.008Z" fill="black"/>
<path d="M128.658 105.129C128.658 105.129 114.229 106.859 110.023 128.904C109.373 132.331 108.061 135.535 106.189 138.267C102.007 144.356 95.0922 156.213 95.4784 167.595C96.0301 183.85 96.0301 190.352 114.235 185.801C132.44 181.249 156.989 157.842 156.989 157.842C156.989 157.842 176.341 144.21 189.068 146.788C190.31 147.029 191.584 146.898 192.772 146.408C193.96 145.917 195.025 145.084 195.87 143.983C198.076 141.135 200.23 136.765 199.18 131.173C199.18 131.173 220.694 133.449 219.315 128.248C218.764 126.134 214.546 124.18 209.749 122.607C199.911 119.41 189.541 119.242 179.631 122.119C172.134 124.275 164.116 127.497 161.667 131.824C156.702 140.602 128.567 146.128 128.567 146.128L129.394 145.033C132.066 141.476 133.993 137.23 135.021 132.636C136.048 128.043 136.146 123.229 135.308 118.582C134.233 112.74 132.255 107.145 128.658 105.129Z" fill="#FFBCC8"/>
<path d="M124.854 105.009C124.854 105.009 124.027 144.347 136.439 138.495C148.851 132.643 139.197 105.009 139.197 105.009L133.681 104.359L124.854 105.009Z" fill="#FF808E"/>
<path opacity="0.1" d="M162 58.2361C170.184 57.1654 178.254 55.1209 186.089 52.1339C188.102 51.3667 190.289 50.3458 191.23 48.1156C191.473 47.5402 191.655 46.8575 192.132 46.5421C192.537 46.2723 193.039 46.3568 193.495 46.4803C196.184 47.2313 198.493 49.2177 201.055 50.4369C203.618 51.656 206.881 51.9421 208.85 49.6534C211.175 46.9485 210.406 42.2995 208.875 38.9021C203.19 26.262 189.873 20.4914 177.758 21.5383C176.057 21.6846 174.327 21.9544 172.794 22.8387C169.55 24.6755 167.773 28.7621 166.016 32.465C162.599 39.6466 144.529 60.5151 162 58.2361Z" fill="black"/>
<path d="M162 57.2608C170.184 56.1901 178.254 54.1456 186.089 51.1586C188.102 50.3913 190.289 49.3705 191.23 47.1403C191.473 46.5648 191.655 45.8821 192.132 45.5668C192.537 45.2969 193.039 45.3815 193.495 45.505C196.184 46.256 198.493 48.2424 201.055 49.4615C203.618 50.6807 206.881 50.9668 208.85 48.678C211.175 45.9732 210.406 41.3241 208.875 37.9268C203.19 25.2867 189.873 19.5161 177.758 20.5629C176.057 20.7092 174.327 20.9791 172.794 21.8633C169.55 23.7002 167.773 27.7868 166.016 31.4897C162.599 38.6713 144.529 59.5398 162 57.2608Z" fill="#40243E"/>
<path d="M339.792 91.6797H283.799C283.122 91.6797 282.473 91.9965 281.995 92.5605C281.516 93.1244 281.247 93.8893 281.247 94.6869V133.374C281.247 134.172 281.516 134.937 281.995 135.501C282.473 136.065 283.122 136.382 283.799 136.382H339.792C340.469 136.382 341.118 136.065 341.596 135.501C342.075 134.937 342.344 134.172 342.344 133.374V94.6869C342.344 93.8893 342.075 93.1244 341.596 92.5605C341.118 91.9965 340.469 91.6797 339.792 91.6797V91.6797Z" fill="url(#paint1_linear)"/>
<path d="M338.341 92.2064H285.241C283.427 92.2064 281.956 93.94 281.956 96.0784V131.986C281.956 134.125 283.427 135.858 285.241 135.858H338.341C340.156 135.858 341.626 134.125 341.626 131.986V96.0784C341.626 93.94 340.156 92.2064 338.341 92.2064Z" fill="#FF91C2"/>
<path d="M341.626 99.8463H281.956V107.85H341.626V99.8463Z" fill="#FF91C2"/>
<path opacity="0.3" d="M341.626 99.8463H281.956V107.85H341.626V99.8463Z" fill="black"/>
<path d="M335.966 113.79H287.613V117.672H335.966V113.79Z" fill="#D6D6E3"/>
<path d="M291.627 132.949C294.241 132.949 296.36 130.451 296.36 127.37C296.36 124.289 294.241 121.791 291.627 121.791C289.013 121.791 286.894 124.289 286.894 127.37C286.894 130.451 289.013 132.949 291.627 132.949Z" fill="#FF91C2"/>
<path opacity="0.3" d="M291.627 132.949C294.241 132.949 296.36 130.451 296.36 127.37C296.36 124.289 294.241 121.791 291.627 121.791C289.013 121.791 286.894 124.289 286.894 127.37C286.894 130.451 289.013 132.949 291.627 132.949Z" fill="black"/>
<path opacity="0.05" d="M126.785 146.297C126.785 146.297 121.544 149.578 120.675 153.586C119.806 157.595 118.786 158.326 118.786 158.326" fill="black"/>
<path opacity="0.05" d="M255.322 187.261C255.322 187.261 252.84 197.339 255.322 198.639Z" fill="black"/>
<path opacity="0.05" d="M131.474 198.639C131.474 198.639 152.989 204.166 168.987 192.787H175.883C175.883 192.787 196.57 205.141 206.5 201.565" fill="black"/>
<path d="M284.201 179.091L280.029 190.357L298.656 199.939L302.827 188.673L284.201 179.091Z" fill="#8ED16F"/>
<path d="M295.293 191.676C295.766 190.4 294.394 188.461 292.228 187.347C290.063 186.233 287.924 186.365 287.451 187.642C286.978 188.919 288.35 190.858 290.516 191.972C292.681 193.086 294.82 192.953 295.293 191.676Z" fill="#8ED16F"/>
<path opacity="0.1" d="M295.293 191.676C295.766 190.4 294.394 188.461 292.228 187.347C290.063 186.233 287.924 186.365 287.451 187.642C286.978 188.919 288.35 190.858 290.516 191.972C292.681 193.086 294.82 192.953 295.293 191.676Z" fill="black"/>
<path d="M311.517 138.953L307.345 150.219L325.971 159.801L330.143 148.536L311.517 138.953Z" fill="#8ED16F"/>
<path d="M322.608 151.539C323.081 150.262 321.709 148.324 319.544 147.21C317.378 146.096 315.239 146.228 314.766 147.505C314.294 148.782 315.666 150.72 317.831 151.834C319.997 152.948 322.135 152.816 322.608 151.539Z" fill="#8ED16F"/>
<path opacity="0.1" d="M322.608 151.539C323.081 150.262 321.709 148.324 319.544 147.21C317.378 146.096 315.239 146.228 314.766 147.505C314.294 148.782 315.666 150.72 317.831 151.834C319.997 152.948 322.135 152.816 322.608 151.539Z" fill="black"/>
<path d="M344.602 179.727L334.367 182.092L338.276 205.598L348.511 203.234L344.602 179.727Z" fill="#8ED16F"/>
<path d="M342.133 197.64C343.293 197.372 343.865 194.94 343.41 192.207C342.956 189.474 341.647 187.476 340.487 187.744C339.327 188.012 338.755 190.444 339.209 193.177C339.664 195.91 340.972 197.908 342.133 197.64Z" fill="#8ED16F"/>
<path opacity="0.1" d="M342.133 197.64C343.293 197.372 343.865 194.94 343.41 192.207C342.956 189.474 341.647 187.476 340.487 187.744C339.327 188.012 338.755 190.444 339.209 193.177C339.664 195.91 340.972 197.908 342.133 197.64Z" fill="black"/>
<path d="M307.782 234.238L303.61 245.504L322.236 255.086L326.408 243.82L307.782 234.238Z" fill="#8ED16F"/>
<path d="M318.879 246.825C319.352 245.548 317.98 243.61 315.814 242.496C313.649 241.382 311.51 241.514 311.037 242.791C310.564 244.068 311.936 246.006 314.102 247.12C316.267 248.234 318.406 248.102 318.879 246.825Z" fill="#8ED16F"/>
<path opacity="0.1" d="M318.879 246.825C319.352 245.548 317.98 243.61 315.814 242.496C313.649 241.382 311.51 241.514 311.037 242.791C310.564 244.068 311.936 246.006 314.102 247.12C316.267 248.234 318.406 248.102 318.879 246.825Z" fill="black"/>
<path d="M261.76 223.591L257.588 234.857L276.214 244.439L280.386 233.173L261.76 223.591Z" fill="#8ED16F"/>
<path d="M272.854 236.178C273.326 234.901 271.954 232.963 269.789 231.849C267.623 230.735 265.485 230.867 265.012 232.144C264.539 233.421 265.911 235.359 268.076 236.473C270.242 237.587 272.381 237.455 272.854 236.178Z" fill="#8ED16F"/>
<path opacity="0.1" d="M272.854 236.178C273.326 234.901 271.954 232.963 269.789 231.849C267.623 230.735 265.485 230.867 265.012 232.144C264.539 233.421 265.911 235.359 268.076 236.473C270.242 237.587 272.381 237.455 272.854 236.178Z" fill="black"/>
</g>
<defs>
<linearGradient id="paint0_linear" x1="216.824" y1="269.837" x2="216.824" y2="3.21539e-05" gradientUnits="userSpaceOnUse">
<stop stop-color="#808080" stop-opacity="0.25"/>
<stop offset="0.54" stop-color="#808080" stop-opacity="0.12"/>
<stop offset="1" stop-color="#808080" stop-opacity="0.1"/>
</linearGradient>
<linearGradient id="paint1_linear" x1="60260.8" y1="20398" x2="60260.8" y2="14251" gradientUnits="userSpaceOnUse">
<stop stop-color="#808080" stop-opacity="0.25"/>
<stop offset="0.54" stop-color="#808080" stop-opacity="0.12"/>
<stop offset="1" stop-color="#808080" stop-opacity="0.1"/>
</linearGradient>
<clipPath id="clip0">
<rect width="299" height="270" fill="white" transform="translate(57)"/>
</clipPath>
</defs>
</svg>
