<svg width="398" height="347" viewBox="0 0 398 347" fill="none" xmlns="http://www.w3.org/2000/svg">
<path fill-rule="evenodd" clip-rule="evenodd" d="M225.52 48.5054C265.362 54.7877 310.03 58.0074 338.269 84.2621C366.942 110.92 374.773 149.739 370.901 183.671C367.406 214.292 343.601 238.185 318.365 258.686C297.536 275.608 270.053 284.033 241.088 289.132C215.126 293.703 188.923 289.211 161.817 286.247C127.302 282.473 87.4958 290.596 61.2729 269.472C34.8673 248.2 37.5989 213.683 35.0305 184.111C32.519 155.194 30.7039 125.497 46.6707 101.348C63.0632 76.5552 91.527 59.8192 123.446 50.3885C155.546 40.9042 190.555 42.992 225.52 48.5054Z" fill="#9CA4F1"/>
<g clip-path="url(#clip0)">
<path d="M151.673 122.91C90.4611 170.395 121.301 190.821 83.8364 190.821C46.3714 190.821 16 160.416 16 122.91C16 85.4046 46.3714 55 83.8364 55C121.301 55 212.885 75.4262 151.673 122.91Z" fill="#F2F2F2"/>
<path d="M166.06 193.022C166.06 200.914 137.011 218.852 98.7128 218.852C60.415 218.852 27.219 200.914 27.219 193.022C27.219 191.048 30.4707 193.499 33.9767 191.792C44.1838 186.812 68.5224 190.483 96.1464 190.278C96.9986 190.27 97.8541 190.266 98.7128 190.266C137.011 190.266 166.06 185.13 166.06 193.022Z" fill="#3F3D56"/>
<path opacity="0.1" d="M166.06 193.022C166.06 200.914 137.011 218.852 98.7128 218.852C60.415 218.852 27.219 200.914 27.219 193.022C27.219 191.048 30.4707 193.499 33.9767 191.792C44.1838 186.812 68.5224 190.483 96.1464 190.278C96.9986 190.27 97.8541 190.266 98.7128 190.266C137.011 190.266 166.06 185.13 166.06 193.022Z" fill="black"/>
<path d="M165.906 192.874C165.906 200.766 134.86 207.167 96.5626 207.167C58.2648 207.167 27.219 200.766 27.219 192.874C27.219 190.9 29.1567 189.023 32.6628 187.315C42.8699 182.336 66.3722 178.797 93.9962 178.593C94.8484 178.585 95.7039 178.581 96.5626 178.581C134.86 178.581 165.906 184.982 165.906 192.874Z" fill="#3F3D56"/>
<path opacity="0.1" d="M94.821 178.886C91.8755 183.693 87.8811 187.77 83.1373 190.812C78.3935 193.853 73.0234 195.781 67.4297 196.449C61.8359 197.117 56.1637 196.508 50.8383 194.669C45.5128 192.83 40.6724 189.808 36.6799 185.829C46.3558 181.865 68.6348 179.049 94.821 178.886Z" fill="black"/>
<path d="M63.7722 190.562C82.7724 190.562 98.1752 174.041 98.1752 153.661C98.1752 133.281 82.7724 116.76 63.7722 116.76C44.7719 116.76 29.3691 133.281 29.3691 153.661C29.3691 174.041 44.7719 190.562 63.7722 190.562Z" fill="#3F3D56"/>
<path d="M101.2 96.4867V105.137L96.763 110.28C96.763 110.28 94.8947 109.579 94.8947 104.903L94.1941 98.1232L101.2 96.4867Z" fill="#FFB9B9"/>
<path d="M96.7629 105.137C96.7629 105.137 104.003 100.227 104.236 98.5908C104.47 96.9542 114.745 89.4729 113.111 94.1487C111.476 98.8246 106.338 100.929 106.338 100.929C106.338 100.929 102.368 111.683 98.8647 111.449C95.3617 111.216 95.3616 106.774 96.7629 105.137Z" fill="#FFB9B9"/>
<path d="M92.5593 157.74L91.8586 161.949L95.5954 161.013V157.74H92.5593Z" fill="#FFB9B9"/>
<path d="M93.2599 160.078C93.2599 160.078 97.5786 157.517 97.7547 158.681C97.9307 159.844 99.799 164.286 100.733 164.754C101.667 165.222 102.835 170.365 100.733 170.131C99.1052 169.95 93.1345 166.824 90.5246 165.423C90.2033 165.25 89.9607 164.96 89.8466 164.613C89.7325 164.266 89.7557 163.888 89.9114 163.558C90.0645 163.274 90.17 162.968 90.2239 162.65C90.2239 162.182 93.2599 160.078 93.2599 160.078Z" fill="#2F2E41"/>
<path d="M91.1581 112.618C91.1581 112.618 108.206 120.567 106.572 126.646C104.937 132.724 98.8649 158.442 98.8649 158.442C98.8649 158.442 92.0923 160.078 91.6252 158.442C91.1582 156.805 96.0624 131.322 95.5954 130.387C95.1283 129.451 86.4874 123.373 86.4874 123.373L68.7385 115.891L76.2117 108.878L91.1581 112.618Z" fill="#2F2E41"/>
<path d="M104.003 159.143L106.105 164.52L102.368 166.157L100.032 161.949L104.003 159.143Z" fill="#FFB9B9"/>
<path d="M91.3915 74.2764C91.3915 74.2764 89.2897 77.0819 90.9244 78.4846C92.5592 79.8874 91.3915 85.0308 91.3915 85.0308L89.2897 90.8756L80.8823 89.2391V79.6536L81.3494 74.9777C81.3494 74.9777 85.5531 71.0033 86.0201 67.964C86.4872 64.9247 91.3915 74.2764 91.3915 74.2764Z" fill="#FFB9B9"/>
<path opacity="0.1" d="M91.3915 74.2764C91.3915 74.2764 89.2897 77.0819 90.9244 78.4846C92.5592 79.8874 91.3915 85.0308 91.3915 85.0308L89.2897 90.8756L80.8823 89.2391V79.6536L81.3494 74.9777C81.3494 74.9777 85.5531 71.0033 86.0201 67.964C86.4872 64.9247 91.3915 74.2764 91.3915 74.2764Z" fill="black"/>
<path d="M77.3794 110.748C77.3794 110.748 88.3557 122.905 88.3557 123.373C88.3557 123.84 94.1941 133.426 94.1941 133.426L105.637 158.909C105.637 158.909 101.2 164.988 99.332 164.52C97.4637 164.053 84.152 136.933 84.152 136.933C84.152 136.933 81.8167 130.854 75.5111 129.451C69.2056 128.049 64.3013 123.139 66.6367 117.528C68.9721 111.917 77.3794 110.748 77.3794 110.748Z" fill="#2F2E41"/>
<path d="M91.3917 75.9129C95.519 75.9129 98.8649 72.5634 98.8649 68.4316C98.8649 64.2997 95.519 60.9502 91.3917 60.9502C87.2643 60.9502 83.9185 64.2997 83.9185 68.4316C83.9185 72.5634 87.2643 75.9129 91.3917 75.9129Z" fill="#FFB9B9"/>
<path d="M91.1581 80.5887C91.1581 80.5887 90.224 85.966 89.2898 86.4335C88.3557 86.9011 87.6551 88.5377 85.5532 86.1997C83.4514 83.8618 81.5831 79.186 81.5831 79.186L74.3434 88.0701L73.6428 112.618C73.6428 112.618 81.8166 110.514 84.3855 112.618C86.9545 114.722 92.5594 114.489 92.5594 114.489L91.3917 109.813L92.3258 101.864L92.0923 94.6163L91.8588 89.4728L91.1581 80.5887Z" fill="#F2F2F2"/>
<path d="M90.3355 76.6536C90.3355 76.6536 93.4935 78.2508 93.7271 79.186C93.9606 80.1212 98.1643 81.9915 98.1643 81.9915C98.1643 81.9915 99.7991 83.6281 99.7991 84.5632C99.7991 85.4984 94.1942 96.2529 94.1942 96.2529C94.1942 96.2529 93.0265 103.5 93.4935 104.903C93.9606 106.306 92.5594 111.683 92.5594 111.683L95.3618 114.956H92.7929C92.7929 114.956 89.9905 113.553 89.9905 112.852C89.9905 112.151 90.4575 107.241 90.6911 105.137C90.9246 103.033 90.9246 95.5515 90.4576 92.9797C89.9905 90.408 90.224 83.628 90.224 81.9915C90.224 80.3549 90.3355 76.6536 90.3355 76.6536Z" fill="#3F3D56"/>
<path d="M83.101 73.1036C83.101 73.1036 82.0501 73.3412 79.0141 74.2764C75.9781 75.2116 71.3073 76.6143 69.6726 78.4847C68.5251 79.8679 67.5088 81.355 66.6366 82.9267L67.5707 99.7598C67.5707 99.7598 65.7024 103.267 65.936 105.137C66.1695 107.007 68.0378 107.241 66.6366 111.216C65.2354 115.19 62.4329 118.697 65.0018 119.165C67.5708 119.632 74.3434 117.996 77.3793 118.931C80.4153 119.866 83.9184 115.424 83.9184 115.424C83.9184 115.424 79.2476 115.891 79.9483 114.021C80.6489 112.151 88.3556 91.1094 86.7208 86.4336C85.0861 81.7578 83.101 73.1036 83.101 73.1036Z" fill="#3F3D56"/>
<path d="M98.6314 83.3943L99.7991 84.3295C99.7991 84.3295 103.069 96.0191 102.134 97.188C101.2 98.357 93.7271 100.929 93.26 99.2922C92.7929 97.6556 98.6314 83.3943 98.6314 83.3943Z" fill="#3F3D56"/>
<path d="M64.0678 91.577C64.0678 91.577 60.5647 101.63 60.5647 104.436C60.5647 107.241 61.0318 123.607 61.0318 123.607C61.0318 123.607 61.2653 130.62 66.1696 127.815C71.0739 125.009 66.1696 123.139 66.1696 123.139C66.1696 123.139 66.4031 104.669 68.2714 102.098C70.1397 99.526 70.8403 95.7853 70.8403 95.7853L64.0678 91.577Z" fill="#FFB9B9"/>
<path d="M102.368 164.286C102.368 164.286 105.871 162.416 106.572 163.819C107.272 165.222 111.009 172.937 110.542 173.872C110.075 174.807 107.506 178.548 104.47 177.613C101.434 176.677 101.2 171.768 101.2 171.768L100.967 166.157L102.368 164.286Z" fill="#2F2E41"/>
<path d="M92.855 66.6244C92.3402 66.867 91.7295 67.012 91.406 67.4805C91.1663 67.8277 91.1425 68.2789 90.9676 68.663C90.7767 69.0432 90.4481 69.3363 90.0489 69.4824C89.6496 69.6286 89.2097 69.6169 88.8188 69.4496C88.7233 68.9839 88.4529 68.5727 88.0632 68.3008C87.8664 68.1713 87.6333 68.1083 87.3981 68.1212C87.1629 68.1341 86.9381 68.2223 86.7566 68.3726C86.2753 68.832 86.4456 69.6332 86.221 70.2598C86.0102 70.7007 85.7201 71.0989 85.3652 71.4346C84.8541 72.0251 84.4468 72.7175 83.8313 73.1978C83.2157 73.6781 82.2822 73.8863 81.6707 73.4009C81.1564 72.9927 81.0498 72.2396 81.1747 71.5947C81.2996 70.9497 81.6093 70.3558 81.7839 69.7225C82.3515 67.6647 81.4467 65.4678 81.7266 63.3515C82.0853 60.6398 84.3876 58.4979 86.9574 57.5683C88.0267 57.1324 89.1975 57.0082 90.3344 57.2101C91.5096 57.4728 92.5136 58.2218 93.6391 58.6502C94.8428 59.1083 96.1516 59.1883 97.4112 59.4561C98.6709 59.7239 99.9671 60.2417 100.698 61.303C101.208 62.0433 101.383 62.9626 101.806 63.756C102.292 64.6616 103.08 65.3682 104.032 65.753L102.701 65.677C102.924 66.272 103.288 66.8039 103.762 67.2271C103.137 67.3546 102.488 67.2687 101.918 66.9832C101.929 67.2572 101.995 67.5261 102.113 67.7735C102.231 68.0208 102.399 68.2412 102.606 68.4212C101.581 68.3903 100.5 68.343 99.6347 67.7935C99.2106 67.5244 98.8648 67.1496 98.4657 66.8445C97.6151 66.1943 96.5598 65.8856 95.5311 65.5901C94.9909 65.4349 94.3407 65.2191 93.8521 65.5668C93.4453 65.8565 93.3811 66.3765 92.855 66.6244Z" fill="#2F2E41"/>
<path d="M70.1396 80.1212L66.6366 82.9267L61.9658 93.6811C61.9658 93.6811 68.5049 98.8245 70.1396 98.1232C71.7744 97.4218 74.5768 85.0308 74.5768 85.0308L70.1396 80.1212Z" fill="#3F3D56"/>
<path d="M122.68 92.9537L107.94 101.059C107.855 101.116 107.758 101.153 107.656 101.169C107.555 101.184 107.451 101.177 107.353 101.148C107.255 101.119 107.164 101.069 107.087 101.001C107.01 100.933 106.949 100.849 106.908 100.754L103.297 93.1984C103.229 92.983 103.24 92.7502 103.328 92.5423C103.417 92.3344 103.577 92.1653 103.78 92.0658L116.018 85.7509C116.169 85.6601 116.348 85.6282 116.52 85.6613C116.693 85.6944 116.848 85.7901 116.954 85.9301L123.067 91.6955C123.128 91.8029 123.165 91.9214 123.178 92.0438C123.191 92.1662 123.18 92.29 123.143 92.4077C123.107 92.5254 123.047 92.6344 122.968 92.7283C122.888 92.8222 122.79 92.8989 122.68 92.9537V92.9537Z" fill="#2F2E41"/>
<path d="M121.697 91.8375L107.878 99.7444L104.2 93.1097L116.055 86.6561L121.697 91.8375Z" fill="#9CA4F1"/>
<path d="M110.102 89.5521C110.174 89.4657 110.173 89.3459 110.099 89.2845C110.026 89.223 109.908 89.2432 109.836 89.3296C109.764 89.416 109.765 89.5358 109.839 89.5972C109.912 89.6586 110.03 89.6384 110.102 89.5521Z" fill="#F2F2F2"/>
<path d="M115.189 96.303C115.237 96.2455 115.236 96.1656 115.187 96.1246C115.138 96.0837 115.059 96.0971 115.011 96.1547C114.963 96.2123 114.964 96.2922 115.013 96.3331C115.062 96.3741 115.141 96.3606 115.189 96.303Z" fill="#F2F2F2"/>
<path d="M45.8073 190.204C45.8073 195.56 42.6273 197.43 38.704 197.43C38.6131 197.43 38.5222 197.428 38.432 197.426C38.2502 197.423 38.0698 197.414 37.892 197.402C34.3511 197.151 31.6006 195.185 31.6006 190.204C31.6006 185.051 38.179 178.547 38.6745 178.064L38.6752 178.064C38.6942 178.045 38.704 178.036 38.704 178.036C38.704 178.036 45.8073 184.849 45.8073 190.204Z" fill="#9CA4F1"/>
<path d="M38.4449 196.61L41.0431 192.977L38.4384 197.01L38.4318 197.426C38.2501 197.423 38.0696 197.414 37.8918 197.402L38.1716 192.044L38.1697 192.002L38.1743 191.995L38.2011 191.488L35.5898 187.445L38.2089 191.109L38.2154 191.216L38.4266 187.168L36.1913 182.99L38.4541 186.458L38.6744 178.064L38.6751 178.036V178.064L38.6384 184.682L40.8639 182.058L38.6293 185.252L38.5704 188.877L40.6488 185.398L38.5619 189.41L38.5293 191.425L41.5452 186.583L38.5175 192.128L38.4449 196.61Z" fill="#3F3D56"/>
<path d="M145.023 179.134C145.023 184.49 141.843 186.36 137.92 186.36C137.829 186.36 137.738 186.358 137.648 186.356C137.466 186.352 137.286 186.344 137.108 186.331C133.567 186.081 130.816 184.115 130.816 179.134C130.816 173.98 137.395 167.477 137.89 166.994L137.891 166.994C137.91 166.975 137.92 166.965 137.92 166.965C137.92 166.965 145.023 173.779 145.023 179.134Z" fill="#9CA4F1"/>
<path d="M137.661 185.54L140.259 181.906L137.654 185.939L137.648 186.356C137.466 186.352 137.285 186.344 137.108 186.331L137.387 180.974L137.386 180.932L137.39 180.925L137.417 180.418L134.806 176.375L137.425 180.038L137.431 180.146L137.642 176.098L135.407 171.92L137.67 175.388L137.89 166.994L137.891 166.965V166.994L137.854 173.612L140.08 170.988L137.845 174.182L137.786 177.807L139.865 174.328L137.778 178.34L137.745 180.355L140.761 175.513L137.733 181.058L137.661 185.54Z" fill="#3F3D56"/>
<path d="M292.215 135.404H174.123V200.497H292.215V135.404Z" fill="#F2F2F2"/>
<path opacity="0.3" d="M193.913 168.669C199.288 168.669 203.646 164.306 203.646 158.925C203.646 153.544 199.288 149.182 193.913 149.182C188.538 149.182 184.18 153.544 184.18 158.925C184.18 164.306 188.538 168.669 193.913 168.669Z" fill="#9CA4F1"/>
<path opacity="0.3" d="M233.169 168.669C238.544 168.669 242.902 164.306 242.902 158.925C242.902 153.544 238.544 149.182 233.169 149.182C227.794 149.182 223.436 153.544 223.436 158.925C223.436 164.306 227.794 168.669 233.169 168.669Z" fill="#9CA4F1"/>
<path opacity="0.3" d="M272.424 168.669C277.8 168.669 282.157 164.306 282.157 158.925C282.157 153.544 277.8 149.182 272.424 149.182C267.049 149.182 262.692 153.544 262.692 158.925C262.692 164.306 267.049 168.669 272.424 168.669Z" fill="#9CA4F1"/>
<path opacity="0.3" d="M207.052 175.976H180.449V178.575H207.052V175.976Z" fill="#9CA4F1"/>
<path opacity="0.3" d="M246.632 175.976H220.029V178.575H246.632V175.976Z" fill="#9CA4F1"/>
<path d="M286.213 175.976H259.61V178.575H286.213V175.976Z" fill="#9CA4F1"/>
<path d="M382 262.718C382 271.054 351.319 290 310.869 290C270.42 290 235.359 271.054 235.359 262.718C235.359 260.633 238.793 263.223 242.496 261.419C253.277 256.16 278.983 260.037 308.159 259.82C309.059 259.812 309.962 259.808 310.869 259.808C351.319 259.808 382 254.383 382 262.718Z" fill="#3F3D56"/>
<path opacity="0.1" d="M382 262.718C382 271.054 351.319 290 310.869 290C270.42 290 235.359 271.054 235.359 262.718C235.359 260.633 238.793 263.223 242.496 261.419C253.277 256.16 278.983 260.037 308.159 259.82C309.059 259.812 309.962 259.808 310.869 259.808C351.319 259.808 382 254.383 382 262.718Z" fill="black"/>
<path d="M381.838 262.562C381.838 270.898 349.048 277.658 308.598 277.658C268.149 277.658 235.359 270.898 235.359 262.562C235.359 260.478 237.405 258.495 241.108 256.691C251.889 251.432 276.712 247.695 305.888 247.479C306.788 247.471 307.691 247.466 308.598 247.466C349.048 247.466 381.838 254.227 381.838 262.562Z" fill="#3F3D56"/>
<path d="M312.392 249.157C322.075 249.157 329.924 240.245 329.924 229.252C329.924 218.259 322.075 209.347 312.392 209.347C302.709 209.347 294.86 218.259 294.86 229.252C294.86 240.245 302.709 249.157 312.392 249.157Z" fill="#36334A"/>
<path d="M320.094 193.236L293.745 194.048C293.745 194.048 266.714 219.444 285.969 226.343C285.969 226.343 313.406 227.527 319.081 223.063C319.081 223.063 326.175 195.062 320.094 193.236ZM318.878 200.744L290.705 202.57C290.705 202.57 292.732 195.671 300.839 195.671C308.947 195.671 318.067 193.845 318.878 198.106C319.689 202.367 318.878 200.744 318.878 200.744Z" fill="#3F3D56"/>
<path d="M347.051 209.266L312.392 208.048L320.499 173.757C320.499 173.757 352.929 171.322 352.118 179.641C351.308 187.961 347.051 209.266 347.051 209.266Z" fill="#36334A"/>
<path d="M313.592 225.658C313.592 225.658 292.732 229.353 285.233 218.397C277.733 207.44 313.608 213.324 313.608 213.324L316.649 221.643L313.592 225.658Z" fill="#36334A"/>
<path d="M307.325 272.167C312.586 272.167 316.851 267.897 316.851 262.63C316.851 257.363 312.586 253.094 307.325 253.094C302.064 253.094 297.799 257.363 297.799 262.63C297.799 267.897 302.064 272.167 307.325 272.167Z" fill="#36334A"/>
<path d="M308.237 269.529C311.54 269.529 314.216 266.44 314.216 262.63C314.216 258.82 311.54 255.731 308.237 255.731C304.935 255.731 302.258 258.82 302.258 262.63C302.258 266.44 304.935 269.529 308.237 269.529Z" fill="#3F3D56"/>
<path d="M359.415 172.743C359.415 172.743 351.51 168.279 351.105 178.83L344.417 227.933H347.254L354.956 175.38C354.956 175.38 358.807 175.989 359.415 175.989C360.023 175.989 359.415 172.743 359.415 172.743Z" fill="#3F3D56"/>
<path d="M367.292 178.161C367.219 178.421 367.092 178.663 366.919 178.871C366.745 179.078 366.53 179.246 366.286 179.363C366.042 179.48 365.777 179.544 365.507 179.55C365.236 179.556 364.968 179.504 364.72 179.398L355.55 175.473L357.213 171.805L366.251 175.926C366.662 176.113 366.992 176.441 367.183 176.851C367.374 177.261 367.412 177.725 367.292 178.161V178.161Z" fill="#36334A"/>
<path d="M311.581 224.484C311.581 224.484 296.988 222.86 292.934 236.861C288.881 250.861 289.286 261.615 285.84 260.804C282.395 259.992 275.098 257.152 275.098 257.152L275.706 261.413C275.706 261.413 288.475 267.906 290.502 261.007C292.529 254.108 293.745 228.745 305.298 229.353C316.851 229.962 318.878 228.745 318.878 228.745L311.581 224.484Z" fill="#3F3D56"/>
<path d="M283.814 217.788C283.814 217.788 272.463 219.208 268.004 227.527C263.545 235.846 261.316 250.861 261.316 250.861H265.572C265.572 250.861 268.004 221.034 280.773 222.658L283.814 217.788Z" fill="#3F3D56"/>
<path d="M276.112 264.253L258.073 253.093C258.073 253.093 257.059 249.035 268.612 247.412C268.612 247.412 290.455 255.059 288.351 257.932C286.246 260.804 279.152 265.268 276.112 264.253Z" fill="#36334A"/>
<path d="M309.602 200.112C310.158 200.718 320.379 210.453 320.379 210.453C320.379 210.453 319.364 217.249 308.427 218.092L290.2 219.497C290.2 219.497 286.754 232.155 282.658 236.2C278.562 240.245 280.441 240.47 278.904 242.442C277.367 244.413 279.525 244.942 277.191 245.133C274.857 245.325 270.036 242.5 269.983 240.315C269.931 238.131 271.292 236.879 271.897 236.323C272.502 235.767 274.037 230.449 274.957 229.324C275.876 228.199 279.359 214.67 279.359 214.67C279.359 214.67 282.835 208.125 287.653 207.603C292.472 207.081 297.833 204.735 297.833 204.735" fill="#2F2E41"/>
<path opacity="0.1" d="M309.602 200.112C310.158 200.718 320.379 210.453 320.379 210.453C320.379 210.453 319.364 217.249 308.427 218.092L290.2 219.497C290.2 219.497 286.754 232.155 282.658 236.2C278.562 240.245 280.441 240.47 278.904 242.442C277.367 244.413 279.525 244.942 277.191 245.133C274.857 245.325 270.036 242.5 269.983 240.315C269.931 238.131 271.292 236.879 271.897 236.323C272.502 235.767 274.037 230.449 274.957 229.324C275.876 228.199 279.359 214.67 279.359 214.67C279.359 214.67 282.835 208.125 287.653 207.603C292.472 207.081 297.833 204.735 297.833 204.735" fill="black"/>
<path d="M291.921 167.618C291.921 167.618 288.085 157.184 285.46 160.509C282.834 163.833 289.685 169.293 289.685 169.293L291.921 167.618Z" fill="#A0616A"/>
<path d="M312.128 173.065L309.944 172.14C309.944 172.14 305.935 174.852 305.671 175.733C305.407 176.613 305.979 176.305 304.404 177.08C302.83 177.855 298.528 179.73 297.956 180.038C297.384 180.347 290.91 168.879 292.458 167.232C292.458 167.232 289.56 168.278 288.24 167.882C288.24 167.882 291.534 183.868 292.035 186.035C292.537 188.201 293.707 188.457 295.888 188.536C298.07 188.616 311.318 184.725 311.318 184.725L312.128 173.065Z" fill="#575A89"/>
<path d="M277.957 241.773C277.957 241.773 277.846 244.041 278.224 244.301C278.603 244.562 280.94 250.08 277.34 250.613C273.74 251.145 271.763 250.452 270.893 250.745C270.022 251.038 255.672 249.853 255.783 247.585C255.893 245.317 263.068 245.909 263.068 245.909C263.068 245.909 270.175 242.548 271.506 240.451C272.837 238.355 277.957 241.773 277.957 241.773Z" fill="#2F2E41"/>
<path opacity="0.1" d="M277.957 241.773C277.957 241.773 277.846 244.041 278.224 244.301C278.603 244.562 280.94 250.08 277.34 250.613C273.74 251.145 271.763 250.452 270.893 250.745C270.022 251.038 255.672 249.853 255.783 247.585C255.893 245.317 263.068 245.909 263.068 245.909C263.068 245.909 270.175 242.548 271.506 240.451C272.837 238.355 277.957 241.773 277.957 241.773Z" fill="black"/>
<path d="M285.361 253.719C285.361 253.719 283.179 263.238 281.578 263.141C279.977 263.044 268.674 257.538 267.284 256.447C265.498 255.047 265.569 252.572 267.618 253.092C269.668 253.612 275.465 253.146 276.45 252.098L278.984 249.403L285.361 253.719Z" fill="#2F2E41"/>
<path d="M307.736 200.831C308.334 201.394 326.524 216.842 326.524 216.842C326.524 216.842 326.004 223.694 315.158 225.33L297.081 228.059C297.081 228.059 294.564 240.933 290.772 245.265C286.98 249.598 288.871 249.686 287.481 251.764C286.091 253.842 288.282 254.212 285.968 254.573C283.654 254.934 278.641 252.468 278.43 250.293C278.219 248.118 279.486 246.77 280.049 246.172C280.612 245.573 281.756 240.157 282.592 238.968C283.427 237.779 285.918 224.033 285.918 224.033C285.918 224.033 288.91 217.253 293.677 216.381C298.445 215.51 303.622 212.78 303.622 212.78" fill="#2F2E41"/>
<path d="M324.48 167.364C329.243 167.364 333.105 163.498 333.105 158.73C333.105 153.961 329.243 150.095 324.48 150.095C319.716 150.095 315.855 153.961 315.855 158.73C315.855 163.498 319.716 167.364 324.48 167.364Z" fill="#A0616A"/>
<path d="M329.001 164.12C329.001 164.12 327.707 169.394 329.677 172.098C331.648 174.802 316.5 173.515 316.5 173.515C316.5 173.515 320.6 164.955 319.087 162.965C317.574 160.975 329.001 164.12 329.001 164.12Z" fill="#A0616A"/>
<path d="M309.639 172.413C307.809 174.359 308.432 185.394 308.432 185.394L309.601 195.248C309.601 195.248 308.203 197.035 308.66 197.749C309.117 198.462 309.865 199.167 308.422 199.501C306.98 199.836 303.654 200.373 304.719 201.94C305.066 202.384 305.439 202.809 305.834 203.211C306.173 203.57 306.576 203.987 307.033 204.452C308.103 205.533 309.464 206.864 310.973 208.267C311.401 208.667 311.839 209.07 312.288 209.478C318.048 214.693 325.209 220.214 326.691 217.565C329.172 213.126 330.896 212.493 330.782 208.715C330.668 204.937 333.863 195.241 333.863 195.241C333.863 195.241 337.576 178.695 332.343 173.763L331.525 172.452C331.145 171.843 330.583 171.369 329.919 171.097C329.255 170.825 328.523 170.769 327.825 170.937C325.271 171.548 321.355 172.392 319.658 172.256C317.037 172.044 317.611 170.965 317.611 170.965C317.611 170.965 311.469 170.467 309.639 172.413Z" fill="#575A89"/>
<path d="M301.551 207.708C301.551 207.708 290.881 210.358 292.446 214.092C294.012 217.826 303.249 211.002 303.249 211.002L301.551 207.708Z" fill="#A0616A"/>
<path d="M329.253 161.889C329.041 161.631 329.251 161.255 329.436 160.977C330.426 159.488 330.615 157.37 329.526 155.952C329.096 155.424 328.559 154.994 327.95 154.69C327.096 154.237 326.163 153.95 325.201 153.845C324.69 153.838 324.184 153.738 323.707 153.551C323.407 153.398 321.987 152.9 321.682 152.755C321.013 152.437 320.081 152.574 319.652 151.969C319.241 151.39 319.625 150.596 320.023 150.009C320.932 148.67 323.23 147.561 324.808 147.21C326.005 146.943 327.255 147.318 328.364 147.842C329.644 148.477 330.857 149.237 331.987 150.111C333.539 151.262 335.069 152.538 336.001 154.231C336.933 155.925 337.158 158.131 336.105 159.753C335.885 160.09 335.617 160.395 335.412 160.742C334.91 161.587 334.82 162.609 334.466 163.525C334.202 164.195 333.802 164.803 333.289 165.308C332.777 165.813 332.165 166.205 331.492 166.459C330.413 166.858 329.086 166.969 328.449 167.927L328.152 165.929C328.074 165.677 328.085 165.406 328.183 165.161C328.281 164.916 328.46 164.713 328.69 164.584L330.218 163.296C330.522 163.088 330.753 162.79 330.878 162.443C331.209 161.063 329.608 162.318 329.253 161.889Z" fill="#2F2E41"/>
<path opacity="0.1" d="M313.955 199.916L307.033 204.452C308.406 205.841 310.26 207.639 312.288 209.478C314.21 208.442 316.169 207.321 317.922 206.195C324.335 202.074 329.834 191.727 332.298 186.708C334.761 181.689 332.756 177.823 332.756 177.823C331.124 177.099 329.397 176.612 327.627 176.378C324.417 175.893 313.955 199.916 313.955 199.916Z" fill="black"/>
<path opacity="0.1" d="M313.041 198.489L305.833 203.211C306.173 203.57 306.576 203.987 307.033 204.452C308.103 205.533 309.464 206.864 310.973 208.267C313.021 207.172 315.133 205.972 317.007 204.768C323.42 200.647 328.919 190.301 331.383 185.281C333.846 180.262 327.218 182.062 327.218 182.062C327.218 182.062 330.657 180.504 327.447 180.019C324.236 179.535 313.041 198.489 313.041 198.489Z" fill="black"/>
<path d="M332.439 176.959C332.439 176.959 334.444 180.826 331.981 185.845C329.517 190.864 324.018 201.211 317.605 205.332C311.192 209.452 302.017 213.511 302.017 213.511C302.017 213.511 301.146 208.738 299.677 208.201L313.639 199.053C313.639 199.053 324.1 175.03 327.311 175.515C329.08 175.749 330.807 176.236 332.439 176.959Z" fill="#575A89"/>
<path d="M304.082 227.933V251.673H306.717V227.527L304.082 227.933Z" fill="#3F3D56"/>
<path d="M307.933 242.542C307.933 242.542 313 262.427 309.757 265.268C309.757 265.268 305.501 252.688 302.258 254.311L303.271 242.542H307.933Z" fill="#36334A"/>
<path d="M347.254 199.323L320.905 200.135C320.905 200.135 297.596 222.86 316.851 229.759C316.851 229.759 340.565 233.614 346.241 229.151C346.241 229.151 353.335 201.15 347.254 199.323ZM346.038 206.831L317.865 208.657C317.865 208.657 319.892 201.758 327.999 201.758C336.106 201.758 345.227 199.932 346.038 204.193C346.849 208.454 346.038 206.831 346.038 206.831V206.831Z" fill="#3F3D56"/>
<path d="M341.275 272.167C355.883 272.167 367.725 258.722 367.725 242.136C367.725 225.551 355.883 212.106 341.275 212.106C326.667 212.106 314.824 225.551 314.824 242.136C314.824 258.722 326.667 272.167 341.275 272.167Z" fill="#36334A"/>
<path d="M342.491 264.456C353.517 264.456 362.455 254.463 362.455 242.136C362.455 229.81 353.517 219.817 342.491 219.817C331.465 219.817 322.526 229.81 322.526 242.136C322.526 254.463 331.465 264.456 342.491 264.456Z" fill="#3F3D56"/>
<path d="M347.659 241.832C347.659 241.443 347.62 241.054 347.544 240.673L362.455 233.209L361.442 230.977L346.379 238.323C346.227 238.167 346.059 238.026 345.878 237.905L345.89 237.907L350.294 215.962L346.398 215.873L343.808 237.47L344.057 237.522C343.855 237.563 343.66 237.63 343.476 237.721L330.448 224.334L328.607 226.919L341.992 239.246C341.656 239.891 341.455 240.598 341.399 241.324L322.526 249.035L322.121 252.282L341.794 243.999C341.977 244.455 342.237 244.876 342.563 245.243L336.512 265.877H338.741L343.82 246.083C344.046 246.156 344.281 246.193 344.518 246.195C344.975 246.19 345.422 246.056 345.806 245.808L356.375 259.789L359.618 257.557L347.234 244.016C347.519 243.323 347.663 242.581 347.659 241.832Z" fill="#36334A"/>
<path d="M278.183 168.532C283.558 168.532 287.916 164.169 287.916 158.788C287.916 153.407 283.558 149.045 278.183 149.045C272.808 149.045 268.45 153.407 268.45 158.788C268.45 164.169 272.808 168.532 278.183 168.532Z" fill="#9CA4F1"/>
<path d="M376.629 258.778C376.629 264.133 373.449 266.003 369.526 266.003C369.435 266.003 369.344 266.002 369.254 266C369.072 265.996 368.892 265.988 368.714 265.975C365.173 265.725 362.422 263.758 362.422 258.778C362.422 253.624 369.001 247.12 369.496 246.638L369.497 246.637C369.516 246.618 369.526 246.609 369.526 246.609C369.526 246.609 376.629 253.423 376.629 258.778Z" fill="#9CA4F1"/>
<path d="M369.267 265.184L371.865 261.55L369.26 265.583L369.254 266C369.072 265.996 368.892 265.988 368.714 265.975L368.994 260.617L368.992 260.576L368.996 260.568L369.023 260.062L366.412 256.019L369.031 259.682L369.037 259.79L369.249 255.741L367.013 251.564L369.276 255.031L369.496 246.638L369.497 246.609V246.637L369.46 253.256L371.686 250.632L369.451 253.826L369.393 257.45L371.471 253.972L369.384 257.984L369.351 259.999L372.367 255.157L369.34 260.702L369.267 265.184Z" fill="#3F3D56"/>
</g>
<defs>
<clipPath id="clip0">
<rect width="366" height="235" fill="white" transform="translate(16 55)"/>
</clipPath>
</defs>
</svg>
