<svg width="399" height="333" viewBox="0 0 399 333" fill="none" xmlns="http://www.w3.org/2000/svg">
<path fill-rule="evenodd" clip-rule="evenodd" d="M187.889 0.0759287C220.039 1.15533 250.293 13.6769 276.39 32.9306C302.572 52.2464 321.462 78.7303 335.095 108.678C350.426 142.356 371.893 179.837 359.096 214.606C346.345 249.248 302.928 256.824 272.949 277.52C244.406 297.223 222.154 336.175 187.889 332.793C153.423 329.391 137.607 287.729 113.964 261.827C95.587 241.694 79.4031 221.891 65.2579 198.446C46.0314 166.58 10.3533 137.597 16.7595 100.719C23.1309 64.0417 63.5181 45.3977 95.0681 26.8428C123.641 10.0391 154.956 -1.02977 187.889 0.0759287Z" fill="#FFDBA9"/>
<path d="M160.916 21.325L154.892 25.1504L158.548 18.4938C157.513 17.6673 156.232 17.2095 154.908 17.1928H154.811C154.392 17.2004 153.974 17.1705 153.561 17.1035L151.519 18.3967L152.393 16.8044C150.945 16.2979 149.696 15.3463 148.822 14.0859L145.169 16.4161L147.49 12.2101C145.356 9.64693 142.476 8.07018 139.305 8.07018C135.505 8.07018 132.12 10.3343 129.935 13.8568C129.289 14.9144 128.373 15.7811 127.282 16.3681C126.191 16.955 124.963 17.2409 123.725 17.1967H123.523C119.328 17.1967 115.927 21.958 115.927 27.8262C115.927 33.6943 119.328 38.4557 123.523 38.4557C124.445 38.4522 125.352 38.2257 126.166 37.7955C128.903 36.3702 132.497 36.343 135.361 37.6129C136.591 38.1621 137.923 38.446 139.27 38.446C140.617 38.446 141.948 38.1621 143.178 37.6129C144.621 36.9874 146.18 36.6794 147.752 36.7095C149.324 36.7397 150.87 37.1073 152.288 37.7877C153.097 38.2101 153.995 38.4325 154.908 38.4362C159.103 38.4362 162.503 33.6788 162.503 27.8068C162.525 25.5473 161.979 23.3187 160.916 21.325Z" fill="#F2F2F2"/>
<path opacity="0.03" d="M149.563 36.8789C147.371 36.4628 145.105 36.7103 143.054 37.5896C141.825 38.1387 140.494 38.4225 139.148 38.4225C137.801 38.4225 136.47 38.1387 135.241 37.5896C133.787 36.9514 132.211 36.6369 130.624 36.6677C129.036 36.6986 127.474 37.0741 126.046 37.7683C125.232 38.2015 124.325 38.4294 123.403 38.4324C119.673 38.4324 116.576 34.6769 115.927 29.7214C116.672 29.1773 117.305 28.4941 117.791 27.7097C119.976 24.1872 123.36 21.927 127.16 21.927C130.96 21.927 134.306 24.16 136.475 27.6475C137.127 28.6998 138.04 29.5658 139.124 30.1618C140.209 30.7578 141.429 31.0636 142.666 31.0496H142.763C145.744 31.0302 148.313 33.4108 149.563 36.8789Z" fill="black"/>
<path d="M109.504 186.907L107.062 185.389C106.83 185.245 106.601 185.09 106.368 184.942C111.564 184.048 116.301 181.412 119.802 177.467C123.302 173.523 125.358 168.504 125.631 163.236C125.904 157.967 124.378 152.763 121.305 148.477C118.231 144.191 113.791 141.079 108.716 139.651L108.836 149.228L103.577 138.809H103.511C97.3567 138.523 91.3408 140.694 86.786 144.845C82.2313 148.996 79.5104 154.787 79.2217 160.945C79.1984 161.392 79.2217 161.827 79.2217 162.266C77.3936 160.176 75.7285 157.935 74.6301 155.481C72.4061 150.514 72.3634 144.886 72.5381 138.043C72.8874 124.49 73.4735 110.827 74.2342 97.211C79.7261 96.5992 84.8202 94.0486 88.6018 90.017C92.3834 85.9854 94.6049 80.7371 94.8673 75.2142C94.8984 74.5035 94.8867 73.8044 94.8673 73.1054C94.8673 72.9306 94.8673 72.7597 94.8401 72.585C94.7936 71.9092 94.7315 71.2412 94.6267 70.581C94.6267 70.4723 94.5878 70.3674 94.5684 70.2626C94.4753 69.7033 94.3588 69.1519 94.2269 68.6081C94.1764 68.4023 94.126 68.2004 94.0716 67.9984C93.9086 67.4042 93.7301 66.8333 93.5205 66.243C93.4506 66.0527 93.3691 65.8547 93.2954 65.676C93.1324 65.2527 92.9538 64.8333 92.7636 64.4216C92.6627 64.2041 92.5657 63.9866 92.4609 63.773C92.4298 63.7187 92.4104 63.6604 92.3794 63.606C89.9262 58.761 85.8545 54.9287 80.8714 52.7748C75.8883 50.6209 70.3086 50.2814 65.1014 51.8153L65.2567 64.2818L60.0557 53.9824C55.7792 56.4294 52.3956 60.1791 50.3981 64.685C48.4006 69.1909 47.8937 74.2174 48.9513 79.0318H48.928C48.9629 79.1988 49.0134 79.358 49.0522 79.5211C49.1259 79.8279 49.2035 80.1309 49.2889 80.4338C49.3976 80.8221 49.5218 81.2105 49.6499 81.5989C49.7469 81.8863 49.8401 82.1698 49.9488 82.4533C50.1079 82.8649 50.2864 83.2649 50.465 83.665C50.5698 83.898 50.6629 84.1388 50.7755 84.3679C51.0705 84.9686 51.3913 85.555 51.738 86.1272C51.8584 86.3291 51.9942 86.5155 52.1262 86.7136C52.3746 87.102 52.623 87.4903 52.9024 87.8515C53.0693 88.0806 53.2479 88.302 53.4225 88.5234C53.6787 88.8457 53.9388 89.1642 54.1988 89.471C54.389 89.6923 54.5869 89.9059 54.7849 90.1157C55.0721 90.4186 55.3632 90.7099 55.6659 90.9934C55.8678 91.1837 56.0541 91.3817 56.2753 91.5604C56.6169 91.8672 56.9739 92.1546 57.3349 92.4381C57.5173 92.5818 57.6959 92.7293 57.8822 92.8692C58.4333 93.2575 59 93.6459 59.5861 94.0342C59.6948 94.1003 59.8151 94.1546 59.9238 94.2206C60.4167 94.508 60.9135 94.7838 61.4258 95.0323C61.6471 95.1411 61.8722 95.2382 62.0973 95.3391C62.5165 95.5255 62.9395 95.7081 63.3742 95.8751L64.1505 96.1469C64.5775 96.2906 65.0122 96.4266 65.4508 96.5353C65.7069 96.6052 65.967 96.679 66.227 96.7411C66.7005 96.8538 67.1857 96.947 67.6748 97.0324L67.7679 97.0518C67.4496 102.797 67.165 108.543 66.914 114.291C65.5297 111.445 63.5788 108.912 61.1809 106.847C58.783 104.782 55.9888 103.229 52.9697 102.284C49.9505 101.338 46.7702 101.02 43.6237 101.348C40.4772 101.677 37.4309 102.645 34.6719 104.194L38.7783 115.456L30.3287 107.34C25.7987 111.484 23.0988 117.259 22.8222 123.394C22.7144 125.546 22.913 127.703 23.4122 129.799C24.4772 134.33 26.8778 138.437 30.3029 141.588C33.728 144.738 38.0197 146.787 42.622 147.468C47.2243 148.149 51.9251 147.432 56.1151 145.409C60.3052 143.386 63.7915 140.15 66.1222 136.121C66.1222 136.704 66.0834 137.286 66.0679 137.873C65.9126 143.908 65.7186 151.419 68.7266 158.126C70.7643 162.67 74.0401 166.363 77.2655 169.672C79.3731 171.823 81.5582 173.909 83.7978 175.924C86.0027 178.886 88.8786 181.282 92.1892 182.915C95.8687 185.75 99.6801 188.418 103.62 190.88L106.08 192.41C108.293 193.781 110.559 195.191 112.78 196.655C112.391 196.616 112.003 196.574 111.615 196.554C106.69 196.325 101.818 197.668 97.7061 200.391C93.5938 203.114 90.4533 207.074 88.7387 211.7L103.263 223.503L87.2948 219.798C87.2991 223.729 88.2992 227.595 90.2017 231.035C92.1041 234.474 94.8468 237.375 98.1736 239.467C101.5 241.558 105.303 242.772 109.225 242.994C113.148 243.216 117.063 242.44 120.604 240.738L119.545 242.078C118.831 242.966 118.125 243.849 117.429 244.727C107.982 256.7 105.355 268.063 110.032 276.728L115.722 273.656C111.149 265.221 117.992 254.424 122.483 248.746C123.166 247.884 123.859 247.017 124.563 246.144C130.599 238.641 137.438 230.136 137.271 219.704C137.011 203.972 121.761 194.511 109.504 186.907Z" fill="#F2F2F2"/>
<path d="M214.664 169.718L217.707 167.823C217.998 167.641 218.282 167.435 218.573 167.264C212.065 166.144 206.134 162.835 201.762 157.884C197.389 152.932 194.837 146.636 194.528 140.036C194.308 135.498 195.166 130.973 197.031 126.831C198.772 122.952 201.342 119.501 204.562 116.724C207.781 113.948 211.57 111.912 215.662 110.761L215.51 122.711L222.058 109.712H222.136C229.816 109.355 237.323 112.064 243.007 117.245C248.691 122.425 252.086 129.652 252.445 137.337C252.472 137.892 252.445 138.436 252.445 138.983C254.731 136.377 256.804 133.581 258.174 130.521C260.953 124.307 261.007 117.317 260.786 108.773C260.351 91.8594 259.622 74.8181 258.671 57.8311C251.819 57.0682 245.463 53.8858 240.745 48.8554C236.027 43.825 233.256 37.2763 232.93 30.3855C232.891 29.5 232.903 28.6262 232.93 27.7563C232.93 27.5388 232.941 27.3213 232.965 27.1038C233.019 26.2611 233.101 25.4261 233.225 24.6067C233.244 24.4707 233.275 24.3387 233.299 24.2183C233.418 23.5192 233.561 22.8305 233.729 22.1522C233.791 21.8998 233.854 21.6434 233.92 21.3755C234.125 20.6376 234.346 19.9036 234.607 19.189C234.692 18.9482 234.793 18.7191 234.886 18.4822C235.096 17.9501 235.317 17.4297 235.554 16.9287C235.678 16.6608 235.798 16.3889 235.942 16.1209C235.973 16.0549 236.004 15.9811 236.039 15.9151C239.097 9.86807 244.176 5.08496 250.394 2.39783C256.612 -0.289305 263.574 -0.710395 270.07 1.20781L269.876 16.7423L276.366 3.89528C281.701 6.94777 285.921 11.6265 288.411 17.2485C290.901 22.8706 291.53 29.1418 290.206 35.1468H290.238C290.195 35.3527 290.129 35.5352 290.082 35.7566C289.989 36.1449 289.892 36.5333 289.787 36.8945C289.651 37.3799 289.496 37.8537 289.337 38.3275C289.217 38.6848 289.1 39.0421 288.949 39.3955C288.751 39.9081 288.53 40.4091 288.305 40.9062C288.173 41.1975 288.056 41.4965 287.917 41.7839C287.528 42.5335 287.14 43.2675 286.717 43.9782C286.57 44.2306 286.399 44.4675 286.24 44.7122C285.929 45.1938 285.615 45.6676 285.277 46.1297C285.068 46.4171 284.846 46.689 284.629 46.9686C284.311 47.3569 283.989 47.7686 283.647 48.1531C283.409 48.412 283.164 48.68 282.913 48.957C282.56 49.3454 282.192 49.6949 281.819 50.0522C281.567 50.2891 281.318 50.5299 281.043 50.759C280.612 51.1474 280.169 51.4969 279.715 51.8503C279.49 52.0289 279.269 52.2192 279.036 52.3901C278.349 52.895 277.643 53.3766 276.909 53.8232C276.773 53.9047 276.626 53.9746 276.486 54.0562C275.878 54.4187 275.254 54.7565 274.615 55.0698C274.34 55.2057 274.056 55.3223 273.777 55.4582C273.253 55.6951 272.725 55.9203 272.186 56.1262C271.867 56.2466 271.549 56.3592 271.231 56.4679C270.695 56.6505 270.156 56.8136 269.608 56.965C269.286 57.0544 268.964 57.1437 268.634 57.2252C268.04 57.365 267.439 57.4816 266.829 57.5864L266.709 57.6097C267.113 64.7789 267.468 71.9494 267.776 79.1211C269.504 75.5703 271.938 72.4101 274.93 69.8348C277.922 67.2594 281.409 65.3231 285.176 64.1447C288.943 62.9664 292.911 62.5709 296.836 62.9824C300.761 63.394 304.561 64.604 308.002 66.5382L302.914 80.5852L313.452 70.4606C319.104 75.63 322.473 82.8341 322.817 90.4885C322.95 93.1637 322.703 95.8442 322.084 98.4499C320.759 104.107 317.765 109.236 313.491 113.171C309.218 117.105 303.861 119.664 298.116 120.515C292.372 121.367 286.504 120.471 281.274 117.946C276.044 115.42 271.693 111.379 268.785 106.349C268.785 107.075 268.836 107.809 268.855 108.536C269.049 116.066 269.29 125.437 265.541 133.803C262.998 139.477 258.908 144.079 254.863 148.207C252.232 150.894 249.515 153.495 246.712 156.009C243.958 159.702 240.366 162.688 236.233 164.72C231.641 168.258 226.887 171.586 221.973 174.662L218.907 176.577C216.147 178.286 213.321 180.045 210.546 181.87C211.035 181.824 211.517 181.769 212.013 181.746C218.157 181.459 224.232 183.133 229.362 186.527C234.492 189.921 238.411 194.86 240.553 200.628L222.442 215.386L242.365 210.768C242.358 215.673 241.11 220.495 238.735 224.786C236.361 229.077 232.939 232.695 228.788 235.304C224.638 237.912 219.894 239.426 215 239.703C210.107 239.981 205.223 239.013 200.804 236.89C201.254 237.449 201.701 238.008 202.151 238.563C203.04 239.67 203.929 240.773 204.794 241.868C216.578 256.801 219.857 270.996 214.02 281.792L206.925 277.959C212.603 267.434 204.061 253.966 198.46 246.89C197.61 245.814 196.74 244.731 195.867 243.643C188.337 234.284 179.802 223.674 180.012 210.66C180.334 191.005 199.368 179.202 214.664 169.718Z" fill="#F2F2F2"/>
<path d="M341.036 73.0937V209.246C341.036 209.614 340.964 209.978 340.823 210.317C340.683 210.657 340.477 210.966 340.217 211.226C339.957 211.486 339.648 211.692 339.309 211.833C338.969 211.974 338.605 212.046 338.238 212.046H60.8824C60.5151 212.046 60.1514 211.974 59.8121 211.833C59.4728 211.692 59.1646 211.486 58.905 211.226C58.6455 210.966 58.4397 210.657 58.2995 210.317C58.1593 209.977 58.0874 209.613 58.0879 209.246V73.0937C58.0874 72.7262 58.1593 72.3622 58.2995 72.0225C58.4397 71.6828 58.6455 71.3741 58.905 71.114C59.1646 70.8539 59.4728 70.6476 59.8121 70.5069C60.1514 70.3661 60.5151 70.2936 60.8824 70.2936H338.238C338.98 70.2936 339.692 70.5886 340.217 71.1138C340.742 71.6389 341.036 72.3511 341.036 73.0937V73.0937Z" fill="#3F3D56"/>
<path d="M341.036 72.1617V78.4493H58.0879V72.1617C58.0879 71.6662 58.2846 71.1911 58.6347 70.8408C58.9848 70.4904 59.4597 70.2936 59.9548 70.2936H339.169C339.665 70.2936 340.139 70.4904 340.49 70.8408C340.84 71.1911 341.036 71.6662 341.036 72.1617Z" fill="#CBCEDA"/>
<path d="M64.2981 76.1191C65.3699 76.1191 66.2387 75.2497 66.2387 74.1773C66.2387 73.1049 65.3699 72.2355 64.2981 72.2355C63.2263 72.2355 62.3574 73.1049 62.3574 74.1773C62.3574 75.2497 63.2263 76.1191 64.2981 76.1191Z" fill="#FFDBA9"/>
<path d="M69.7319 76.1191C70.8037 76.1191 71.6726 75.2497 71.6726 74.1773C71.6726 73.1049 70.8037 72.2355 69.7319 72.2355C68.6601 72.2355 67.7913 73.1049 67.7913 74.1773C67.7913 75.2497 68.6601 76.1191 69.7319 76.1191Z" fill="#FFDBA9"/>
<path d="M75.1658 76.1191C76.2376 76.1191 77.1064 75.2497 77.1064 74.1773C77.1064 73.1049 76.2376 72.2355 75.1658 72.2355C74.094 72.2355 73.2251 73.1049 73.2251 74.1773C73.2251 75.2497 74.094 76.1191 75.1658 76.1191Z" fill="#FFDBA9"/>
<path opacity="0.2" d="M295.555 169.703V193.074L103.352 193.179L103.177 146.459C105.207 152.444 110.218 153.52 119.04 142.964C140.601 117.2 169.909 110.419 192.595 109.709C208.12 109.219 223.611 112.427 238.395 118.8C244.535 121.453 268.801 124.307 284.815 125.581C287.722 125.81 290.436 127.126 292.417 129.266C294.398 131.406 295.502 134.214 295.508 137.131L295.555 169.703Z" fill="#FFDBA9"/>
<path opacity="0.2" d="M295.555 146.848V193.296H103.177V183.198C108.677 181.812 129.248 176.48 139.111 161.753C150.91 144.121 166.947 139.484 179.356 138.999C187.86 138.661 196.325 140.847 204.406 145.213C213.496 150.122 231.02 156.044 244.333 138.851C259.059 119.841 281.679 135.507 287.416 141.267C289.465 143.302 295.555 146.848 295.555 146.848Z" fill="#FFDBA9"/>
<path d="M103.177 97.5878V192.566H295.555" stroke="#FFDBA9" stroke-width="2" stroke-miterlimit="10"/>
<path d="M127.416 192.566V134.665" stroke="#FFDBA9" stroke-miterlimit="10"/>
<path d="M150.766 192.566V119.177" stroke="#FFDBA9" stroke-miterlimit="10"/>
<path d="M174.116 192.566V111.81" stroke="#FFDBA9" stroke-miterlimit="10"/>
<path d="M197.466 192.566V109.526" stroke="#FFDBA9" stroke-miterlimit="10"/>
<path d="M220.816 192.566V112.066" stroke="#FFDBA9" stroke-miterlimit="10"/>
<path d="M244.166 192.566V121.46" stroke="#FFDBA9" stroke-miterlimit="10"/>
<path d="M267.516 192.566V126.284" stroke="#FFDBA9" stroke-miterlimit="10"/>
<path d="M127.288 138.222C129.672 138.222 131.604 136.289 131.604 133.904C131.604 131.518 129.672 129.585 127.288 129.585C124.904 129.585 122.972 131.518 122.972 133.904C122.972 136.289 124.904 138.222 127.288 138.222Z" fill="#FFDBA9"/>
<path d="M150.638 123.495C153.022 123.495 154.954 121.562 154.954 119.177C154.954 116.792 153.022 114.858 150.638 114.858C148.254 114.858 146.322 116.792 146.322 119.177C146.322 121.562 148.254 123.495 150.638 123.495Z" fill="#FFDBA9"/>
<path d="M173.988 116.385C176.372 116.385 178.304 114.451 178.304 112.066C178.304 109.681 176.372 107.747 173.988 107.747C171.604 107.747 169.672 109.681 169.672 112.066C169.672 114.451 171.604 116.385 173.988 116.385Z" fill="#FFDBA9"/>
<path d="M197.334 113.845C199.718 113.845 201.65 111.911 201.65 109.526C201.65 107.141 199.718 105.207 197.334 105.207C194.95 105.207 193.018 107.141 193.018 109.526C193.018 111.911 194.95 113.845 197.334 113.845Z" fill="#FFDBA9"/>
<path d="M220.684 116.385C223.068 116.385 225 114.451 225 112.066C225 109.681 223.068 107.747 220.684 107.747C218.301 107.747 216.368 109.681 216.368 112.066C216.368 114.451 218.301 116.385 220.684 116.385Z" fill="#FFDBA9"/>
<path d="M244.034 126.031C246.418 126.031 248.35 124.098 248.35 121.713C248.35 119.328 246.418 117.394 244.034 117.394C241.651 117.394 239.718 119.328 239.718 121.713C239.718 124.098 241.651 126.031 244.034 126.031Z" fill="#FFDBA9"/>
<path d="M267.384 131.111C269.768 131.111 271.7 129.178 271.7 126.793C271.7 124.408 269.768 122.474 267.384 122.474C265.001 122.474 263.068 124.408 263.068 126.793C263.068 129.178 265.001 131.111 267.384 131.111Z" fill="#FFDBA9"/>
<path d="M199.5 287C309.681 287 399 283.349 399 278.844C399 274.34 309.681 270.689 199.5 270.689C89.3192 270.689 0 274.34 0 278.844C0 283.349 89.3192 287 199.5 287Z" fill="#3F3D56"/>
<path d="M22.3331 136.983C22.3176 137.32 22.2087 137.645 22.0187 137.923C23.5713 137.877 24.9491 136.855 26.3813 136.37C26.1252 137.877 26.3813 139.663 26.5754 140.945C26.7626 142.188 27.072 143.409 27.4992 144.591C28.4811 148.813 30.2704 152.964 31.8734 157.019C32.5644 158.626 33.0848 160.301 33.4259 162.017C34.5166 168.561 30.7439 174.891 30.0298 181.482C29.9754 181.845 29.9754 182.214 30.0298 182.577C29.9656 182.645 29.9084 182.719 29.859 182.798C27.2236 186.845 27.5651 193.618 28.0387 198.411C28.5122 203.203 30.0298 207.825 31.462 212.427C31.8887 213.695 32.2221 214.993 32.4595 216.31C32.687 218.114 32.7235 219.936 32.5682 221.747C32.0946 230.179 30.907 238.684 32.3081 246.991C33.3289 253.045 35.5568 258.552 35.8013 264.685C35.9861 264.232 36.2793 263.832 36.6552 263.52L37.0744 279.625C37.0551 279.775 37.0726 279.928 37.1253 280.07C37.178 280.212 37.2644 280.339 37.3771 280.441C37.676 280.631 38.0641 280.441 38.4173 280.39C39.442 280.266 40.0979 281.38 40.7772 282.153C41.798 283.318 43.3699 283.87 44.9108 283.99C46.4619 284.048 48.0142 283.907 49.5295 283.571C50.2398 283.443 50.9928 283.295 51.5245 282.794C51.7966 282.517 51.9995 282.179 52.1168 281.809C52.2341 281.438 52.2626 281.045 52.1999 280.662C51.8972 278.289 49.3432 276.938 48.0585 274.914C46.5409 272.522 46.8941 269.318 45.4115 266.898C44.903 266.071 44.2005 265.372 43.7464 264.514C43.5173 263.985 43.3367 263.436 43.2069 262.875C43.6677 263.014 44.1048 263.222 44.5032 263.492C44.3635 262.234 44.2199 260.972 44.0802 259.71L44.0181 259.166C43.8279 257.461 43.6299 255.76 43.4902 254.051C43.0128 248.428 44.608 242.917 43.4902 237.383C43.2573 236.218 43.6299 235.002 43.9754 233.856C45.9379 227.33 47.1349 220.597 47.5423 213.794C47.682 211.394 47.6782 209.079 48.4467 206.803C49.3471 210.473 52.13 213.366 53.8805 216.734C54.9595 218.831 55.631 221.122 56.807 223.165C57.3737 224.159 58.0646 225.107 58.4255 226.186C58.9845 227.876 58.6895 229.709 58.4255 231.472C57.1641 240.598 57.3116 249.888 57.7153 259.092C57.3319 262.614 56.5226 266.077 55.305 269.403C54.8237 270.716 54.2997 272.246 55.0449 273.431C55.3592 273.865 55.7546 274.234 56.2093 274.518C57.3125 275.303 58.4723 276.005 59.6792 276.619C60.0377 276.855 60.4687 276.954 60.8941 276.899C61.1579 276.807 61.4065 276.676 61.6315 276.51C62.5747 275.943 63.7934 276.033 64.8336 276.398C65.8738 276.763 66.8131 277.373 67.8222 277.811C69.9378 278.721 72.2989 278.888 74.5214 278.285C75.4607 278.025 76.462 277.528 76.7531 276.607C77.0442 275.687 76.5086 274.716 75.7673 274.11C75.026 273.504 74.11 273.178 73.26 272.735C71.3971 271.763 69.876 270.244 68.9012 268.382C68.3155 267.154 67.8552 265.869 67.5272 264.549C67.077 262.964 66.6281 261.38 66.1804 259.795C66.4361 259.963 66.6799 260.149 66.9101 260.351C67.5428 252.506 68.1832 244.637 69.8638 236.948C70.6672 233.27 71.7152 229.546 71.3077 225.806C71.0942 223.841 70.4809 221.941 69.8987 220.05C68.0874 214.15 66.5013 208.187 65.1402 202.162C65.6476 201.594 66.0428 200.936 66.3046 200.22C66.7413 198.89 66.9807 197.503 67.0149 196.104C67.666 186.664 67.64 177.189 66.9373 167.753C66.7587 165.361 66.4793 162.848 65.54 160.673H66.0912C65.4352 160.673 64.364 154.157 64.2359 153.43C63.7973 150.914 63.4907 148.382 63.0366 145.869C62.8153 144.646 62.5669 143.422 62.2603 142.218C62.0507 141.418 61.2123 136.451 60.5447 135.896C60.473 135.836 60.3916 135.789 60.3041 135.756C59.9692 134.64 59.2356 133.686 58.2431 133.076C57.168 132.471 55.8872 132.451 54.6335 132.548C54.279 132.03 53.9245 131.519 53.57 131.014C52.9187 130.178 52.4206 129.232 52.099 128.222C51.9986 127.799 51.9388 127.367 51.9204 126.932C51.9204 126.641 51.901 126.35 51.8894 126.059C51.8894 125.911 51.8894 125.767 51.8894 125.62C51.8758 125.329 51.8447 125.04 51.7962 124.754V124.754C51.7574 124.517 51.6992 124.288 51.6371 124.055C51.6099 123.958 51.575 123.857 51.544 123.76C51.3654 123.173 51.1558 122.594 51.0006 122.004C50.5232 120.097 50.7638 118.097 50.8376 116.132C50.9113 114.167 50.7832 112.085 49.6732 110.446C48.862 109.243 47.5617 108.33 47.127 106.951C46.9213 106.295 46.9329 105.573 46.6302 104.951C46.237 104.26 45.6089 103.734 44.8603 103.468C43.9831 103.079 42.221 102.567 41.2779 103.021C41.1011 103.109 40.945 103.233 40.8199 103.386C39.8224 103.437 38.8171 103.572 37.9399 103.134C37.2646 102.796 36.7755 102.155 36.1196 101.786C34.567 100.916 32.5876 101.786 31.2058 102.92C29.0094 104.72 27.4043 107.14 26.5987 109.864C25.9854 111.965 25.737 114.419 23.9788 115.744C23.2491 116.291 22.3098 116.594 21.7781 117.328C21.4163 117.926 21.2157 118.607 21.1959 119.305C21.0135 120.897 20.8621 122.536 21.2852 124.082C21.6034 125.247 22.2283 126.288 22.6165 127.422C23.1339 129.026 23.1796 130.746 22.7481 132.375C22.3167 134.005 21.4263 135.477 20.1829 136.614C20.8243 137.013 21.5957 137.145 22.3331 136.983ZM59.6559 184.103C60.1843 183.817 60.6447 183.42 61.0058 182.94C61.3668 182.459 61.62 181.906 61.748 181.319C61.7906 181.47 61.8256 181.622 61.8644 181.773C62.3624 183.801 62.2612 185.93 61.5733 187.902C61.0581 186.577 60.416 185.305 59.6559 184.103V184.103ZM60.4322 175.505C59.7856 174.578 59.2392 173.584 58.802 172.542C58.2043 170.864 58.3401 169.047 58.4838 167.252C58.5605 165.898 58.7474 164.553 59.0427 163.229C59.2141 167.349 59.6824 171.452 60.4438 175.505H60.4322Z" fill="url(#paint0_linear)"/>
<path d="M45.4115 104.493C46.1486 104.759 46.7656 105.282 47.1503 105.965C47.4453 106.582 47.4375 107.301 47.6394 107.953C48.0663 109.328 49.3471 110.237 50.1389 111.448C51.2179 113.076 51.346 115.15 51.2723 117.099C51.1985 119.049 50.9657 121.041 51.4353 122.925C51.6643 123.845 52.0602 124.727 52.2116 125.663C52.4056 126.804 52.2426 127.993 52.526 129.115C52.8411 130.118 53.3312 131.056 53.9737 131.888L56.5004 135.585C55.3721 135.314 54.2613 134.974 53.1741 134.568C53.5098 135.624 54.1336 136.565 54.9751 137.286L53.147 135.073C52.7765 134.563 52.3161 134.127 51.7885 133.783C51.117 133.395 50.3252 133.34 49.5723 133.189C48.1207 132.894 46.6729 132.152 45.9626 130.859C45.0195 129.119 45.6211 126.936 45.0971 125.033C44.709 123.643 43.7542 122.497 43.0943 121.212C41.6039 118.311 41.6932 114.885 41.2274 111.65C41.0295 110.279 40.7229 108.932 40.7151 107.526C40.7151 106.505 40.816 104.555 41.8795 104.031C42.8149 103.596 44.546 104.124 45.4115 104.493Z" fill="#3F3D56"/>
<path d="M65.7572 257.76L67.6979 264.661C68.019 265.974 68.4715 267.25 69.0486 268.471C69.9953 270.318 71.4855 271.829 73.318 272.801C74.1525 273.24 75.0569 273.578 75.7827 274.168C76.5085 274.759 77.0286 275.749 76.7491 276.65C76.4697 277.551 75.4799 278.06 74.5562 278.32C72.3667 278.919 70.0384 278.75 67.9579 277.842C66.9682 277.404 66.0444 276.798 65.0236 276.437C64.0029 276.075 62.7996 275.982 61.8759 276.549C61.6547 276.714 61.4101 276.845 61.1501 276.938C60.7313 276.995 60.3061 276.897 59.9546 276.662C58.7667 276.052 57.6263 275.353 56.543 274.572C56.1011 274.289 55.7188 273.922 55.4174 273.493C54.6799 272.328 55.2 270.774 55.6697 269.489C56.9174 266.045 57.7297 262.458 58.0877 258.813C58.0809 258.651 58.1089 258.491 58.1699 258.341C58.2308 258.192 58.3233 258.057 58.4409 257.947C58.6129 257.856 58.8058 257.813 58.9998 257.822L67.2903 257.434" fill="#575A89"/>
<path d="M44.2935 264.669C44.7399 265.52 45.4346 266.223 45.9314 267.042C47.3869 269.446 47.0415 272.631 48.5358 275.007C49.7972 277.019 52.3085 278.367 52.6073 280.724C52.6687 281.104 52.6406 281.493 52.5254 281.861C52.4102 282.228 52.211 282.564 51.9436 282.841C51.4196 283.326 50.6783 283.47 49.9797 283.594C48.4919 283.931 46.9666 284.072 45.4424 284.014C43.9248 283.893 42.38 283.334 41.3787 282.184C40.7072 281.408 40.0668 280.309 39.0499 280.437C38.7005 280.479 38.3202 280.674 38.0252 280.483C37.9153 280.382 37.8312 280.256 37.7799 280.115C37.7286 279.975 37.7116 279.824 37.7302 279.675L37.2722 262.017C38.7394 261.857 41.2816 261.275 42.7061 261.78C43.9326 262.211 43.7346 263.593 44.2935 264.669Z" fill="#575A89"/>
<path d="M58.7789 183.039C62.3574 187.494 63.417 193.393 64.5659 198.993C66.046 206.217 67.865 213.36 70.0231 220.423C70.5975 222.303 71.1875 224.19 71.4087 226.144C71.7968 229.864 70.7799 233.565 69.9881 237.22C68.3386 244.867 67.7098 252.688 67.0888 260.486C65.8473 259.428 64.2922 258.808 62.6634 258.721C61.0346 258.635 59.4226 259.087 58.0763 260.009C57.6572 250.607 57.467 241.107 58.74 231.779C58.9807 230.027 59.2718 228.206 58.74 226.528C58.383 225.448 57.7076 224.512 57.1448 223.526C55.9804 221.491 55.3284 219.215 54.2688 217.13C52.5649 213.782 49.8285 210.916 48.9436 207.257C48.1867 209.526 48.1906 211.825 48.0548 214.209C47.6606 220.978 46.4885 227.679 44.5616 234.179C44.22 235.321 43.8552 236.509 44.0842 237.674C45.1709 243.181 43.6029 248.657 44.0842 254.249C44.2239 255.947 44.4141 257.64 44.6004 259.333L44.6625 259.877L45.0817 263.636C43.5291 262.576 41.8873 262.727 40.0127 262.824C39.38 262.825 38.7522 262.935 38.1574 263.151C37.7804 263.303 37.438 263.529 37.1506 263.817C36.8631 264.105 36.6366 264.447 36.4845 264.825C36.2594 258.727 34.0665 253.251 33.0651 247.236C31.6872 238.956 32.8516 230.497 33.3213 222.116C33.4736 220.312 33.4372 218.496 33.2126 216.699C32.9787 215.382 32.6505 214.084 32.2306 212.815C30.8256 208.24 29.3313 203.646 28.8655 198.881C28.3998 194.115 28.066 187.385 30.6548 183.346C31.4544 182.103 33.4222 182.662 34.6642 181.855C35.6428 181.241 36.7193 180.8 37.8469 180.55C44.6353 178.973 51.8391 182.441 58.7789 183.039Z" fill="#3C354C"/>
<path d="M46.5253 127.76C46.6767 129.457 47.0338 131.457 48.5785 132.171C49.4557 132.56 50.4726 132.424 51.4197 132.579C53.2128 132.871 54.6877 134.249 55.5183 135.865C56.3489 137.48 56.6362 139.317 56.8302 141.123C57.0709 143.387 57.1485 145.842 55.9065 147.749C54.9051 149.302 53.1895 150.23 51.3886 150.708C49.5998 151.177 47.7297 151.246 45.9112 150.911C44.0926 150.575 42.3702 149.843 40.8663 148.766C39.429 147.644 38.1266 146.359 36.985 144.937C34.4078 141.935 31.8112 138.645 31.2834 134.723C31.2213 134.276 31.2251 133.737 31.59 133.472C31.8421 133.33 32.1334 133.273 32.4206 133.309L34.893 133.352C35.5179 133.352 36.2243 133.352 36.6512 132.882C37.0782 132.412 37.0394 131.814 37.0394 131.239L36.8725 124.059C36.8359 123.804 36.8954 123.545 37.0394 123.332C37.1955 123.189 37.3951 123.103 37.606 123.088C38.9684 122.859 40.3928 123.088 41.7241 122.719C42.9933 122.369 44.9844 120.913 45.916 122.408C46.6922 123.694 46.3972 126.311 46.5253 127.76Z" fill="#FFC1C7"/>
<path opacity="0.1" d="M46.5253 127.76C46.6767 129.457 47.0338 131.457 48.5785 132.171C49.4557 132.56 50.4726 132.424 51.4197 132.579C53.2128 132.871 54.6877 134.249 55.5183 135.865C56.3489 137.48 56.6362 139.317 56.8302 141.123C57.0709 143.387 57.1485 145.842 55.9065 147.749C54.9051 149.302 53.1895 150.23 51.3886 150.708C49.5998 151.177 47.7297 151.246 45.9112 150.911C44.0926 150.575 42.3702 149.843 40.8663 148.766C39.429 147.644 38.1266 146.359 36.985 144.937C34.4078 141.935 31.8112 138.645 31.2834 134.723C31.2213 134.276 31.2251 133.737 31.59 133.472C31.8421 133.33 32.1334 133.273 32.4206 133.309L34.893 133.352C35.5179 133.352 36.2243 133.352 36.6512 132.882C37.0782 132.412 37.0394 131.814 37.0394 131.239L36.8725 124.059C36.8359 123.804 36.8954 123.545 37.0394 123.332C37.1955 123.189 37.3951 123.103 37.606 123.088C38.9684 122.859 40.3928 123.088 41.7241 122.719C42.9933 122.369 44.9844 120.913 45.916 122.408C46.6922 123.694 46.3972 126.311 46.5253 127.76Z" fill="black"/>
<path d="M40.3036 127.29C45.519 127.29 49.7469 123.059 49.7469 117.841C49.7469 112.622 45.519 108.392 40.3036 108.392C35.0882 108.392 30.8604 112.622 30.8604 117.841C30.8604 123.059 35.0882 127.29 40.3036 127.29Z" fill="#FFC1C7"/>
<path d="M50.4572 144.125C51.9826 144.152 53.7059 143.737 54.4433 142.385C54.9479 141.469 54.8664 140.354 54.7694 139.313L54.2221 133.488C55.7048 133.333 57.3 133.201 58.5925 133.935C60.3119 134.909 60.9213 137.069 61.1231 139.034C61.4841 142.723 60.898 146.448 61.0998 150.149C61.2706 153.256 61.9886 156.464 61.0726 159.442C60.6845 160.685 60.0402 161.831 59.621 163.062C59.097 164.615 58.9612 166.285 58.8448 167.928C58.7012 169.691 58.5653 171.516 59.1553 173.186C59.6482 174.585 60.6108 175.761 61.2978 177.07C62.4233 179.237 62.664 182.158 60.9717 183.917C59.4192 185.525 56.8653 185.591 54.6956 185.082C52.526 184.573 50.4262 183.602 48.2138 183.509C44.2859 183.342 40.785 185.894 36.958 186.721C36.4449 186.858 35.9073 186.877 35.386 186.775C34.9248 186.626 34.4957 186.391 34.1207 186.084L32.0171 184.569C31.5966 184.318 31.2468 183.964 31.0001 183.54C30.824 183.069 30.7784 182.559 30.8682 182.064C31.5746 175.509 35.2812 169.217 34.21 162.712C33.8769 161.007 33.367 159.341 32.6885 157.741C30.0221 150.914 26.8238 143.822 27.8602 136.564C28.0853 134.956 28.5588 133.313 29.665 132.125C30.7711 130.936 32.6419 130.346 34.0742 131.107C35.5064 131.869 36.0148 133.562 36.6475 135.034C37.8667 137.895 39.8023 140.394 42.2676 142.288C43.3078 143.088 44.5693 144.11 45.9316 144.145C47.3522 144.195 48.9047 144.094 50.4572 144.125Z" fill="#FF6584"/>
<path d="M64.1349 158.805C66.4249 161.349 66.8751 165.019 67.1274 168.429C67.8215 177.811 67.8461 187.231 67.2012 196.616C67.1683 198.008 66.9343 199.389 66.5064 200.714C66.0174 202.015 65.1014 203.219 63.8128 203.739C62.986 204.073 61.8333 203.984 61.4607 203.172C61.1191 202.43 61.6276 201.618 62.0118 200.881C62.8945 199.223 63.19 197.314 62.8502 195.467C62.3805 195.809 62.2136 196.426 62.0739 196.993L61.3248 200.147C60.3118 199.999 59.9314 198.76 59.7723 197.75C59.4773 195.917 59.194 193.964 59.9275 192.259C60.3157 191.35 60.9755 190.577 61.3675 189.669C62.3573 187.385 62.7454 184.775 62.1089 182.367C59.9631 174.238 59.0267 165.837 59.3298 157.434C60.7997 158.267 62.447 158.737 64.1349 158.805V158.805Z" fill="#FFC1C7"/>
<path d="M66.297 161.365C63.4784 161.393 60.6737 161.763 57.9443 162.468C57.5834 160.689 57.758 158.848 57.9443 157.031L59.1476 144.603C59.2368 143.683 59.066 135.228 60.8476 136.723C61.5035 137.275 62.3302 142.215 62.5359 143.011C62.8465 144.207 63.091 145.419 63.3122 146.638C63.7586 149.135 64.0613 151.656 64.4766 154.157C64.5969 154.898 65.6527 161.365 66.297 161.365Z" fill="#FF6584"/>
<path d="M43.9056 105.829C43.9171 105.533 43.8502 105.24 43.7115 104.978C43.5886 104.824 43.4351 104.698 43.2607 104.606C43.0864 104.514 42.8949 104.46 42.6985 104.446C41.3322 104.233 39.8379 104.784 38.6076 104.159C37.94 103.821 37.4664 103.188 36.8183 102.819C35.2657 101.953 33.3251 102.819 31.986 103.949C29.8232 105.745 28.2471 108.147 27.4604 110.846C26.8549 112.936 26.6104 115.379 24.8832 116.695C24.1652 117.239 23.2414 117.542 22.7174 118.272C22.3648 118.86 22.1684 119.528 22.1469 120.214C21.9683 121.798 21.817 123.429 22.2323 124.967C22.5466 126.132 23.1599 127.158 23.5441 128.284C24.0585 129.883 24.1057 131.595 23.68 133.219C23.2544 134.844 22.3737 136.313 21.1416 137.453C21.7716 137.848 22.5313 137.979 23.2569 137.818C23.2406 138.152 23.1347 138.475 22.9503 138.754C25.1588 138.684 27.08 136.529 29.2419 136.999C30.8954 137.356 31.8152 139.061 33.0456 140.222C34.6331 141.714 37.0977 142.339 39.0888 141.453C41.08 140.568 42.2909 138.051 41.4448 136.04C40.4822 133.752 37.513 132.847 36.4845 130.602C35.6888 128.855 36.2788 126.808 36.0963 124.894C35.9527 123.251 35.2425 121.717 34.8 120.124C34.3575 118.532 34.2139 116.715 35.1144 115.332C36.0692 113.86 37.8973 113.289 39.5624 112.746C43.3234 111.522 44.0453 109.627 43.9056 105.829Z" fill="#3F3D56"/>
<path d="M41.5844 139.799C41.8522 138.478 42.12 137.08 41.6426 135.814C40.7616 133.484 37.87 132.735 35.8711 131.224C34.7131 130.343 33.8233 129.157 33.3017 127.799C32.9407 126.843 32.8902 125.53 33.7829 125.041C34.1303 124.878 34.5146 124.81 34.8969 124.843C38.0019 124.917 40.8702 126.61 43.2572 128.618C44.6468 129.783 45.9742 131.119 46.6573 132.797C47.0909 134.006 47.3522 135.27 47.4336 136.552L47.9342 140.781C48.2625 143.209 48.4568 145.653 48.5164 148.102C48.518 149.503 48.4298 150.903 48.2525 152.293C48.1283 153.279 47.942 154.3 47.3637 155.108C46.2886 156.615 44.2121 156.953 42.3607 157.003C41.6605 157.043 40.9582 156.999 40.2686 156.871C37.1907 156.203 34.8542 151.889 37.1869 149.224C38.1766 148.094 39.6593 148.059 40.2259 146.506C40.9556 144.444 41.1419 141.947 41.5844 139.799Z" fill="#FFC1C7"/>
<path d="M39.081 140.541L41.5301 144.514C41.6758 144.718 41.7776 144.951 41.829 145.197C41.895 145.714 41.5107 146.172 41.2041 146.595C39.1082 149.454 39.6515 153.392 40.2726 156.879C36.9297 155.822 33.9526 153.844 31.6835 151.17C29.4143 148.496 27.9451 145.236 27.4448 141.764C27.1382 139.686 26.6452 136.265 28.4889 134.913C32.9097 131.651 37.0006 137.135 39.081 140.541Z" fill="#FF6584"/>
<path d="M51.4198 132.579C50.4728 132.424 49.4559 132.579 48.5787 132.171C47.0262 131.457 46.6768 129.453 46.5255 127.76C46.5255 127.6 46.5061 127.43 46.4983 127.247C47.0522 126.679 47.6533 126.159 48.2953 125.694C48.8745 125.354 49.4904 125.082 50.1312 124.882L51.8468 124.28C52.0106 124.734 52.1404 125.2 52.2349 125.674C52.429 126.816 52.2659 128.004 52.5493 129.127C52.8644 130.129 53.3545 131.068 53.997 131.9L56.5238 135.597C56.0658 135.488 55.6116 135.368 55.1614 135.236C54.2803 133.896 52.9723 132.832 51.4198 132.579Z" fill="#3F3D56"/>
<path d="M393.954 148.937C393.504 146.751 392.662 144.665 392.153 142.498C391.944 141.366 391.663 140.25 391.311 139.154C391.131 138.678 390.906 138.22 390.64 137.787L390.88 137.562C390.081 136.21 390.05 134.517 389.673 132.979C389.347 131.655 388.699 130.443 388.307 129.138C387.763 127.329 387.69 125.286 386.568 123.791C386.126 123.2 385.547 122.738 385.054 122.191C384.488 121.565 384.041 120.831 383.467 120.218C381.798 118.439 379.283 117.887 376.904 117.631C374.524 117.375 372.064 117.379 369.871 116.388C368.951 115.973 367.98 115.379 367.018 115.449C366.477 114.927 365.98 114.362 365.531 113.759C364.799 112.872 364.135 111.931 363.544 110.944C364.007 110.16 364.364 109.319 364.608 108.442L364.767 108.33C365.392 107.856 365.931 107.239 366.544 106.776C367.084 106.388 367.779 105.98 367.837 105.289C367.895 104.598 367.27 104.07 366.882 103.499C365.481 101.452 367.03 98.248 365.593 96.2246C364.875 95.211 363.622 94.8265 362.488 94.3333C360.936 93.6497 359.55 92.6672 358.009 92.0031C356.468 91.339 354.687 90.9778 353.134 91.6147C350.231 92.8186 349.187 96.9547 346.237 98.0344C345.917 98.0992 345.629 98.2703 345.418 98.5198C345.057 99.1101 344.58 102.586 344.665 103.304C344.778 104.256 345.007 104.726 345.663 105.06C345.663 105.262 345.663 105.468 345.663 105.673C345.663 110.617 349.086 114.722 353.6 115.569C354.033 116.025 354.401 116.539 354.695 117.095C354.923 117.685 355.054 118.308 355.083 118.94C354.921 118.862 354.742 118.825 354.563 118.831C354.276 118.872 354.006 118.996 353.788 119.186C353.57 119.377 353.411 119.628 353.332 119.907C353.171 120.477 353.107 121.071 353.142 121.662C353.167 121.845 353.149 122.031 353.089 122.205C353.03 122.38 352.931 122.538 352.801 122.668C352.658 122.754 352.497 122.805 352.331 122.816C351.732 122.928 351.124 122.991 350.514 123.002C349.505 123.002 348.422 122.75 347.534 123.243C346.645 123.736 346.241 124.796 345.814 125.756C345.196 127.128 344.381 128.404 343.396 129.542C342.309 130.801 340.959 131.993 340.652 133.659C340.648 133.698 340.648 133.737 340.652 133.775C339.802 134.164 338.933 135.096 338.323 135.566C337.154 136.471 336.031 137.434 334.958 138.451C333.867 139.504 332.396 140.809 331.721 142.215C331.377 142.816 330.918 143.344 330.37 143.768C329.264 144.486 327.836 144.106 326.59 143.702C323.136 142.587 319.662 141.461 316.44 139.756C316.282 139.646 316.089 139.598 315.897 139.62C315.792 139.653 315.697 139.715 315.625 139.799C315.599 139.758 315.57 139.72 315.54 139.682C314.67 138.743 313.304 138.68 312.823 137.243C312.689 136.788 312.595 136.321 312.54 135.849C312.235 134.475 311.743 133.15 311.076 131.911C310.979 131.656 310.812 131.432 310.595 131.267C310.391 131.168 310.156 131.151 309.939 131.219C309.723 131.288 309.541 131.437 309.431 131.636C309.208 132.042 309.121 132.508 309.182 132.968C309.213 133.472 309.287 134.059 308.938 134.42C308.797 134.552 308.627 134.648 308.441 134.7C307.319 135.065 306.085 134.739 305.037 134.191C303.989 133.643 303.046 132.882 302.01 132.303C301.462 132.003 300.897 131.736 300.317 131.503C299.72 131.255 298.889 131.092 298.555 131.663C298.287 132.121 298.555 132.707 298.866 133.142C299.386 133.893 299.992 134.582 300.67 135.193C302.689 136.999 305.231 138.005 307.599 139.263C309.663 140.362 311.613 141.663 313.421 143.147C313.351 143.372 313.308 143.606 313.293 143.842C313.294 144.3 313.39 144.754 313.576 145.173C313.762 145.592 314.033 145.968 314.372 146.277C315.042 146.873 315.797 147.368 316.611 147.745C320.72 149.881 324.86 151.961 329.031 153.986C329.297 154.14 329.592 154.235 329.897 154.265C330.743 154.285 331.283 153.368 331.962 152.84C332.641 152.312 333.514 152.164 334.333 151.889C335.789 151.388 337.05 150.436 338.296 149.496L342.267 146.49C344.266 144.98 346.315 143.383 347.992 141.519C348.203 141.965 348.505 142.361 348.877 142.684C348.551 143.411 349.23 144.164 349.393 144.949C349.451 145.464 349.465 145.984 349.435 146.502C349.505 147.258 349.635 148.007 349.824 148.743C350.015 149.944 350.103 151.158 350.088 152.374C350.088 153.729 350.13 155.093 350.15 156.444C350.177 158.2 350.204 159.974 349.835 161.687C349.335 164.017 348.108 166.231 348.205 168.623C348.275 169.07 348.231 169.527 348.077 169.951C347.064 171.893 346.264 174.033 345.174 175.944C344.852 176.408 344.591 176.912 344.397 177.443C344.262 177.997 344.316 178.582 344.553 179.101C344.12 179.876 343.877 180.742 343.842 181.629C343.769 183.824 344.65 185.901 345.073 188.065C345.461 190.049 345.461 192.084 345.519 194.108C345.818 203.576 347.669 212.935 348.054 222.4C348.235 226.763 348.105 231.135 347.666 235.48C347.382 238.284 346.963 241.08 346.808 243.9C346.361 251.9 348.03 259.822 349.688 267.667C350.189 267.078 350.892 266.697 351.659 266.599C351.458 267.376 351.19 268.386 350.91 269.131C350.505 269.188 350.117 269.328 349.769 269.543C348.803 270.161 348.473 271.427 347.91 272.452C346.68 274.685 344.262 275.831 342.278 277.365C341.327 278.099 340.369 279.221 340.668 280.413C344.103 281.411 347.844 282.297 351.147 280.922C352.49 280.367 353.748 279.446 355.188 279.4C356.282 279.365 357.4 279.842 358.448 279.516C358.708 279.446 358.935 279.289 359.092 279.07C359.215 278.83 359.274 278.562 359.263 278.293C359.352 276.467 359.344 274.638 359.24 272.813C359.15 271.26 359.31 270.095 358.048 269.877C357.734 269.096 357.502 268.286 357.353 267.458C357.353 267.306 357.318 267.147 357.299 266.988C357.646 266.99 357.993 266.962 358.335 266.902C358.547 266.866 358.755 266.817 358.96 266.755C358.894 266.487 358.836 266.215 358.782 265.947C358.673 265.407 358.588 264.867 358.518 264.327C358.448 263.788 358.397 263.24 358.359 262.696C358.359 262.421 358.328 262.149 358.316 261.873C358.293 261.325 358.285 260.778 358.289 260.226C358.293 259.675 358.289 259.127 358.328 258.576C358.366 258.024 358.382 257.473 358.421 256.921C358.514 255.543 358.65 254.164 358.786 252.797C359.181 248.781 359.58 244.768 359.981 240.758C360.097 239.554 360.218 238.346 360.233 237.138C360.248 236.416 360.214 235.693 360.132 234.975C359.927 233.235 359.379 231.48 359.356 229.763C359.349 229.477 359.359 229.19 359.387 228.905C359.414 228.617 359.462 228.331 359.531 228.05C359.566 227.895 359.612 227.74 359.659 227.588C359.756 227.281 359.865 226.982 359.962 226.676C360.012 226.524 360.059 226.369 360.101 226.213C360.26 225.557 360.355 224.888 360.385 224.213C360.385 223.988 360.412 223.763 360.423 223.538L360.901 214.069C360.979 212.551 361.107 210.912 361.7 209.557C361.956 208.958 362.329 208.418 362.799 207.968C362.679 207.646 362.799 207.102 363.133 207.017C363.524 211.85 363.475 216.709 362.989 221.534C362.818 223.048 362.566 224.551 362.496 226.074C362.349 229.429 363.09 232.75 363.35 236.097C363.61 239.445 363.35 242.894 363.35 246.292C363.323 252.137 363.967 257.962 364.608 263.768L364.996 264.024C364.996 264.537 365.054 265.096 365.046 265.578C365.033 265.745 365.05 265.914 365.097 266.075H364.934C364.558 266.107 364.196 266.23 363.878 266.433C363.56 266.636 363.296 266.913 363.109 267.24C362.725 267.905 362.446 268.626 362.283 269.376C362.092 269.93 362.013 270.516 362.05 271.1C362.197 272.207 363.137 273.042 363.385 274.13C363.839 276.099 361.91 278.223 362.787 280.033C363.346 281.198 364.755 281.52 365.985 281.722C367.864 282.029 370.003 282.274 371.481 281.027C371.883 280.678 372.204 280.246 372.422 279.76C372.64 279.275 372.749 278.747 372.743 278.215C372.743 276.794 371.901 275.528 371.532 274.161C371.012 272.242 371.788 269.663 370.969 267.893C370.902 267.706 370.799 267.534 370.666 267.388H370.946C370.88 266.739 370.814 266.087 370.744 265.446L371.396 265.112C372.067 264.774 372.844 264.518 373.542 264.782C373.282 261.446 373.209 257.76 373.977 254.513C374.575 251.95 375.646 249.519 376.143 246.933C376.531 244.801 376.558 242.61 376.566 240.439C376.566 236.408 376.566 232.35 375.891 228.4C375.619 226.815 375.231 225.192 375.526 223.608C375.72 222.563 376.193 221.6 376.473 220.574C377.125 218.178 376.647 215.603 377.036 213.145C377.959 207.273 378.448 201.145 379.151 195.245C379.501 191.902 379.62 188.539 379.508 185.179V185.14L380.901 182.422C381.899 180.48 382.912 178.507 383.517 176.421C383.726 176.715 383.895 177.035 384.018 177.373L390.143 167.19C390.54 166.588 390.855 165.935 391.078 165.248C391.218 164.755 391.264 164.239 391.369 163.738C391.645 162.437 392.305 161.264 392.833 160.052C394.329 156.548 394.72 152.67 393.954 148.937V148.937ZM384.79 154.048C384.506 155.721 384.117 157.375 383.626 159C382.819 161.788 381.883 164.53 380.948 167.276L380.144 169.606C379.867 170.544 379.451 171.435 378.91 172.25C378.787 172.454 378.676 172.666 378.58 172.883C377.75 169.777 378.65 166.281 378.46 162.969C378.316 160.464 377.54 157.92 378.122 155.493C378.51 153.858 379.489 152.452 380.176 150.922C380.816 149.5 381.216 147.951 381.938 146.58C381.938 146.607 381.938 146.63 381.965 146.653C382.607 148.342 383.376 149.979 384.266 151.551C384.516 151.906 384.706 152.299 384.829 152.716C384.909 153.16 384.9 153.615 384.802 154.056L384.79 154.048Z" fill="url(#paint1_linear)"/>
<path d="M312.722 137.232C312.583 136.775 312.484 136.308 312.427 135.834C312.175 134.44 311.53 133.154 310.898 131.884C310.797 131.624 310.623 131.399 310.397 131.236C310.186 131.141 309.948 131.127 309.727 131.195C309.505 131.263 309.316 131.408 309.194 131.604C308.964 132.01 308.873 132.479 308.934 132.94C308.969 133.453 309.046 134.039 308.685 134.401C308.535 134.534 308.356 134.63 308.161 134.68C306.997 135.049 305.705 134.719 304.606 134.172C303.508 133.624 302.53 132.855 301.447 132.276C300.874 131.976 300.284 131.709 299.681 131.476C299.056 131.224 298.19 131.061 297.841 131.636C297.562 132.094 297.841 132.68 298.163 133.119C298.708 133.877 299.341 134.566 300.049 135.174C302.153 136.987 304.812 137.997 307.284 139.259C310.054 140.674 312.636 142.43 314.969 144.486C315.195 144.218 315.331 143.885 315.357 143.535C315.544 142.545 316.363 140.541 315.536 139.682C314.632 138.739 313.223 138.677 312.722 137.232Z" fill="#A0616A"/>
<path d="M351.648 270.592C353.72 272.21 356.346 272.947 358.956 272.642C359.5 272.576 360.121 272.382 360.299 271.865C360.365 271.552 360.329 271.226 360.198 270.933C359.788 269.956 359.472 268.942 359.255 267.904C359.119 266.96 359.154 265.838 358.386 265.271C357.276 264.452 354.373 264.494 353.651 265.764C353.48 266.036 352.393 271.217 351.648 270.592Z" fill="#3C354C"/>
<path d="M367.286 266.009C367.259 266.112 367.255 266.219 367.273 266.324C367.291 266.428 367.331 266.528 367.391 266.615C367.451 266.703 367.53 266.777 367.62 266.832C367.711 266.887 367.813 266.921 367.918 266.933C369.701 267.486 371.549 267.795 373.414 267.854L373.026 264.118C373.034 264.034 373.023 263.95 372.995 263.871C372.967 263.792 372.922 263.72 372.863 263.66C372.804 263.601 372.733 263.554 372.655 263.525C372.577 263.495 372.493 263.483 372.409 263.489C371.338 263.31 369.087 262.584 368.058 262.956C366.902 263.376 367.309 264.894 367.286 266.009Z" fill="#3C354C"/>
<path d="M356.445 116.99C356.746 117.774 356.895 118.609 356.884 119.449C356.981 122.459 356.465 125.709 354.369 127.868C356.721 127.165 359.364 127.589 361.584 126.54C362.613 126.055 363.478 125.282 364.441 124.68C366.156 123.608 368.155 123.088 369.941 122.132C371.726 121.177 373.379 119.565 373.48 117.546C372.704 116.73 371.458 116.614 370.441 116.12C369.347 115.584 368.536 114.606 367.763 113.662C366.852 112.622 366.053 111.488 365.38 110.279C364.704 109.062 364.432 107.661 364.604 106.279C362.62 106.637 361.181 108.369 359.306 109.11C358.576 109.398 357.788 109.53 357.078 109.86C356.065 110.326 354.012 111.911 353.973 113.153C353.977 114.509 355.917 115.794 356.445 116.99Z" fill="#A0616A"/>
<path opacity="0.1" d="M356.445 116.99C356.746 117.774 356.895 118.609 356.884 119.449C356.981 122.459 356.465 125.709 354.369 127.868C356.721 127.165 359.364 127.589 361.584 126.54C362.613 126.055 363.478 125.282 364.441 124.68C366.156 123.608 368.155 123.088 369.941 122.132C371.726 121.177 373.379 119.565 373.48 117.546C372.704 116.73 371.458 116.614 370.441 116.12C369.347 115.584 368.536 114.606 367.763 113.662C366.852 112.622 366.053 111.488 365.38 110.279C364.704 109.062 364.432 107.661 364.604 106.279C362.62 106.637 361.181 108.369 359.306 109.11C358.576 109.398 357.788 109.53 357.078 109.86C356.065 110.326 354.012 111.911 353.973 113.153C353.977 114.509 355.917 115.794 356.445 116.99Z" fill="black"/>
<path d="M381.981 195.424C381.247 201.343 380.738 207.494 379.772 213.386C379.384 215.852 379.865 218.435 379.186 220.842C378.895 221.872 378.41 222.839 378.196 223.883C377.89 225.476 378.293 227.103 378.584 228.695C379.299 232.676 379.298 236.75 379.287 240.796C379.287 242.975 379.287 245.173 378.848 247.313C378.328 249.911 377.21 252.362 376.585 254.917C375.782 258.18 375.86 261.877 376.131 265.224C375.402 264.96 374.579 265.224 373.888 265.555C373.197 265.885 372.498 266.331 371.726 266.382C370.682 266.479 369.7 265.927 368.799 265.391C368.109 264.984 367.507 264.615 366.82 264.195C366.149 258.37 365.477 252.521 365.504 246.653C365.504 243.243 365.772 239.826 365.504 236.424C365.236 233.021 364.456 229.728 364.615 226.365C364.689 224.835 364.949 223.328 365.124 221.809C365.698 216.893 365.621 212.178 365.275 207.242C364.938 207.327 364.802 207.871 364.926 208.193C364.433 208.64 364.037 209.184 363.762 209.79C363.141 211.149 363.009 212.796 362.927 214.318L362.426 223.821C362.413 224.725 362.301 225.625 362.093 226.505C361.918 227.13 361.654 227.72 361.495 228.349C360.924 230.625 361.84 232.971 362.131 235.297C362.368 237.239 362.166 239.181 361.968 241.099L360.722 253.185C360.268 257.582 359.826 262.071 360.722 266.39C360.781 266.658 360.839 266.929 360.909 267.201C360.695 267.263 360.477 267.313 360.257 267.349C359.484 267.457 358.7 267.457 357.928 267.349C357.206 267.275 356.476 267.151 355.762 267.065C354.047 266.871 352.335 266.797 351.198 268.094C349.467 260.242 347.728 252.269 348.19 244.241C348.353 241.414 348.787 238.606 349.086 235.79C349.552 231.433 349.692 227.046 349.505 222.668C349.117 213.168 347.177 203.774 346.855 194.271C346.789 192.243 346.796 190.197 346.393 188.208C345.95 186.053 345.03 183.936 345.104 181.75C345.178 179.563 346.773 177.136 348.985 177.256C355.091 177.594 360.668 174.223 366.758 173.649C369.521 173.385 372.332 172.992 375.068 173.485C377.804 173.979 380.529 175.528 381.604 178.091C382.186 179.486 382.233 181.031 382.275 182.538C382.4 186.841 382.512 191.156 381.981 195.424Z" fill="#575A89"/>
<path d="M351.31 269.978C350.301 270.599 349.955 271.869 349.369 272.899C348.085 275.139 345.562 276.289 343.489 277.827C342.496 278.569 341.494 279.691 341.809 280.891C345.395 281.889 349.3 282.778 352.758 281.4C354.159 280.841 355.475 279.916 356.977 279.87C358.122 279.835 359.306 280.316 360.381 279.986C360.652 279.923 360.892 279.764 361.056 279.54C361.182 279.301 361.244 279.033 361.235 278.763C361.328 276.929 361.319 275.092 361.207 273.26C361.099 271.469 361.339 270.203 359.298 270.281C356.953 270.382 353.344 268.724 351.31 269.978Z" fill="#CBCEDA"/>
<path d="M368.497 266.793C368.073 266.624 367.625 266.523 367.169 266.494C366.782 266.525 366.408 266.646 366.077 266.849C365.746 267.051 365.467 267.329 365.264 267.66C364.862 268.323 364.572 269.047 364.402 269.803C364.204 270.357 364.122 270.945 364.161 271.532C364.313 272.642 365.295 273.473 365.555 274.569C366.024 276.545 364.002 278.677 364.926 280.495C365.512 281.66 366.983 281.986 368.268 282.188C370.232 282.499 372.463 282.744 374.008 281.489C374.423 281.147 374.757 280.717 374.985 280.23C375.213 279.743 375.331 279.211 375.328 278.674C375.305 277.244 374.447 275.974 374.059 274.6C373.519 272.658 374.33 270.087 373.473 268.312C372.739 266.793 370.061 267.294 368.497 266.793Z" fill="#CBCEDA"/>
<path d="M357.101 115.623C362.672 115.623 367.189 111.104 367.189 105.53C367.189 99.9553 362.672 95.4362 357.101 95.4362C351.53 95.4362 347.013 99.9553 347.013 105.53C347.013 111.104 351.53 115.623 357.101 115.623Z" fill="#A0616A"/>
<path d="M362.45 122.07C361.362 121.607 360.152 121.516 359.007 121.81L358.087 120.206C357.699 119.499 357.121 118.699 356.309 118.73C356.014 118.768 355.736 118.891 355.508 119.083C355.28 119.275 355.112 119.529 355.025 119.814C354.856 120.384 354.788 120.979 354.823 121.573C354.85 121.758 354.831 121.947 354.77 122.123C354.708 122.299 354.605 122.458 354.47 122.587C354.319 122.669 354.152 122.72 353.981 122.734C353.354 122.845 352.719 122.907 352.083 122.921C351.027 122.921 349.898 122.664 348.978 123.161C348.058 123.659 347.631 124.715 347.184 125.686C346.534 127.068 345.684 128.348 344.662 129.484C343.524 130.746 342.115 131.942 341.793 133.612C341.657 134.323 342.302 134.851 342.814 135.364C344.852 137.387 347.693 138.63 349.203 141.077C349.556 141.648 349.843 142.292 350.387 142.684C350.049 143.418 350.775 144.172 350.926 144.96C350.986 145.476 351 145.996 350.969 146.514C351.036 147.273 351.166 148.025 351.357 148.762C351.556 149.966 351.648 151.185 351.632 152.405L351.698 156.491C351.726 158.254 351.753 160.033 351.369 161.753C350.845 164.083 349.564 166.316 349.665 168.712C349.739 169.162 349.694 169.623 349.533 170.048C348.473 171.99 347.639 174.142 346.501 176.06C346.177 176.526 345.916 177.032 345.725 177.567C345.422 178.674 346.043 179.874 346.959 180.565C347.875 181.257 349.032 181.54 350.158 181.754C360.614 183.758 371.47 181.346 381.352 177.385C381.612 177.303 381.853 177.171 382.062 176.996C382.784 176.293 382.217 175.109 381.806 174.192C380.253 170.779 381.491 166.813 381.27 163.085C381.123 160.572 380.308 158.036 380.921 155.582C381.309 153.943 382.345 152.529 383.063 150.999C383.84 149.341 384.274 147.504 385.291 145.989C386.053 144.949 386.944 144.009 387.942 143.193L394.249 137.57C393.415 136.214 393.38 134.513 392.988 132.971C392.646 131.643 391.967 130.424 391.56 129.119C390.993 127.301 390.915 125.235 389.743 123.748C389.281 123.154 388.68 122.692 388.163 122.144C387.573 121.515 387.108 120.781 386.506 120.163C384.763 118.377 382.136 117.81 379.656 117.569C377.175 117.328 374.61 117.317 372.312 116.322C371.187 115.837 369.983 115.103 368.819 115.468C367.895 115.755 367.301 116.66 366.925 117.557C366.548 118.454 366.284 119.422 365.667 120.171C364.907 121.064 363.56 121.655 362.45 122.07Z" fill="#3C354C"/>
<path d="M332.435 142.218C332.07 142.824 331.59 143.351 331.022 143.772C329.858 144.49 328.379 144.11 327.079 143.706C323.473 142.583 319.844 141.457 316.479 139.745C316.313 139.633 316.111 139.585 315.912 139.609C315.757 139.659 315.621 139.756 315.524 139.888C314.995 140.475 314.509 141.1 314.069 141.756C313.604 142.365 313.312 143.088 313.223 143.85C313.225 144.313 313.327 144.771 313.52 145.192C313.714 145.613 313.995 145.988 314.344 146.292C315.047 146.892 315.831 147.387 316.673 147.764C320.966 149.908 325.287 151.996 329.637 154.029C329.915 154.184 330.224 154.279 330.541 154.308C331.426 154.328 331.989 153.407 332.695 152.879C333.402 152.351 334.329 152.203 335.172 151.924C336.693 151.423 338.017 150.467 339.313 149.524L343.458 146.51C347.091 143.869 350.906 140.991 352.494 136.801L347.448 135.139C345.934 134.638 344.343 133.876 342.771 133.585C341.607 133.36 340.206 134.898 339.332 135.554C338.105 136.465 336.924 137.439 335.796 138.471C334.679 139.496 333.142 140.809 332.435 142.218Z" fill="#3C354C"/>
<path d="M380.195 175.373C378.771 175.94 377.156 175.086 375.646 175.338C374.938 175.496 374.263 175.776 373.651 176.165L369.242 178.631C368.97 178.779 368.675 179.14 368.912 179.334C368.98 179.38 369.059 179.406 369.141 179.412C370.612 179.602 371.986 178.705 373.449 178.457C374.092 178.369 374.742 178.344 375.39 178.383C375.497 178.376 375.604 178.392 375.704 178.429C375.812 178.491 375.899 178.581 375.957 178.691C376.015 178.8 376.04 178.924 376.03 179.047C376.03 179.295 375.957 179.536 375.949 179.785C375.993 180.357 376.217 180.901 376.589 181.338C377.993 183.353 379.55 185.257 381.247 187.032C381.677 186.487 382.049 185.899 382.357 185.276L383.809 182.558C385.314 179.754 386.855 176.845 387.096 173.672C386.009 173.326 383.991 172.181 382.869 172.783C381.748 173.385 381.488 174.957 380.195 175.373Z" fill="#A0616A"/>
<path d="M355.824 103.918C358.665 104.221 361.258 105.565 363.8 106.885C363.366 107.569 363.917 108.551 364.689 108.784C365.462 109.017 366.308 108.687 366.964 108.209C367.62 107.732 368.159 107.114 368.819 106.656C369.386 106.268 370.108 105.856 370.17 105.165C370.232 104.473 369.58 103.941 369.172 103.367C367.709 101.312 369.327 98.0965 367.829 96.0654C367.076 95.0479 365.768 94.6634 364.608 94.1663C363.001 93.4828 361.538 92.4963 359.927 91.8167C358.316 91.1371 356.461 90.7837 354.838 91.4283C351.803 92.6361 350.716 96.7877 347.635 97.8713C347.303 97.9366 347.002 98.1084 346.777 98.3606C346.389 98.9509 345.904 102.442 346.001 103.161C346.148 104.361 346.478 104.804 347.658 105.161C350.181 105.914 353.123 103.627 355.824 103.918Z" fill="#3F3D56"/>
<path d="M392.608 136.121C393.52 136.951 394.231 137.979 394.684 139.127C395.052 140.224 395.345 141.345 395.561 142.482C396.093 144.665 396.97 146.754 397.44 148.945C398.239 152.687 397.832 156.587 396.275 160.083C395.724 161.303 395.033 162.475 394.746 163.784C394.638 164.285 394.587 164.806 394.443 165.299C394.206 165.987 393.877 166.64 393.465 167.241L387.1 177.49C386.856 176.892 386.487 176.352 386.019 175.908C385.55 175.463 384.993 175.123 384.383 174.911C383.158 174.497 381.845 174.418 380.579 174.682C381.053 173.936 381.262 173.101 381.744 172.351C382.008 171.953 382.25 171.541 382.47 171.116C382.686 170.656 382.876 170.182 383.036 169.699L383.871 167.342C384.849 164.588 385.811 161.835 386.669 159.038C387.186 157.41 387.596 155.749 387.896 154.067C387.989 153.64 388 153.198 387.927 152.766C387.797 152.34 387.597 151.939 387.337 151.578C386.411 150.006 385.608 148.365 384.934 146.669C384.43 145.485 383.921 144.152 384.375 142.949C384.664 142.311 385.091 141.746 385.625 141.294C387.741 139.301 390.085 137.564 392.608 136.121V136.121Z" fill="#3C354C"/>
<path opacity="0.1" d="M360.261 267.341L360.726 266.382C359.834 262.071 360.276 257.582 360.726 253.177L361.972 241.092C362.17 239.15 362.36 237.208 362.135 235.29C361.844 232.959 360.928 230.629 361.499 228.342C361.658 227.713 361.922 227.122 362.096 226.497C362.305 225.617 362.417 224.717 362.43 223.813L362.931 214.31C363.012 212.788 363.144 211.141 363.765 209.782V209.522L362.166 195.75L357.943 267.341H360.261Z" fill="black"/>
<path d="M323.935 273.279C325.1 271.139 323.78 268.514 322.27 266.607C320.76 264.7 318.928 262.723 318.967 260.281C319.025 256.785 322.732 254.723 325.693 252.867C327.892 251.493 329.92 249.862 331.733 248.008C332.493 247.296 333.121 246.454 333.588 245.523C334.201 244.156 334.186 242.602 334.147 241.107C334.015 236.121 333.768 231.138 333.406 226.159" stroke="#3F3D56" stroke-width="4" stroke-miterlimit="10"/>
<path d="M339.037 225.887C338.996 224.974 338.725 224.087 338.251 223.306C337.776 222.525 337.112 221.877 336.32 221.421L335.102 223.837L335.14 220.912C334.557 220.741 333.95 220.668 333.343 220.695C332.271 220.748 331.239 221.118 330.377 221.757C329.514 222.397 328.861 223.278 328.498 224.289C328.136 225.299 328.08 226.395 328.339 227.437C328.598 228.48 329.16 229.422 329.954 230.145C330.747 230.868 331.737 231.34 332.798 231.501C333.86 231.662 334.945 231.505 335.917 231.049C336.889 230.594 337.704 229.86 338.26 228.942C338.817 228.023 339.088 226.96 339.041 225.887H339.037Z" fill="#57B894"/>
<path d="M329.322 262.778C328.751 263.886 327.816 264.764 326.675 265.264C325.534 265.765 324.255 265.858 323.053 265.528C321.852 265.197 320.8 264.463 320.075 263.449C319.35 262.436 318.995 261.203 319.069 259.958C319.144 258.714 319.644 257.533 320.486 256.613C321.328 255.693 322.46 255.091 323.692 254.907C324.925 254.723 326.183 254.969 327.256 255.603C328.329 256.237 329.152 257.221 329.586 258.389L326.182 261.174L329.928 260.308C329.924 261.167 329.717 262.014 329.322 262.778V262.778Z" fill="#57B894"/>
<path d="M326.633 252.195C325.279 252.291 323.939 251.876 322.876 251.033C321.812 250.19 321.102 248.979 320.886 247.639C320.669 246.299 320.962 244.926 321.706 243.79C322.45 242.655 323.591 241.839 324.906 241.503L324.875 243.748L326.109 241.305C326.824 241.27 327.538 241.377 328.212 241.619C328.885 241.861 329.504 242.234 330.033 242.716C330.562 243.198 330.991 243.78 331.295 244.428C331.598 245.077 331.771 245.779 331.803 246.494C331.835 247.123 331.756 247.752 331.57 248.354C331.243 249.425 330.593 250.369 329.709 251.056C328.825 251.744 327.751 252.142 326.633 252.195Z" fill="#57B894"/>
<path d="M339.857 243.391C339.02 243.422 338.188 243.259 337.426 242.915C336.663 242.571 335.989 242.056 335.458 241.409C334.927 240.762 334.552 240.001 334.364 239.185C334.175 238.37 334.176 237.521 334.369 236.707C334.561 235.892 334.939 235.132 335.473 234.488C336.007 233.843 336.683 233.331 337.447 232.99C338.211 232.65 339.044 232.49 339.88 232.525C340.716 232.559 341.533 232.786 342.267 233.188L341.304 235.829L343.284 233.926C344.345 234.898 344.977 236.252 345.042 237.69C345.068 238.194 345.022 238.701 344.906 239.193C344.637 240.348 343.998 241.383 343.087 242.141C342.175 242.899 341.041 243.338 339.857 243.391V243.391Z" fill="#57B894"/>
<path opacity="0.1" d="M338.304 227.34C337.046 227.476 335.824 227.868 334.562 227.946C333.301 228.023 331.915 227.724 331.116 226.742C330.689 226.213 330.471 225.545 330.11 224.967C329.766 224.429 329.294 223.985 328.736 223.674C328.408 224.361 328.227 225.11 328.206 225.872C328.186 226.633 328.325 227.391 328.616 228.095C328.907 228.8 329.342 229.435 329.894 229.96C330.446 230.485 331.102 230.888 331.82 231.143C332.537 231.399 333.3 231.5 334.06 231.441C334.819 231.382 335.557 231.163 336.227 230.8C336.897 230.437 337.482 229.937 337.947 229.333C338.411 228.729 338.743 228.034 338.921 227.293C338.717 227.301 338.511 227.316 338.304 227.34Z" fill="black"/>
<path opacity="0.1" d="M339.856 243.391C338.917 243.438 337.981 243.241 337.141 242.819C336.3 242.396 335.584 241.762 335.062 240.979C334.539 240.196 334.229 239.291 334.161 238.352C334.094 237.414 334.271 236.473 334.675 235.624C335.107 235.914 335.479 236.286 335.769 236.719C336.158 237.305 336.394 237.985 336.848 238.521C337.698 239.519 339.146 239.845 340.462 239.787C341.778 239.728 343.047 239.352 344.343 239.231C344.526 239.231 344.708 239.204 344.894 239.2C344.625 240.352 343.987 241.384 343.078 242.141C342.168 242.897 341.037 243.336 339.856 243.391V243.391Z" fill="black"/>
<path opacity="0.1" d="M326.633 252.195C325.702 252.242 324.775 252.049 323.94 251.634C323.106 251.219 322.392 250.596 321.867 249.826C321.342 249.055 321.025 248.162 320.944 247.233C320.864 246.304 321.024 245.37 321.408 244.521C321.86 244.816 322.255 245.191 322.573 245.628C322.996 246.226 323.26 246.917 323.757 247.469C324.676 248.49 326.221 248.851 327.611 248.82C329 248.789 330.262 248.459 331.601 248.354C331.272 249.43 330.617 250.377 329.727 251.065C328.837 251.753 327.756 252.148 326.633 252.195V252.195Z" fill="black"/>
<path opacity="0.1" d="M329.323 262.778C328.733 264.096 327.645 265.125 326.297 265.64C324.949 266.155 323.451 266.113 322.134 265.524C320.817 264.934 319.788 263.845 319.274 262.496C318.759 261.147 318.801 259.649 319.39 258.331C319.84 258.625 320.243 258.985 320.586 259.399C321.106 260.028 321.447 260.747 322.045 261.341C323.159 262.436 324.956 262.894 326.559 262.929C327.482 262.934 328.405 262.883 329.323 262.778V262.778Z" fill="black"/>
<path d="M315.719 270.813C315.719 270.813 320.019 270.681 321.315 269.757C322.612 268.832 327.914 267.733 328.247 269.213C328.581 270.693 334.71 276.592 329.858 276.615C325.007 276.638 318.579 275.862 317.283 275.062C315.986 274.262 315.719 270.813 315.719 270.813Z" fill="#656380"/>
<path opacity="0.2" d="M329.944 276.103C325.088 276.141 318.664 275.326 317.372 274.549C316.386 273.947 315.994 271.796 315.862 270.801H315.719C315.719 270.801 315.99 274.273 317.271 275.073C318.552 275.873 324.991 276.654 329.847 276.627C331.248 276.627 331.729 276.118 331.702 275.38C331.519 275.815 330.988 276.091 329.944 276.103Z" fill="black"/>
<path d="M22.667 277.551C21.5026 275.411 22.8223 272.786 24.3321 270.879C25.8419 268.972 27.6739 266.995 27.6351 264.553C27.5769 261.057 23.8702 258.995 20.9088 257.139C18.7098 255.765 16.6824 254.134 14.8694 252.28C14.1096 251.568 13.4816 250.726 13.0142 249.795C12.4009 248.428 12.4164 246.874 12.4552 245.379C12.5872 240.393 12.8343 235.41 13.1966 230.431" stroke="#3F3D56" stroke-width="4" stroke-miterlimit="10"/>
<path d="M7.56475 230.159C7.60602 229.246 7.8766 228.359 8.35147 227.578C8.82634 226.797 9.49019 226.149 10.2817 225.693L11.5004 228.109L11.4616 225.184C12.0446 225.013 12.6518 224.94 13.2587 224.967C14.3307 225.02 15.363 225.39 16.2253 226.029C17.0876 226.669 17.7413 227.55 18.1039 228.561C18.4665 229.571 18.5218 230.667 18.2628 231.709C18.0037 232.752 17.442 233.694 16.6484 234.417C15.8548 235.14 14.865 235.612 13.8037 235.773C12.7424 235.934 11.6573 235.777 10.6852 235.321C9.71313 234.866 8.89763 234.132 8.34159 233.214C7.78555 232.295 7.51389 231.232 7.56087 230.159H7.56475Z" fill="#57B894"/>
<path d="M17.2797 267.05C17.8511 268.158 18.7858 269.036 19.9271 269.536C21.0685 270.037 22.3471 270.13 23.5487 269.8C24.7503 269.469 25.8019 268.735 26.5273 267.721C27.2526 266.708 27.6076 265.475 27.5327 264.23C27.4579 262.986 26.9577 261.804 26.1161 260.885C25.2745 259.965 24.1426 259.363 22.91 259.179C21.6774 258.995 20.4192 259.241 19.3461 259.875C18.273 260.509 17.4502 261.493 17.0158 262.661L20.4197 265.43L16.6897 264.564C16.6863 265.428 16.8886 266.28 17.2797 267.05V267.05Z" fill="#57B894"/>
<path d="M19.9693 256.467C21.3228 256.563 22.663 256.148 23.7266 255.305C24.7901 254.462 25.4999 253.251 25.7164 251.911C25.9329 250.571 25.6405 249.198 24.8966 248.062C24.1527 246.927 23.0112 246.111 21.6965 245.775L21.7275 248.02L20.4933 245.577C19.7786 245.542 19.064 245.649 18.3906 245.891C17.7172 246.133 17.0981 246.506 16.5691 246.988C16.04 247.47 15.6114 248.052 15.3077 248.7C15.004 249.349 14.8312 250.05 14.7994 250.766C14.7675 251.395 14.8463 252.024 15.0323 252.626C15.3596 253.697 16.0095 254.641 16.8932 255.328C17.7769 256.016 18.8512 256.414 19.9693 256.467Z" fill="#57B894"/>
<path d="M6.74562 247.663C7.58179 247.693 8.41376 247.531 9.17668 247.187C9.9396 246.843 10.6129 246.327 11.144 245.681C11.6751 245.034 12.0497 244.273 12.2387 243.457C12.4277 242.642 12.4258 241.793 12.2333 240.979C12.0408 240.164 11.6629 239.404 11.129 238.76C10.595 238.115 9.91954 237.603 9.15514 237.262C8.39073 236.922 7.55806 236.762 6.72204 236.797C5.88601 236.831 5.06922 237.058 4.33532 237.46L5.29789 240.101L3.31842 238.198C2.25476 239.169 1.61961 240.523 1.55242 241.962C1.52657 242.466 1.57231 242.972 1.68826 243.465C1.95752 244.621 2.59765 245.657 3.51086 246.415C4.42407 247.173 5.56016 247.611 6.74562 247.663V247.663Z" fill="#57B894"/>
<path opacity="0.1" d="M8.29828 231.612C9.55583 231.748 10.7784 232.14 12.0399 232.218C13.3013 232.295 14.6869 231.996 15.4865 231.014C15.9134 230.485 16.1308 229.817 16.4918 229.239C16.8365 228.701 17.3084 228.257 17.8657 227.946C18.1944 228.633 18.375 229.382 18.3958 230.144C18.4165 230.905 18.277 231.663 17.9863 232.367C17.6956 233.072 17.2602 233.707 16.7083 234.232C16.1564 234.757 15.5003 235.16 14.7826 235.415C14.065 235.671 13.3017 235.772 12.5424 235.713C11.7831 235.654 11.0447 235.435 10.3751 235.072C9.70553 234.709 9.11968 234.209 8.65558 233.605C8.19148 233.001 7.85949 232.306 7.68115 231.565C7.88557 231.573 8.09128 231.588 8.29828 231.612Z" fill="black"/>
<path opacity="0.1" d="M6.74572 247.663C7.68519 247.71 8.62095 247.513 9.46143 247.091C10.3019 246.668 11.0183 246.034 11.5406 245.251C12.0628 244.468 12.373 243.563 12.4408 242.624C12.5086 241.686 12.3316 240.745 11.9273 239.896C11.4951 240.186 11.1233 240.558 10.8328 240.991C10.4446 241.577 10.2079 242.257 9.75374 242.793C8.90373 243.791 7.456 244.117 6.14023 244.059C4.82447 244 3.55527 243.624 2.25891 243.503C2.07649 243.503 1.89407 243.476 1.70776 243.472C1.97757 244.624 2.61545 245.656 3.52463 246.413C4.43382 247.169 5.5647 247.608 6.74572 247.663V247.663Z" fill="black"/>
<path opacity="0.1" d="M19.9694 256.467C20.9002 256.514 21.8274 256.321 22.662 255.906C23.4966 255.491 24.2105 254.868 24.7351 254.098C25.2598 253.327 25.5775 252.434 25.6578 251.505C25.7381 250.576 25.5783 249.642 25.1937 248.793C24.7418 249.088 24.3472 249.463 24.0293 249.9C23.6062 250.498 23.3423 251.189 22.8649 251.741C21.945 252.762 20.4003 253.123 19.0108 253.092C17.6212 253.061 16.3598 252.731 15.0208 252.626C15.3488 253.699 16.0005 254.644 16.8864 255.332C17.7724 256.019 18.8493 256.416 19.9694 256.467Z" fill="black"/>
<path opacity="0.1" d="M17.2795 267.05C17.8689 268.368 18.9573 269.397 20.3053 269.912C21.6534 270.427 23.1506 270.385 24.4677 269.796C25.7849 269.206 26.8139 268.117 27.3285 266.768C27.8431 265.419 27.8012 263.921 27.2118 262.603C26.7622 262.897 26.3593 263.257 26.0164 263.671C25.4963 264.3 25.1547 265.019 24.557 265.613C23.4431 266.708 21.646 267.166 20.043 267.201C19.1197 267.206 18.1969 267.155 17.2795 267.05V267.05Z" fill="black"/>
<path d="M30.8836 275.085C30.8836 275.085 26.5831 274.953 25.2867 274.029C23.9904 273.104 18.6885 272.005 18.3547 273.485C18.0209 274.965 11.8923 280.864 16.7439 280.887C21.5956 280.91 28.0231 280.134 29.3194 279.334C30.6158 278.534 30.8836 275.085 30.8836 275.085Z" fill="#656380"/>
<path opacity="0.2" d="M16.6587 280.375C21.5143 280.413 27.9379 279.598 29.2303 278.821C30.2162 278.219 30.6082 276.068 30.7402 275.073H30.8838C30.8838 275.073 30.6121 278.545 29.3313 279.345C28.0504 280.145 21.6113 280.926 16.7558 280.899C15.3546 280.899 14.8733 280.39 14.9005 279.652C15.0829 280.087 15.6147 280.363 16.6587 280.375Z" fill="black"/>
<defs>
<linearGradient id="paint0_linear" x1="48.5126" y1="284.037" x2="48.5126" y2="101.405" gradientUnits="userSpaceOnUse">
<stop stop-color="#808080" stop-opacity="0.25"/>
<stop offset="0.54" stop-color="#808080" stop-opacity="0.12"/>
<stop offset="1" stop-color="#808080" stop-opacity="0.1"/>
</linearGradient>
<linearGradient id="paint1_linear" x1="94128" y1="153881" x2="94128" y2="60253.2" gradientUnits="userSpaceOnUse">
<stop stop-color="#808080" stop-opacity="0.25"/>
<stop offset="0.54" stop-color="#808080" stop-opacity="0.12"/>
<stop offset="1" stop-color="#808080" stop-opacity="0.1"/>
</linearGradient>
</defs>
</svg>
