<svg width="450" height="319" viewBox="0 0 450 319" fill="none" xmlns="http://www.w3.org/2000/svg">
<g clip-path="url(#clip0)">
<path opacity="0.1" d="M149.606 318.821C171.521 318.821 189.286 315.965 189.286 312.443C189.286 308.92 171.521 306.065 149.606 306.065C127.692 306.065 109.926 308.92 109.926 312.443C109.926 315.965 127.692 318.821 149.606 318.821Z" fill="#98A1F0"/>
<path opacity="0.1" d="M365.301 319C392.647 319 414.816 316.144 414.816 312.622C414.816 309.099 392.647 306.244 365.301 306.244C337.955 306.244 315.787 309.099 315.787 312.622C315.787 316.144 337.955 319 365.301 319Z" fill="#98A1F0"/>
<path opacity="0.1" d="M5.63609 137.831H46.9654V194.206H8.66177C8.55997 194.785 8.46223 195.368 8.35635 195.951H46.9654V241.416C46.8961 241.396 46.835 241.371 46.7699 241.347C45.6785 240.915 44.5953 240.458 43.5121 239.969L42.8198 239.655C41.7339 239.142 40.6479 238.599 39.562 238.025C39.1833 237.826 38.8046 237.618 38.4299 237.406C32.4013 234.026 26.9246 229.744 22.1898 224.707C22.0513 224.572 21.921 224.43 21.7826 224.299C21.1229 223.582 20.4754 222.857 19.8482 222.115L19.156 221.3C18.4148 220.391 17.6981 219.458 17.0017 218.512C16.8999 218.374 16.8022 218.235 16.6963 218.105C13.8643 214.175 11.5128 209.92 9.69205 205.43C9.63504 205.296 9.58617 205.149 9.53324 205.023C8.97398 203.583 8.47852 202.129 8.04686 200.662C7.85954 200.046 7.68036 199.439 7.52562 198.799C7.4686 198.612 7.41974 198.428 7.37494 198.245C5.0619 189.21 4.78906 179.824 4.78906 170.504C4.78906 169.416 4.78906 168.323 4.78906 167.243C4.78906 163.474 4.83386 159.679 4.89901 155.889C4.89901 154.907 4.93974 153.929 4.9601 152.943C5.01711 150.44 5.09855 147.938 5.20443 145.436C5.22887 144.739 5.26144 144.046 5.29809 143.353C5.29809 142.954 5.31846 142.554 5.35918 142.155C5.45691 140.704 5.53836 139.265 5.63609 137.831Z" fill="#98A1F0"/>
<path opacity="0.1" d="M46.9651 75.0612H24.2949C27.9801 69.2887 32.0066 63.7416 36.3529 58.4497C39.7206 54.3091 43.2757 50.2744 46.9651 46.3865V75.0612Z" fill="#98A1F0"/>
<path opacity="0.1" d="M46.9651 76.8055V136.087H5.76611C5.76611 135.916 5.79462 135.74 5.80684 135.569C5.84349 135.1 5.88014 134.632 5.92086 134.167C5.96565 133.621 6.01452 133.071 6.06746 132.537C6.1204 132.003 6.17741 131.351 6.23849 130.76C6.29958 130.169 6.35659 129.57 6.42582 128.979C6.49505 128.388 6.55613 127.797 6.62943 127.21C6.70273 126.624 6.76789 126.029 6.84526 125.442C6.90634 124.953 6.9715 124.468 7.03665 123.979C7.13032 123.29 7.22805 122.597 7.33393 121.912C7.33393 121.81 7.36244 121.705 7.37872 121.607C8.12199 116.595 9.13473 111.626 10.4125 106.723C11.7501 101.58 13.4581 96.5405 15.5232 91.6442C17.718 86.5221 20.2878 81.5692 23.2116 76.8259L46.9651 76.8055Z" fill="#98A1F0"/>
<path opacity="0.1" d="M56.8325 137.827V194.206H145.107V137.827H56.8325ZM56.8325 195.946V244.363C57.3375 244.468 57.8384 244.57 58.3352 244.656C59.0112 244.786 59.6831 244.905 60.3713 245.006C60.5016 245.027 60.636 245.047 60.7785 245.059C61.0473 245.104 61.3242 245.141 61.593 245.178C62.273 245.271 62.949 245.349 63.6291 245.41C63.9508 245.443 64.2766 245.471 64.6024 245.495L65.3883 245.557C65.8159 245.589 66.2394 245.614 66.6589 245.626C66.9195 245.626 67.1801 245.65 67.4489 245.658C67.6525 245.658 67.8561 245.658 68.0679 245.658C68.2796 245.658 68.581 245.658 68.8375 245.658C69.1877 245.658 69.5379 245.658 69.8841 245.658H70.3524C70.7026 245.658 71.0528 245.659 71.399 245.626H71.4234C71.6637 245.626 71.908 245.626 72.1523 245.593C72.2201 245.597 72.2881 245.597 72.3559 245.593C72.5595 245.593 72.7632 245.593 72.9586 245.565H73.1012L74.4654 245.459C74.9133 245.418 75.3653 245.365 75.8214 245.316L76.7499 245.206C80.5272 244.676 84.2626 243.881 87.9282 242.826C96.1623 240.528 104.217 237.312 112.447 234.956C123.088 231.92 134.845 230.429 145.127 234.141V195.946H56.8325ZM145.107 75.0611V0.00397934C135.442 -0.10081 125.804 1.03045 116.426 3.37028C94.0733 8.9903 74.0174 21.1799 56.8325 36.748V75.0571H61.2631V76.7973H56.8325V136.087H145.107V76.8013H79.4539V75.0611H145.107ZM258.49 49.7079C252.96 49.5123 247.463 47.7598 242.491 45.0538C232.982 39.878 225.387 31.886 216.9 25.1412C199.268 11.0932 177.4 2.61633 154.966 0.513408V75.0611H280.981L281.295 74.731L258.49 49.7079ZM269.97 47.6702L282.142 61.0376V44.1653C278.066 44.6707 274.494 45.8729 269.986 47.6539L269.97 47.6702ZM282.142 256.385V195.946H256.206C256.137 195.69 256.067 195.429 255.986 195.168C256.063 195.429 256.128 195.69 256.202 195.946H154.982V239.655C155.943 240.369 156.892 241.118 157.832 241.881C158.846 242.696 159.848 243.556 160.854 244.399L161.868 245.239C162.353 245.646 162.841 246.054 163.334 246.437C164.311 247.23 165.298 248.013 166.295 248.784C166.787 249.192 167.292 249.559 167.793 249.942C175.745 256.026 184.134 261.517 192.89 266.37C194.853 267.457 196.834 268.518 198.832 269.553C200.164 270.233 201.503 270.91 202.847 271.566C204.867 272.552 206.903 273.503 208.956 274.419C227.878 282.919 247.887 288.753 268.41 291.752C272.969 292.425 277.544 292.955 282.138 293.341V256.381H282.545L282.142 256.385ZM154.982 76.8013V136.087H282.158V76.8013H154.982ZM154.982 137.827V194.206H282.158V137.827H154.982ZM292.029 44.092V62.9123L307.565 45.8525C302.418 45.0212 297.239 44.4275 292.029 44.0716V44.092ZM292.029 137.847V194.206H415.724V137.827L292.029 137.847ZM415.272 260.86L415.708 195.946H292.029V293.989C299.997 294.324 307.976 294.229 315.934 293.704H316.072C319.873 293.465 323.656 293.117 327.421 292.66H327.507C347.596 290.321 367.238 285.075 385.822 277.088L415.272 260.86ZM439.575 147.111C439.111 146.014 438.626 144.926 438.134 143.85C437.213 141.813 436.24 139.832 435.238 137.851H425.587V194.206H449.988C449.976 178.247 445.94 161.945 439.587 147.09L439.575 147.111ZM425.587 195.967V251.8C432.461 245.206 438.268 237.663 442.45 229.039C447.479 218.655 449.78 207.411 449.968 195.959L425.587 195.967ZM425.587 121.419V136.091H434.334C431.688 131.04 428.772 126.136 425.599 121.399L425.587 121.419ZM341.699 55.1527C341.055 54.9081 340.412 54.6595 339.764 54.4191C332.936 51.8953 325.957 49.7965 318.87 48.1348L295.096 74.246L294.64 74.731L294.945 75.0652H379.558C367.774 66.9471 355.07 60.2561 341.711 55.1323L341.699 55.1527ZM382.038 76.8217H293.764L292.029 78.4111V136.087H307.235H307.26H415.74V108.15C405.927 96.272 394.601 85.7329 382.051 76.8013L382.038 76.8217Z" fill="#98A1F0"/>
<path opacity="0.1" d="M46.9651 106.707V136.087H5.76611C5.76611 135.916 5.79462 135.74 5.80684 135.569C5.84349 135.1 5.88014 134.632 5.92086 134.167C5.96565 133.621 6.01452 133.071 6.06746 132.537C6.1204 132.003 6.17741 131.351 6.23849 130.76C6.29958 130.169 6.35659 129.57 6.42582 128.979C6.49505 128.388 6.55613 127.797 6.62943 127.21C6.70273 126.624 6.76789 126.029 6.84526 125.442C6.90634 124.953 6.9715 124.468 7.03665 123.979C7.13032 123.29 7.22805 122.597 7.33393 121.912C7.33393 121.81 7.36244 121.704 7.37872 121.607C8.12199 116.595 9.13473 111.626 10.4125 106.723L46.9651 106.707Z" fill="#98A1F0"/>
<path opacity="0.1" d="M5.63609 137.831H46.9654V194.206H8.66177C8.55997 194.785 8.46223 195.368 8.35635 195.951H46.9654V241.416C46.8961 241.396 46.835 241.371 46.7699 241.347C45.6785 240.915 44.5953 240.458 43.5121 239.969L42.8198 239.655C41.7339 239.142 40.6479 238.599 39.562 238.025C39.1833 237.826 38.8046 237.618 38.4299 237.406C32.4013 234.026 26.9246 229.744 22.1898 224.707C22.0513 224.572 21.921 224.43 21.7826 224.299C21.1229 223.582 20.4754 222.857 19.8482 222.115L19.156 221.3C18.4148 220.391 17.6981 219.458 17.0017 218.512C16.8999 218.374 16.8022 218.235 16.6963 218.105C13.8643 214.175 11.5128 209.92 9.69205 205.43C9.63504 205.296 9.58617 205.149 9.53324 205.023C8.97398 203.583 8.47852 202.129 8.04686 200.662C7.85954 200.046 7.68036 199.439 7.52562 198.799C7.4686 198.612 7.41974 198.428 7.37494 198.245C5.0619 189.21 4.78906 179.824 4.78906 170.504C4.78906 169.416 4.78906 168.323 4.78906 167.243C4.78906 163.474 4.83386 159.679 4.89901 155.889C4.89901 154.907 4.93974 153.929 4.9601 152.943C5.01711 150.44 5.09855 147.938 5.20443 145.436C5.22887 144.739 5.26144 144.046 5.29809 143.353C5.29809 142.954 5.31846 142.554 5.35918 142.155C5.45691 140.704 5.53836 139.265 5.63609 137.831Z" fill="#98A1F0"/>
<path opacity="0.1" d="M87.9079 85.2906V136.087H56.8325V85.2906H61.2631V68.0923H79.4498V85.2906H87.9079Z" fill="#98A1F0"/>
<path opacity="0.1" d="M87.9077 137.827H56.8364V194.202H87.9077V137.827Z" fill="#98A1F0"/>
<path opacity="0.1" d="M56.8325 195.951H87.9079V242.818C84.2422 243.872 80.5068 244.666 76.7295 245.194L75.8011 245.308C75.345 245.361 74.893 245.406 74.445 245.451C73.9971 245.496 73.5328 245.528 73.0808 245.557H72.9383C72.7428 245.557 72.531 245.581 72.3397 245.585H72.132C71.8876 245.585 71.6433 245.61 71.399 245.618C71.0528 245.638 70.7067 245.642 70.3524 245.646C70.2017 245.646 70.0592 245.646 69.9085 245.646C69.5583 245.646 69.2122 245.646 68.8619 245.646H68.0923C67.8846 245.646 67.6851 245.646 67.4692 245.646L66.6833 245.618C66.2761 245.618 65.8363 245.573 65.4127 245.544L64.6309 245.487L63.6576 245.398C62.9735 245.337 62.2934 245.259 61.6215 245.165L60.807 245.051L60.3998 244.994C59.7197 244.888 59.0478 244.774 58.3637 244.644C57.8628 244.558 57.366 244.452 56.861 244.35L56.8325 195.951Z" fill="#98A1F0"/>
<path opacity="0.1" d="M282.158 79.2915H256.536V136.083H282.158V79.2915Z" fill="#98A1F0"/>
<path opacity="0.1" d="M282.162 137.827V194.206H154.982V169.888H222.724V184.234H256.536V137.827H282.162Z" fill="#98A1F0"/>
<path opacity="0.1" d="M282.566 256.397H282.158V293.382C277.57 292.993 272.996 292.465 268.435 291.797C247.901 288.788 227.884 282.942 208.956 274.427C203.491 271.966 198.137 269.278 192.895 266.366C184.138 261.511 175.748 256.02 167.793 249.938C165.795 248.405 163.823 246.838 161.876 245.235C160.528 244.122 159.189 242.981 157.833 241.873C156.892 241.11 155.943 240.361 154.982 239.643V195.951H256.198C256.129 195.69 256.059 195.429 255.986 195.172C256.063 195.429 256.137 195.69 256.206 195.951H282.158V256.373C282.297 256.377 282.431 256.389 282.566 256.397Z" fill="#98A1F0"/>
<path opacity="0.1" d="M348.984 75.0612H332.288V69.8691H339.772V54.4028C340.421 54.6392 341.067 54.8824 341.711 55.1323V69.8691H348.984V75.0612Z" fill="#98A1F0"/>
<path opacity="0.1" d="M389.209 136.087H307.243C307.243 136.087 307.243 136.087 307.272 136.107L307.235 136.087H292.029V79.2956H296.338V121.273H316.027V96.4124H332.292V76.8055H348.988V96.4287H365.252V121.289H389.209V136.087Z" fill="#98A1F0"/>
<path opacity="0.1" d="M292.029 137.827V194.206H389.209V137.827H292.029ZM415.59 260.571L415.724 215.945H389.209V195.975H292.029V293.989C299.997 294.324 307.976 294.229 315.933 293.704H316.072C319.873 293.465 323.656 293.117 327.421 292.661H327.507C347.595 290.321 367.238 285.075 385.821 277.088" fill="#98A1F0"/>
<path opacity="0.1" d="M427.313 195.951H449.984C449.784 207.398 447.487 218.643 442.462 229.027C438.28 237.654 432.469 245.198 425.603 251.788V215.924H427.313V195.951Z" fill="#98A1F0"/>
<path opacity="0.1" d="M449.996 194.206H427.313V147.09H439.587C445.94 161.945 449.976 178.247 449.996 194.206Z" fill="#98A1F0"/>
<path opacity="0.1" d="M282.162 95.0797H268.435V112.885H282.162V95.0797Z" fill="#98A1F0"/>
<path opacity="0.1" d="M282.162 131.987H268.435V136.087H282.162V131.987Z" fill="#98A1F0"/>
<path opacity="0.1" d="M282.162 137.827H268.435V149.788H282.162V137.827Z" fill="#98A1F0"/>
<path opacity="0.1" d="M282.162 168.894H268.435V186.699H282.162V168.894Z" fill="#98A1F0"/>
<path opacity="0.1" d="M282.162 205.801H268.435V223.606H282.162V205.801Z" fill="#98A1F0"/>
<path opacity="0.1" d="M282.158 256.373C282.297 256.373 282.431 256.373 282.565 256.397H282.158V260.534H268.435V242.708H282.158V256.373Z" fill="#98A1F0"/>
<path opacity="0.1" d="M282.158 279.607V293.362C277.57 292.973 272.995 292.445 268.435 291.776V279.607H282.158Z" fill="#98A1F0"/>
<path opacity="0.1" d="M213.814 192.898H154.982V194.206H213.814V192.898Z" fill="#98A1F0"/>
<path opacity="0.1" d="M213.814 195.947H154.982V200.959H213.814V195.947Z" fill="#98A1F0"/>
<path opacity="0.1" d="M213.814 217.391H154.982V225.453H213.814V217.391Z" fill="#98A1F0"/>
<path opacity="0.1" d="M213.809 241.885V249.946H167.793C165.795 248.419 163.821 246.851 161.872 245.243C160.524 244.13 159.188 242.989 157.828 241.885H213.809Z" fill="#98A1F0"/>
<path opacity="0.1" d="M213.81 266.374V274.427H208.951C203.492 271.963 198.14 269.274 192.895 266.362L213.81 266.374Z" fill="#98A1F0"/>
<path opacity="0.1" d="M327.519 143.292H315.938V154.883H327.519V143.292Z" fill="#98A1F0"/>
<path opacity="0.1" d="M76.7578 89.2886H65.1763V100.879H76.7578V89.2886Z" fill="#98A1F0"/>
<path opacity="0.1" d="M76.7578 116.211H65.1763V127.801H76.7578V116.211Z" fill="#98A1F0"/>
<path opacity="0.1" d="M76.7578 143.133H65.1763V154.724H76.7578V143.133Z" fill="#98A1F0"/>
<path opacity="0.1" d="M76.7578 170.051H65.1763V181.642H76.7578V170.051Z" fill="#98A1F0"/>
<path opacity="0.1" d="M76.7578 196.974H65.1763V208.564H76.7578V196.974Z" fill="#98A1F0"/>
<path opacity="0.1" d="M76.7578 223.896H65.1763V235.486H76.7578V223.896Z" fill="#98A1F0"/>
<path opacity="0.1" d="M371.731 143.292H360.15V154.883H371.731V143.292Z" fill="#98A1F0"/>
<path opacity="0.1" d="M327.519 171.881H315.938V183.472H327.519V171.881Z" fill="#98A1F0"/>
<path opacity="0.1" d="M371.731 171.881H360.15V183.472H371.731V171.881Z" fill="#98A1F0"/>
<path opacity="0.1" d="M327.519 200.466H315.938V212.057H327.519V200.466Z" fill="#98A1F0"/>
<path opacity="0.1" d="M371.731 200.466H360.15V212.057H371.731V200.466Z" fill="#98A1F0"/>
<path opacity="0.1" d="M327.519 229.055H315.938V240.646H327.519V229.055Z" fill="#98A1F0"/>
<path opacity="0.1" d="M371.731 229.055H360.15V240.646H371.731V229.055Z" fill="#98A1F0"/>
<path opacity="0.1" d="M327.519 257.644H315.938V269.235H327.519V257.644Z" fill="#98A1F0"/>
<path opacity="0.1" d="M371.731 257.644H360.15V269.235H371.731V257.644Z" fill="#98A1F0"/>
<path opacity="0.1" d="M315.938 293.704V286.229H327.515V292.64L315.938 293.704Z" fill="#98A1F0"/>
<path opacity="0.1" d="M7.33008 121.599V128.229H46.9653V121.599H7.33008ZM11.2802 127.814H8.0468V122.006H11.3046L11.2802 127.814ZM15.2262 127.814H11.9684V122.006H15.2262V127.814ZM19.164 127.814H15.9062V122.006H19.164V127.814ZM23.11 127.814H19.8563V122.006H23.1141L23.11 127.814ZM27.052 127.814H23.7942V122.006H27.052V127.814ZM30.998 127.814H27.7402V122.006H30.998V127.814ZM34.944 127.814H31.6862V122.006H34.944V127.814ZM38.8859 127.814H35.6281V122.006H38.8859V127.814ZM42.8279 127.814H39.5701V122.006H42.8279V127.814ZM46.7698 127.814H43.512V122.006H46.7698V127.814Z" fill="#98A1F0"/>
<path opacity="0.1" d="M7.33008 140.892V147.522H46.9653V140.892H7.33008ZM11.2802 147.103H8.0468V141.311H11.3046L11.2802 147.103ZM15.2262 147.103H11.9684V141.311H15.2262V147.103ZM19.164 147.103H15.9062V141.311H19.164V147.103ZM23.11 147.103H19.8563V141.311H23.1141L23.11 147.103ZM27.052 147.103H23.7942V141.311H27.052V147.103ZM30.998 147.103H27.7402V141.311H30.998V147.103ZM34.944 147.103H31.6862V141.311H34.944V147.103ZM38.8859 147.103H35.6281V141.311H38.8859V147.103ZM42.8279 147.103H39.5701V141.311H42.8279V147.103ZM46.7698 147.103H43.512V141.311H46.7698V147.103Z" fill="#98A1F0"/>
<path opacity="0.1" d="M7.33008 160.193V166.836H46.9653V160.193H7.33008ZM11.2802 166.404H8.0468V160.609H11.3046L11.2802 166.404ZM15.2262 166.404H11.9684V160.609H15.2262V166.404ZM19.164 166.404H15.9062V160.609H19.164V166.404ZM23.11 166.404H19.8563V160.609H23.1141L23.11 166.404ZM27.052 166.404H23.7942V160.609H27.052V166.404ZM30.998 166.404H27.7402V160.609H30.998V166.404ZM34.944 166.404H31.6862V160.609H34.944V166.404ZM38.8859 166.404H35.6281V160.609H38.8859V166.404ZM42.8279 166.404H39.5701V160.609H42.8279V166.404ZM46.7698 166.404H43.512V160.609H46.7698V166.404Z" fill="#98A1F0"/>
<path opacity="0.1" d="M7.33008 179.494V186.117H46.9653V179.494H7.33008ZM11.2802 185.705H8.0468V179.906H11.3046L11.2802 185.705ZM15.2262 185.705H11.9684V179.906H15.2262V185.705ZM19.164 185.705H15.9062V179.906H19.164V185.705ZM23.11 185.705H19.8563V179.906H23.1141L23.11 185.705ZM27.052 185.705H23.7942V179.906H27.052V185.705ZM30.998 185.705H27.7402V179.906H30.998V185.705ZM34.944 185.705H31.6862V179.906H34.944V185.705ZM38.8859 185.705H35.6281V179.906H38.8859V185.705ZM42.8279 185.705H39.5701V179.906H42.8279V185.705ZM46.7698 185.705H43.512V179.906H46.7698V185.705Z" fill="#98A1F0"/>
<path opacity="0.1" d="M7.50098 198.791C7.65979 199.415 7.83897 200.038 8.02629 200.654V199.207H11.2841V205.002H9.54117C9.59411 205.137 9.64705 205.283 9.69999 205.41H46.9652V198.791H7.50098ZM15.2383 205.002H11.9805V199.207H15.2383V205.002ZM19.1761 205.002H15.9183V199.207H19.1761V205.002ZM23.1221 205.002H19.8562V199.207H23.114L23.1221 205.002ZM27.0641 205.002H23.8063V199.207H27.0641V205.002ZM31.0101 205.002H27.7523V199.207H31.0101V205.002ZM34.9561 205.002H31.6983V199.207H34.9561V205.002ZM38.898 205.002H35.6402V199.207H38.898V205.002ZM42.84 205.002H39.5822V199.207H42.84V205.002ZM46.7819 205.002H43.5241V199.207H46.7819V205.002Z" fill="#98A1F0"/>
<path opacity="0.1" d="M16.7046 218.092C16.8064 218.223 16.9041 218.37 17.01 218.5H19.1642V221.283C19.3963 221.561 19.6244 221.838 19.8606 222.099V218.484H23.1184V224.299H21.799C21.9293 224.434 22.0555 224.576 22.2062 224.707H46.9777V218.092H16.7046ZM27.0522 224.299H23.7944V218.508H27.0522V224.299ZM30.9982 224.299H27.7404V218.508H30.9982V224.299ZM34.9442 224.299H31.6864V218.508H34.9442V224.299ZM38.8861 224.299H35.6283V218.508H38.8861V224.299ZM42.8281 224.299H39.5703V218.508H42.8281V224.299ZM46.77 224.299H43.5122V218.508H46.77V224.299Z" fill="#98A1F0"/>
<path opacity="0.1" d="M38.4463 237.39C38.8169 237.602 39.1956 237.797 39.5784 238.009V237.805H42.8362V239.639L43.5285 239.961V237.805H46.7863V241.331C46.8487 241.362 46.9142 241.386 46.9817 241.404V237.39H38.4463Z" fill="#98A1F0"/>
<path opacity="0.1" d="M307.243 136.087H307.268H307.243ZM282.158 256.369H282.565H282.158ZM255.986 195.168C256.063 195.429 256.128 195.69 256.202 195.947C256.136 195.69 256.067 195.429 255.986 195.168ZM307.243 136.074H307.268H307.243ZM61.2793 75.049V76.7892H79.47V75.049H61.2793ZM282.158 256.369H282.565H282.158ZM255.986 195.168C256.063 195.429 256.128 195.69 256.202 195.947C256.136 195.69 256.067 195.429 255.986 195.168ZM307.243 136.074H307.268H307.243ZM282.158 256.357H282.565H282.158ZM255.986 195.168C256.063 195.429 256.128 195.69 256.202 195.947C256.136 195.69 256.067 195.429 255.986 195.168Z" fill="#98A1F0"/>
<path d="M187.975 154.732C187.975 154.732 186.371 154.508 186.371 152.168C186.371 149.829 185.222 145.46 185.222 145.46C185.222 145.44 184.229 137.851 182.856 136.645C181.484 135.439 179.721 128.356 179.721 128.356C179.721 128.356 179.419 124.513 178.804 123.685C178.189 122.858 177.359 120.832 176.133 117.943C174.907 115.053 169.796 113.052 169.796 113.052C169.796 113.052 160.557 107.689 157.938 105.941C157.7 105.797 157.478 105.629 157.274 105.44C156.818 104.84 154.831 104.828 154.831 104.828C154.623 103.516 154.424 102.008 154.359 100.643C154.359 100.496 154.359 100.349 154.338 100.203C157.258 98.4753 159.457 95.752 160.532 92.5326C160.581 92.3778 160.622 92.2147 160.667 92.0599C160.841 92.0022 161.002 91.9086 161.139 91.7851C161.276 91.6616 161.385 91.5109 161.461 91.3426C161.697 90.8169 161.701 90.2015 161.994 89.7124C162.336 89.1337 162.988 88.824 163.501 88.3879C164.796 87.2876 165.13 85.4332 165.069 83.746C165.028 82.3807 164.808 81.0032 164.894 79.6461L164.918 79.3038C164.942 79.1 164.971 78.8963 165.008 78.7006C165.207 77.6899 165.643 76.7363 165.887 75.7337C166.131 74.7312 166.156 73.6023 165.586 72.7383C164.751 71.4708 163.012 71.2181 161.485 71.0877C159.754 70.941 158.207 71.1326 157.099 69.6939C156.581 68.942 155.998 68.237 155.356 67.5869C155.128 67.375 152.913 66.022 152.913 65.9323C150.751 64.9301 148.3 64.742 146.01 65.4025C144.862 65.7367 143.779 66.2828 142.614 66.5559C140.102 67.1509 137.21 66.507 135.076 67.9456C133.887 68.7607 133.175 70.0567 132.507 71.32C131.964 72.3606 131.413 73.3999 130.854 74.4377C129.954 76.1453 129.037 77.8815 128.659 79.7725C128.579 80.184 128.53 80.6008 128.512 81.0195V81.0399C128.512 81.1907 128.512 81.3415 128.512 81.4923V81.6838C128.512 81.8265 128.512 81.965 128.536 82.0914C128.561 82.2177 128.557 82.2585 128.569 82.3441C128.581 82.4296 128.602 82.6212 128.626 82.7516C128.65 82.882 128.699 83.1102 128.748 83.2896C128.769 83.367 128.797 83.4403 128.821 83.5137C128.862 83.6523 128.911 83.7868 128.964 83.9212C128.993 83.9905 129.021 84.0639 129.054 84.1332C129.115 84.2758 129.188 84.4144 129.261 84.5407C129.294 84.5978 129.318 84.6508 129.351 84.7037C129.465 84.8933 129.59 85.0756 129.726 85.2498C130.597 86.338 131.88 87.0308 132.829 88.0497C132.829 88.0904 132.829 88.1312 132.829 88.1679C132.829 88.282 132.829 88.392 132.829 88.5061C132.879 90.7784 133.483 93.0039 134.589 94.9891C135.695 96.9744 137.268 98.6592 139.173 99.8969C139.173 100.052 139.194 100.211 139.202 100.366C139.281 101.575 139.266 102.789 139.157 103.997C138.991 103.801 138.783 103.646 138.549 103.541C138.315 103.437 138.061 103.386 137.805 103.394C137.63 103.385 137.455 103.4 137.284 103.438L137.247 103.41V103.447C136.351 103.667 135.248 104.6 134.193 107.253C134.193 107.253 130.984 110.872 128.541 110.721C126.097 110.57 119.911 114.487 119.911 114.487C119.911 114.487 113.876 118.408 112.581 122.401C111.858 124.666 110.99 126.882 109.983 129.036L102.523 144.421L101.146 156.627C101.146 156.627 101.908 162.055 101.757 162.883C101.607 163.71 104.889 171.172 104.889 171.172C104.889 171.172 115.733 190.241 120.164 191.219L120.482 190.995C120.671 191.094 120.872 191.169 121.08 191.219L121.992 190.575C122.047 191.293 122.024 192.014 121.923 192.727C121.312 194.61 122.151 206.897 123.218 209.306C124.285 211.714 123.906 243.295 123.906 243.295L123.756 246.083C123.756 246.083 123.756 246.172 123.792 246.327L123.756 246.987L123.866 247.044C123.98 247.929 123.943 248.826 123.756 249.697C123.373 250.92 123.218 254.376 123.218 254.376C123.218 254.376 120.168 273.889 121.614 277.81C123.059 281.73 124.289 286.026 124.289 286.026C124.289 286.026 125.816 290.916 124.362 291.752C122.909 292.587 118.775 293.989 119.626 296.027C120.4 297.91 123.336 302.955 123.772 303.693L123.735 304.08L123.137 310.572C123.234 311.429 123.466 312.266 123.825 313.05C124.48 314.464 125.755 315.931 128.178 315.772C128.585 315.744 129.058 315.695 129.514 315.634C133.948 315.039 139.409 313.058 139.409 313.058C139.126 312.878 138.866 312.663 138.636 312.418C138.418 312.207 138.245 311.953 138.128 311.673C138.011 311.393 137.952 311.092 137.956 310.788C138.021 309.606 135.809 303.974 135.26 302.588C135.174 302.389 135.129 302.275 135.129 302.275C135.129 302.275 140.171 297.001 139.332 292.326C139.332 292.326 133.753 289.066 135.59 287.277C137.426 285.488 140.708 280.349 140.708 280.349C140.708 280.349 140.859 261.133 140.708 258.264C140.551 256.273 140.646 254.269 140.989 252.302C141.05 252.004 141.124 251.715 141.201 251.429C143.741 251.809 146.305 252.004 148.873 252.012C149.81 252.012 150.763 252.012 151.724 251.955C151.724 252.227 151.736 252.52 151.76 252.836C151.972 257.596 152.367 265.942 152.689 269.043C153.145 273.49 155.666 285.472 155.666 285.472C155.666 285.472 150.856 288.561 156.505 296.174C156.505 296.174 156.505 298.933 156.13 299.332C155.73 300.638 155.408 301.966 155.165 303.31C154.929 304.744 154.831 306.195 155.214 306.949C156.13 308.75 161.628 308.604 161.628 308.604L161.762 308.579C162.8 308.472 163.849 308.572 164.848 308.873C165.847 309.175 166.776 309.672 167.581 310.336C169.67 312.015 177.599 311.277 181.891 310.743C183.573 310.531 184.697 310.336 184.697 310.336C184.751 310.145 184.771 309.946 184.754 309.749C184.709 308.693 183.882 306.379 178.279 304.312C178.279 304.312 173.009 300.767 173.083 297.677H172.973H172.362C172.806 297.653 173.091 297.677 173.091 297.677C173.091 297.677 171.026 290.138 171.869 289.527C172.712 288.915 170.187 280.561 170.187 280.561C170.187 280.561 168.742 266.541 168.664 265.559C168.668 264.716 168.795 263.878 169.043 263.073L168.664 255.387C168.664 255.387 168.591 252.831 168.664 252C168.652 251.278 168.594 250.558 168.489 249.844C168.453 249.559 168.416 249.261 168.375 248.968C170.35 248.467 171.633 248.002 171.633 248.002L171.405 221.247C173.083 217.987 173.392 210.834 173.384 205.76C173.384 202.5 173.238 200.087 173.238 200.087L175.53 196.342C175.53 196.342 176.06 191.859 175.221 190.877C174.85 190.433 175.017 189.972 175.323 189.593C175.481 189.467 175.649 189.353 175.823 189.251C175.823 189.251 175.799 189.214 175.77 189.161C175.931 189.027 176.101 188.906 176.28 188.798C176.28 188.798 175.465 187.535 176.194 187.001C176.878 187.466 177.489 187.816 177.953 188.101C177.921 188.399 177.888 188.57 177.888 188.57L178.084 188.163C178.531 188.415 178.804 188.57 178.804 188.57C178.804 188.57 182.396 181.41 182.319 180.354C182.241 179.298 184.762 174.852 184.762 174.852C184.762 174.852 185.067 172.517 186.444 171.539C187.82 170.561 187.511 163.474 187.511 163.474C187.511 163.474 187.894 159.781 188.81 158.273C189.726 156.765 187.975 154.732 187.975 154.732ZM119.252 151.59L119.321 153.297C118.914 152.641 118.621 152.168 118.621 152.168L119.252 151.59Z" fill="url(#paint0_linear)"/>
<path d="M179 185.477L178.12 189.226C178.12 189.226 171.075 185.628 169.805 181.055C168.534 176.482 171.93 174.746 171.93 174.746L178.495 177.53L179 185.477Z" fill="white"/>
<path opacity="0.1" d="M179 185.477L178.12 189.226C178.12 189.226 171.075 185.628 169.805 181.055C168.534 176.482 171.93 174.746 171.93 174.746L178.495 177.53L179 185.477Z" fill="black"/>
<path d="M139.462 313.083C139.462 313.083 132.947 315.479 128.467 315.78C126.089 315.939 124.839 314.48 124.195 313.074C123.844 312.293 123.617 311.461 123.523 310.609L124.106 304.149L124.415 300.71L133.932 298.236L135.28 302.36L135.406 302.674C135.948 304.051 138.118 309.655 138.053 310.825C138.051 311.124 138.108 311.421 138.223 311.698C138.338 311.974 138.507 312.225 138.721 312.435C138.94 312.681 139.189 312.899 139.462 313.083Z" fill="white"/>
<path d="M183.968 309.798C183.984 309.994 183.965 310.191 183.911 310.38C183.911 310.38 169.976 312.708 167.125 310.38C166.322 309.701 165.385 309.196 164.375 308.9C163.365 308.604 162.304 308.522 161.261 308.661C161.261 308.661 155.87 308.807 154.97 307.03C154.595 306.285 154.693 304.838 154.925 303.411C155.162 302.075 155.477 300.754 155.87 299.454L156.085 299.283L157.368 298.252L172.387 297.808H172.501C172.427 300.881 177.599 304.406 177.599 304.406C183.093 306.444 183.903 308.746 183.968 309.798Z" fill="white"/>
<path opacity="0.1" d="M183.968 309.798C183.982 309.994 183.961 310.191 183.907 310.38C183.907 310.38 169.976 312.708 167.125 310.38C166.322 309.701 165.386 309.197 164.377 308.901C163.367 308.605 162.308 308.523 161.265 308.661C161.265 308.661 155.869 308.807 154.973 307.03C154.599 306.281 154.692 304.838 154.925 303.411C157.001 303.619 160.28 304.137 161.566 305.372C163.513 307.251 166.811 309.125 168.835 309.272C170.42 309.374 179.896 309.675 183.968 309.798Z" fill="black"/>
<path opacity="0.1" d="M139.462 313.082C139.462 313.082 132.947 315.479 128.467 315.78C126.089 315.939 124.839 314.48 124.2 313.07C125.857 313.629 128.158 314.215 129.367 313.677C130.801 313.042 135.883 312.63 138.734 312.455C138.951 312.693 139.195 312.903 139.462 313.082Z" fill="black"/>
<path d="M149.13 119.968C143.754 117.878 136.84 110.97 138.566 107.742C138.95 106.928 139.178 106.048 139.238 105.15C139.349 103.931 139.366 102.704 139.287 101.482C139.166 99.4808 138.925 97.4884 138.566 95.5157C138.566 95.5157 155.348 95.8948 154.371 98.3685C154.086 99.094 154.041 100.353 154.118 101.763C154.196 103.173 154.399 104.767 154.611 106.116C154.904 107.966 155.197 109.376 155.197 109.376C155.197 109.376 154.171 110.815 153.568 110.892C152.966 110.97 156.843 122.947 149.13 119.968Z" fill="#CF6F80"/>
<path opacity="0.1" d="M135.394 302.674L135.268 302.812C130.251 296.74 124.183 304.308 124.183 304.308L124.094 304.149L124.403 300.71L133.92 298.236L135.268 302.36L135.394 302.674Z" fill="black"/>
<path opacity="0.1" d="M172.505 298.236C172.505 298.236 168.839 298.158 166.885 299.886C164.93 301.614 155.483 300.261 155.89 299.886C156.01 299.7 156.083 299.488 156.101 299.267L157.384 298.236L172.403 297.792C172.46 298.065 172.505 298.236 172.505 298.236Z" fill="black"/>
<path d="M141.637 250.549C141.364 251.224 141.157 251.925 141.018 252.64C140.678 254.598 140.584 256.592 140.737 258.574C140.888 261.426 140.737 280.544 140.737 280.544C140.737 280.544 137.516 285.643 135.72 287.44C133.924 289.237 139.385 292.465 139.385 292.465C140.199 297.111 135.264 302.36 135.264 302.36C130.247 296.288 124.179 303.86 124.179 303.86C124.179 303.86 120.881 298.154 120.058 296.116C119.235 294.079 123.279 292.669 124.7 291.841C126.122 291.014 124.631 286.136 124.631 286.136C124.631 286.136 123.43 281.861 122.005 277.96C120.579 274.06 123.576 254.645 123.576 254.645C123.576 254.645 123.731 251.197 124.102 249.995C124.289 249.127 124.326 248.234 124.212 247.354C124.187 247.056 124.159 246.808 124.138 246.641C124.118 246.474 124.102 246.396 124.102 246.396L124.159 246.298L126.195 242.5C126.195 242.5 142.614 248.157 141.637 250.549Z" fill="#98A1F0"/>
<path d="M172.505 297.787C172.505 297.787 168.84 297.71 166.885 299.418C164.93 301.125 155.483 299.793 155.89 299.418C156.297 299.043 156.265 296.267 156.265 296.267C150.722 288.695 155.45 285.622 155.45 285.622C155.45 285.622 152.974 273.702 152.526 269.28C152.213 266.191 151.826 257.889 151.618 253.149C151.529 251.112 151.476 249.71 151.476 249.71L156.004 248.797L156.586 248.679L167.508 246.486C167.508 246.486 167.809 248.524 168.013 250.191C168.114 250.902 168.172 251.619 168.184 252.338C168.111 253.153 168.184 255.705 168.184 255.705L168.555 263.354C168.312 264.157 168.188 264.99 168.184 265.828C168.257 266.802 169.679 280.748 169.679 280.748C169.679 280.748 172.15 289.07 171.307 289.669C170.464 290.268 172.505 297.787 172.505 297.787Z" fill="#98A1F0"/>
<path opacity="0.1" d="M154.371 98.3685C154.086 99.094 154.041 100.353 154.118 101.763C151.87 103.118 149.286 103.811 146.663 103.762C144.039 103.713 141.483 102.924 139.287 101.486C139.166 99.4835 138.926 97.4897 138.566 95.5157C138.566 95.5157 155.348 95.8866 154.371 98.3685Z" fill="black"/>
<path d="M160.858 89.3619C160.861 90.8305 160.63 92.2902 160.174 93.6859C159.154 96.8132 157.062 99.4789 154.267 101.212C151.473 102.945 148.157 103.633 144.904 103.156C141.652 102.678 138.673 101.066 136.494 98.6026C134.314 96.1396 133.075 92.9849 132.996 89.6961C132.996 89.5819 132.996 89.476 132.996 89.3619C132.964 87.5106 133.301 85.6717 133.987 83.9522C134.673 82.2327 135.694 80.6671 136.991 79.3467C138.288 78.0264 139.835 76.9777 141.541 76.2619C143.247 75.546 145.079 75.1774 146.929 75.1774C148.779 75.1774 150.61 75.546 152.317 76.2619C154.023 76.9777 155.57 78.0264 156.866 79.3467C158.163 80.6671 159.185 82.2327 159.871 83.9522C160.557 85.6717 160.894 87.5106 160.862 89.3619H160.858Z" fill="#CF6F80"/>
<path opacity="0.1" d="M149.13 119.968C143.754 117.878 136.84 110.97 138.566 107.742C138.95 106.928 139.178 106.049 139.238 105.15L146.597 111.202L151.15 114.939L154.611 106.12C154.904 107.97 155.197 109.38 155.197 109.38C155.197 109.38 154.171 110.819 153.568 110.896C152.966 110.974 156.843 122.948 149.13 119.968Z" fill="black"/>
<path d="M168.159 146.715L162.014 250.027L154 250.553L133.248 190.648L136.652 119.528L137.369 104.502L146.597 112.086L151.154 115.824L154.717 106.748L161.343 112.527L168.159 146.715Z" fill="#98A1F0"/>
<path opacity="0.1" d="M141.637 250.549C141.364 251.224 141.157 251.925 141.018 252.64C135.187 251.739 129.523 249.968 124.216 247.387L124.106 247.33L124.143 246.673L124.163 246.331L126.199 242.533C126.199 242.533 142.614 248.157 141.637 250.549Z" fill="black"/>
<path opacity="0.1" d="M156.098 252.656C154.607 252.91 153.103 253.081 151.594 253.17C151.504 251.132 151.451 249.73 151.451 249.73L155.979 248.817L156.098 252.656Z" fill="black"/>
<path opacity="0.1" d="M167.988 250.211C165.093 250.965 160.622 251.813 156.619 251.283L156.562 248.699L167.483 246.506C167.483 246.506 167.785 248.524 167.988 250.211Z" fill="black"/>
<path opacity="0.1" d="M156.545 251.755C139.849 254.608 124.558 246.429 124.558 246.429L124.705 243.658C124.705 243.658 125.083 212.24 124.033 209.832C122.982 207.423 122.163 195.209 122.758 193.334C123.353 191.46 120.587 163.347 120.587 163.347L120.14 151.936L103.745 145.289L111.075 129.998C112.065 127.854 112.916 125.649 113.624 123.396C114.899 119.426 120.816 115.526 120.816 115.526C120.816 115.526 126.883 111.63 129.282 111.777C131.68 111.923 134.824 108.329 134.824 108.329C137.145 102.407 139.247 105.089 139.247 105.089C139.247 105.37 139.247 105.089 139.132 105.965C138.318 112.466 152.302 133.006 152.502 133.368L153.833 165.833L155.181 206.918L156.545 251.755Z" fill="black"/>
<path d="M156.098 251.755C139.401 254.608 124.106 246.429 124.106 246.429L124.257 243.658C124.257 243.658 124.635 212.24 123.581 209.832C122.526 207.423 121.712 195.209 122.31 193.334C122.909 191.46 120.14 163.347 120.14 163.347L119.688 151.936L103.285 145.265L110.615 129.974C111.603 127.829 112.454 125.624 113.164 123.371C114.434 119.402 120.356 115.502 120.356 115.502C120.356 115.502 126.423 111.606 128.818 111.752C131.212 111.899 134.36 108.305 134.36 108.305C136.685 102.383 139.247 105.065 139.247 105.065C139.247 105.346 139.002 105.472 139.133 105.941C140.924 112.245 151.854 132.981 152.054 133.344L153.402 165.809L154.75 206.893L156.098 251.755Z" fill="white"/>
<path opacity="0.1" d="M151.598 134.269C149.802 133.519 140.289 122.65 140.289 122.65V120.176C139.943 119.361 137.886 119.858 136.217 120.429L136.934 105.403L137.748 106.079C139.532 112.38 151.39 133.906 151.598 134.269Z" fill="black"/>
<path d="M152.05 133.368C150.25 132.618 140.737 121.749 140.737 121.749V119.276C140.391 118.46 138.334 118.958 136.665 119.528L137.385 104.502L138.2 105.179C139.988 111.479 151.85 133.01 152.05 133.368Z" fill="white"/>
<path opacity="0.1" d="M124.558 187.576C124.782 187.576 136.168 186.377 136.168 186.377C136.168 186.377 143.062 199.945 142.61 203.246C142.158 206.547 141.34 209.469 138.566 208.951C135.793 208.434 123.642 209.359 123.642 209.359L124.558 187.576Z" fill="black"/>
<path d="M124.106 186.675C124.33 186.675 135.716 185.477 135.716 185.477C135.716 185.477 142.606 199.048 142.158 202.345C141.71 205.642 140.883 208.568 138.114 208.051C135.345 207.533 123.189 208.458 123.189 208.458L124.106 186.675Z" fill="white"/>
<path d="M132.686 180.305C132.686 180.305 143.135 185.925 143.359 187.641C143.583 189.357 138.041 186.891 136.844 186.593C136.056 186.403 135.254 186.278 134.445 186.218L126.459 186.435L132.686 180.305Z" fill="#CF6F80"/>
<path opacity="0.1" d="M148.682 134.97C149.289 134.97 149.782 134.477 149.782 133.87C149.782 133.262 149.289 132.769 148.682 132.769C148.075 132.769 147.583 133.262 147.583 133.87C147.583 134.477 148.075 134.97 148.682 134.97Z" fill="black"/>
<path d="M148.682 134.522C149.289 134.522 149.782 134.029 149.782 133.421C149.782 132.814 149.289 132.321 148.682 132.321C148.075 132.321 147.583 132.814 147.583 133.421C147.583 134.029 148.075 134.522 148.682 134.522Z" fill="#3F3D56"/>
<path opacity="0.1" d="M150.706 182.604C151.313 182.604 151.805 182.111 151.805 181.503C151.805 180.895 151.313 180.403 150.706 180.403C150.099 180.403 149.606 180.895 149.606 181.503C149.606 182.111 150.099 182.604 150.706 182.604Z" fill="black"/>
<path d="M150.706 182.151C151.313 182.151 151.805 181.659 151.805 181.051C151.805 180.443 151.313 179.95 150.706 179.95C150.099 179.95 149.606 180.443 149.606 181.051C149.606 181.659 150.099 182.151 150.706 182.151Z" fill="#3F3D56"/>
<path opacity="0.1" d="M149.777 158.787C150.384 158.787 150.877 158.294 150.877 157.686C150.877 157.079 150.384 156.586 149.777 156.586C149.17 156.586 148.678 157.079 148.678 157.686C148.678 158.294 149.17 158.787 149.777 158.787Z" fill="black"/>
<path d="M149.777 158.339C150.384 158.339 150.877 157.846 150.877 157.238C150.877 156.63 150.384 156.138 149.777 156.138C149.17 156.138 148.678 156.63 148.678 157.238C148.678 157.846 149.17 158.339 149.777 158.339Z" fill="#3F3D56"/>
<path d="M175.123 185.99C175.123 185.99 175.872 187.115 175.123 187.641C174.374 188.167 175.196 189.438 175.196 189.438C175.196 189.438 173.327 190.534 174.15 191.521C174.972 192.507 174.451 196.961 174.451 196.961L172.203 200.686C172.203 200.686 172.338 203.087 172.346 206.331C172.346 211.392 172.048 218.508 170.403 221.752L170.631 248.369C170.631 248.369 162.76 251.246 156.171 250.37L155.193 207.659C155.193 207.659 156.619 183.439 157.144 178.793C157.451 176.381 157.577 173.949 157.519 171.518C157.519 171.518 157.295 164.248 156.541 160.873C156.541 160.873 155.727 146.255 155.645 142.208C155.609 140.272 155.711 134.624 155.825 129.252C155.951 123.379 156.093 117.841 156.093 117.841L154.607 106.071C154.607 106.071 156.093 105.92 156.541 106.519C156.742 106.707 156.96 106.875 157.193 107.021C159.758 108.757 168.823 114.096 168.823 114.096C168.823 114.096 173.84 116.093 175.041 118.954C176.243 121.814 177.078 123.844 177.66 124.659C178.242 125.474 178.56 129.305 178.56 129.305C178.56 129.305 180.287 136.356 181.634 137.55C182.982 138.744 183.968 146.34 183.968 146.34L172.057 155.714C172.057 155.714 171.01 171.306 170.786 171.91C170.562 172.513 175.123 185.99 175.123 185.99Z" fill="white"/>
<path d="M175.575 185.99C175.575 185.99 176.32 187.115 175.575 187.641C174.83 188.167 175.644 189.438 175.644 189.438C175.644 189.438 173.787 190.547 174.602 191.533C175.416 192.519 174.903 196.974 174.903 196.974L172.655 200.698C172.655 200.698 172.79 203.099 172.802 206.343C172.802 211.405 172.505 218.52 170.859 221.764L171.083 248.381C171.083 248.381 163.2 251.258 156.619 250.382L155.646 207.672C155.646 207.672 157.071 183.451 157.596 178.805C157.904 176.393 158.028 173.961 157.967 171.531C157.967 171.531 157.743 164.26 156.993 160.886C156.993 160.886 156.179 146.267 156.093 142.22C156.057 140.284 156.163 134.636 156.273 129.264C156.399 123.392 156.541 117.853 156.541 117.853L154.579 105.924C154.579 105.924 156.541 105.924 156.993 106.532C157.192 106.721 157.411 106.89 157.645 107.033C160.211 108.769 169.279 114.108 169.279 114.108C169.279 114.108 174.292 116.105 175.494 118.966C176.695 121.827 177.53 123.856 178.116 124.671C178.703 125.486 179.012 129.317 179.012 129.317C179.012 129.317 180.739 136.368 182.087 137.562C183.435 138.756 184.408 146.336 184.408 146.336L172.497 155.71C172.497 155.71 171.45 171.302 171.222 171.906C170.994 172.509 175.575 185.99 175.575 185.99Z" fill="white"/>
<path opacity="0.1" d="M161.31 121.313L162.385 124.451L156.725 130.157C156.851 124.288 156.994 118.746 156.994 118.746L155.031 106.817C155.031 106.817 156.994 106.817 157.446 107.424C157.644 107.613 157.862 107.78 158.097 107.921L162.911 121.819L161.31 121.313Z" fill="black"/>
<path d="M160.858 120.413L161.937 123.551L156.277 129.256C156.403 123.384 156.546 117.845 156.546 117.845L154.579 105.916C154.579 105.916 156.546 105.916 156.993 106.524C157.193 106.712 157.411 106.88 157.645 107.025L162.462 120.918L160.858 120.413Z" fill="white"/>
<path opacity="0.1" d="M160.858 89.3619C160.861 90.8305 160.63 92.2902 160.174 93.6859C160.097 93.6979 160.018 93.6944 159.943 93.6755C159.867 93.6566 159.796 93.6227 159.734 93.5759C159.628 89.908 157.824 86.4642 155.605 83.534C154.982 82.6493 154.226 81.8658 153.365 81.211C152.494 80.5566 151.411 80.25 150.327 80.3511C149.106 80.5182 148.026 81.3496 146.792 81.4555C145.164 81.59 143.706 80.4611 142.089 80.4041C141.432 80.4103 140.783 80.5568 140.187 80.8337C139.591 81.1106 139.061 81.5115 138.632 82.0098C137.782 83.0153 137.151 84.1867 136.779 85.4495C136.139 87.3643 135.79 89.3646 135.744 91.3833C135.724 92.5244 135.614 93.9549 134.555 94.3706C134.635 93.5314 134.54 92.6847 134.275 91.8843C134.011 91.0838 133.584 90.347 133.02 89.7205L132.996 89.6961C132.996 89.5819 132.996 89.476 132.996 89.3619C132.964 87.5107 133.301 85.6717 133.987 83.9522C134.673 82.2327 135.694 80.6671 136.991 79.3467C138.288 78.0264 139.835 76.9777 141.541 76.2619C143.247 75.546 145.079 75.1774 146.929 75.1774C148.779 75.1774 150.61 75.546 152.317 76.2619C154.023 76.9777 155.57 78.0264 156.866 79.3467C158.163 80.6671 159.185 82.2327 159.871 83.9522C160.557 85.6717 160.894 87.5107 160.862 89.3619H160.858Z" fill="black"/>
<path d="M152.697 67.2201C150.581 66.224 148.174 66.0356 145.929 66.6903C144.801 67.0245 143.738 67.5666 142.594 67.8396C140.151 68.4305 137.3 67.7907 135.203 69.2212C134.038 70.0363 133.338 71.3241 132.686 72.5753L131.057 75.6807C130.17 77.3802 129.274 79.1082 128.903 80.9788C128.533 82.8494 128.757 84.9442 129.942 86.448C130.805 87.5443 132.08 88.233 133.016 89.2641C133.577 89.8913 134.003 90.6277 134.266 91.4271C134.53 92.2266 134.626 93.0719 134.547 93.9101C135.61 93.5026 135.712 92.068 135.736 90.9269C135.782 88.9082 136.131 86.9079 136.771 84.9931C137.142 83.73 137.774 82.5584 138.624 81.5534C139.053 81.0555 139.583 80.6549 140.18 80.378C140.776 80.1012 141.424 79.9545 142.081 79.9477C143.71 80.0048 145.172 81.1296 146.784 80.9951C148.006 80.8932 149.089 80.0577 150.319 79.8947C151.404 79.792 152.487 80.0988 153.357 80.7546C154.218 81.4084 154.972 82.1921 155.593 83.0776C157.816 86.0079 159.62 89.4434 159.726 93.1195C160.186 93.4577 160.85 93.0176 161.078 92.4959C161.306 91.9743 161.314 91.363 161.603 90.8658C161.937 90.2911 162.577 89.9855 163.078 89.5535C164.348 88.4572 164.666 86.611 164.617 84.936C164.568 83.261 164.242 81.5616 164.56 79.9151C164.751 78.9044 165.183 77.9589 165.419 76.9604C165.655 75.9619 165.684 74.8412 165.126 73.9813C164.311 72.7179 162.597 72.4693 161.103 72.3511C159.404 72.2044 157.885 72.3919 156.802 70.9614C156.294 70.2149 155.721 69.514 155.092 68.8666C154.876 68.6547 152.697 67.3098 152.697 67.2201Z" fill="#512E4E"/>
<path opacity="0.1" d="M108.436 153.163L104.18 145.289L102.833 157.438C102.833 157.438 103.582 162.834 103.431 163.661C103.28 164.488 106.502 171.906 106.502 171.906C106.502 171.906 117.142 190.873 121.487 191.851L136.168 181.352L132.275 176.405C132.275 176.405 130.927 175.879 130.589 176.405C130.589 176.405 123.361 163.958 122.611 163.058C121.862 162.157 122.009 160.36 122.009 160.36C122.009 160.36 120.885 159.162 121.259 158.037C121.634 156.912 119.089 153.012 119.089 153.012L121.41 150.84L108.436 153.163Z" fill="black"/>
<path d="M104.404 144.392L103.281 145.289L101.933 157.438C101.933 157.438 102.682 162.834 102.531 163.661C102.381 164.488 105.606 171.906 105.606 171.906C105.606 171.906 116.243 190.873 120.588 191.851L135.272 181.352L131.375 176.405C131.375 176.405 130.027 175.879 129.689 176.405C129.689 176.405 122.461 163.958 121.712 163.058C120.962 162.157 121.113 160.36 121.113 160.36C121.113 160.36 119.989 159.162 120.364 158.037C120.738 156.912 118.189 153.012 118.189 153.012L120.51 150.84L104.404 144.392Z" fill="white"/>
<path opacity="0.1" d="M174.15 191.985C174.964 192.976 174.451 197.422 174.451 197.422L172.203 201.147C172.203 201.147 172.337 203.551 172.346 206.791L168.567 207.973C168.225 208.08 167.863 208.103 167.51 208.042C167.158 207.98 166.825 207.835 166.541 207.618C166.256 207.401 166.027 207.12 165.872 206.797C165.718 206.473 165.644 206.118 165.655 205.76L166.306 184.727L175.123 188.101C174.374 188.623 175.196 189.903 175.196 189.903C175.196 189.903 173.327 190.995 174.15 191.985Z" fill="black"/>
<path d="M174.602 191.533C175.416 192.523 174.903 196.974 174.903 196.974L172.655 200.698C172.655 200.698 172.79 203.099 172.802 206.343L168.954 207.545C168.619 207.649 168.265 207.672 167.92 207.611C167.575 207.55 167.249 207.408 166.97 207.196C166.692 206.984 166.467 206.708 166.317 206.392C166.166 206.075 166.092 205.727 166.103 205.377L166.759 184.279L175.579 187.653C174.826 188.175 175.648 189.45 175.648 189.45C175.648 189.45 173.787 190.547 174.602 191.533Z" fill="white"/>
<path d="M177.521 181.507C177.521 181.507 176.923 185.334 175.424 185.558C173.926 185.782 173.254 191.749 171.759 191.537C170.265 191.325 171.254 185.99 171.307 184.955C171.36 183.92 169.678 179.633 170.937 178.659C172.195 177.685 176.178 178.659 176.178 178.659L177.521 181.507Z" fill="#CF6F80"/>
<path opacity="0.1" d="M180.71 152.038L183.537 146.332C183.537 146.332 184.66 150.681 184.66 153.004C184.66 155.327 186.232 155.555 186.232 155.555C186.232 155.555 187.955 157.593 187.047 159.076C186.139 160.56 185.772 164.252 185.772 164.252C185.772 164.252 186.069 171.298 184.722 172.272C183.374 173.246 183.093 175.573 183.093 175.573C183.093 175.573 180.617 179.995 180.694 181.047C180.771 182.098 177.249 189.218 177.249 189.218C177.249 189.218 178.972 180.37 168.933 176.547C168.933 176.547 168.856 173.544 169.605 172.721C170.355 171.897 171.523 171.523 170.79 167.361C170.057 163.2 170.579 158.228 170.579 157.23C170.579 156.231 172.827 150.004 172.827 150.004L180.71 152.038Z" fill="black"/>
<path d="M181.932 145.517L184.399 146.332C184.399 146.332 185.527 150.681 185.527 153.004C185.527 155.327 187.099 155.555 187.099 155.555C187.099 155.555 188.822 157.593 187.914 159.076C187.006 160.56 186.643 164.252 186.643 164.252C186.643 164.252 186.941 171.298 185.593 172.272C184.245 173.246 183.943 175.573 183.943 175.573C183.943 175.573 181.472 179.995 181.549 181.047C181.626 182.098 178.1 189.218 178.1 189.218C178.1 189.218 179.826 180.37 169.784 176.548C169.784 176.548 169.711 173.544 170.46 172.721C171.209 171.897 172.378 171.523 171.645 167.362C170.912 163.2 171.433 158.228 171.433 157.23C171.433 156.232 173.681 150.004 173.681 150.004L181.932 145.517Z" fill="white"/>
<path opacity="0.1" d="M127.425 293.402C127.425 293.402 131.359 290.928 133.94 292.726C136.522 294.523 127.425 293.402 127.425 293.402Z" fill="black"/>
<path opacity="0.1" d="M157.991 285.753C157.991 285.753 161.473 285.304 164.397 288.455C167.321 291.605 157.991 285.753 157.991 285.753Z" fill="black"/>
<g opacity="0.1">
<path opacity="0.1" d="M163.086 88.661C162.585 89.093 161.941 89.4027 161.607 89.9774C161.322 90.4705 161.314 91.0777 161.086 91.6075C160.858 92.1374 160.194 92.5694 159.734 92.2352C159.628 88.5673 157.82 85.1235 155.601 82.1892C154.98 81.3037 154.226 80.52 153.365 79.8662C152.493 79.2104 151.409 78.9038 150.323 79.0063C149.101 79.1734 148.026 80.0048 146.792 80.1067C145.164 80.2453 143.702 79.1164 142.085 79.0593C141.428 79.0658 140.78 79.2129 140.184 79.4905C139.589 79.7681 139.059 80.17 138.632 80.6691C137.782 81.6726 137.15 82.8428 136.779 84.1047C136.139 86.0196 135.79 88.0199 135.744 90.0385C135.72 91.1755 135.614 92.5938 134.563 93.0176C134.588 93.3187 134.588 93.6213 134.563 93.9224C135.622 93.5148 135.728 92.0803 135.753 90.9392C135.798 88.9205 136.147 86.9202 136.787 85.0053C137.159 83.7422 137.79 82.5707 138.64 81.5657C139.068 81.0679 139.598 80.6673 140.194 80.3904C140.789 80.1135 141.437 79.9668 142.093 79.96C143.722 80.017 145.188 81.1418 146.801 81.0074C148.022 80.9055 149.105 80.07 150.331 79.907C151.417 79.8045 152.502 80.1111 153.373 80.7669C154.234 81.4207 154.988 82.2044 155.609 83.0899C157.828 86.0201 159.636 89.4557 159.742 93.1318C160.202 93.47 160.866 93.0299 161.094 92.5082C161.322 91.9866 161.33 91.3752 161.615 90.878C161.949 90.3034 162.593 89.9977 163.094 89.5658C164.364 88.4695 164.682 86.6233 164.633 84.9483C164.633 84.8953 164.633 84.8423 164.633 84.7934C164.556 86.2443 164.169 87.7237 163.086 88.661Z" fill="black"/>
<path opacity="0.1" d="M133.024 88.3716C132.088 87.3405 130.809 86.6518 129.95 85.5596C129.226 84.5927 128.813 83.4288 128.765 82.2218C128.637 83.7301 129.057 85.2339 129.95 86.4562C130.809 87.5525 132.088 88.2412 133.024 89.2723C133.924 90.2809 134.463 91.5593 134.56 92.9076C134.622 92.087 134.518 91.2623 134.254 90.4829C133.99 89.7034 133.572 88.9853 133.024 88.3716Z" fill="black"/>
<path opacity="0.1" d="M165.427 76.0679C165.187 77.0664 164.759 78.016 164.564 79.0226C164.448 79.6952 164.406 80.3785 164.438 81.0603C164.451 80.6719 164.493 80.2851 164.564 79.9029C164.759 78.8922 165.187 77.9467 165.427 76.9482C165.567 76.3975 165.613 75.827 165.561 75.261C165.536 75.5329 165.491 75.8025 165.427 76.0679Z" fill="black"/>
</g>
<path opacity="0.1" d="M54.0511 309.973C75.9658 309.973 93.7311 307.117 93.7311 303.595C93.7311 300.072 75.9658 297.217 54.0511 297.217C32.1364 297.217 14.3711 300.072 14.3711 303.595C14.3711 307.117 32.1364 309.973 54.0511 309.973Z" fill="#98A1F0"/>
<path d="M55.3297 181.414H52.7764V238.946H55.3297V181.414Z" fill="#535461"/>
<path d="M71.3743 238.771L71.2154 241.363L70.9874 245.031L70.8937 246.555L70.6698 250.223L70.572 251.747L70.344 255.415L67.7703 297.013C67.6585 298.803 66.8693 300.483 65.5636 301.711C64.2578 302.939 62.5335 303.623 60.7416 303.623H47.3602C45.5687 303.623 43.8449 302.939 42.5398 301.711C41.2347 300.482 40.4464 298.803 40.3356 297.013L37.7741 255.387L37.5461 251.719L37.4524 250.195L37.2244 246.527L37.1307 245.003L36.9027 241.335L36.7398 238.743C36.7115 238.244 36.7853 237.744 36.9568 237.275C37.1283 236.806 37.3938 236.377 37.7369 236.014C38.0801 235.651 38.4938 235.362 38.9526 235.165C39.4113 234.967 39.9055 234.866 40.4048 234.867H67.7744C68.2718 234.871 68.763 234.977 69.2178 235.179C69.6726 235.381 70.0812 235.674 70.4186 236.039C70.7559 236.405 71.0147 236.836 71.1791 237.306C71.3435 237.776 71.4099 238.275 71.3743 238.771Z" fill="#3F3D56"/>
<path d="M71.2153 241.363L70.9873 245.019H37.1143L36.8862 241.363H71.2153Z" fill="#9D9CB5"/>
<path d="M70.8937 246.543L70.6697 250.203H37.4361L37.208 246.543H70.8937Z" fill="#9D9CB5"/>
<path d="M70.572 251.731L70.348 255.387H37.7578L37.5298 251.731H70.572Z" fill="#9D9CB5"/>
<path d="M32.9891 202.977C47.8569 213.744 54.063 230.584 54.063 230.584C54.063 230.584 36.1451 229.968 21.2733 219.201C6.40141 208.434 0.20752 191.598 0.20752 191.598C0.20752 191.598 18.1173 192.209 32.9891 202.977Z" fill="#98A1F0"/>
<path d="M0.195312 191.598C0.195312 191.598 18.7974 201.929 24.7632 210.484C30.7291 219.038 54.063 230.584 54.063 230.584" stroke="#535461" strokeWidth="2" strokeMiterlimit="10"/>
<path d="M42.5878 181.287C50.6793 187.144 54.0634 196.309 54.0634 196.309C54.0634 196.309 44.3103 195.975 36.2147 190.119C28.1191 184.262 24.7432 175.093 24.7432 175.093C24.7432 175.093 34.4921 175.427 42.5878 181.287Z" fill="#98A1F0"/>
<path d="M24.7432 175.093C24.7432 175.093 34.8668 180.717 38.1124 185.371C41.3579 190.025 54.0634 196.309 54.0634 196.309" stroke="#535461" strokeWidth="2" strokeMiterlimit="10"/>
<path d="M65.8117 195.845C56.5148 206.07 54.5479 219.433 54.5479 219.433C54.5479 219.433 67.6564 216.214 76.9452 205.984C86.234 195.755 88.2091 182.396 88.2091 182.396C88.2091 182.396 75.1086 185.619 65.8117 195.845Z" fill="#98A1F0"/>
<path d="M88.2172 182.4C88.2172 182.4 76.1064 192.882 73.0277 200.103C69.9491 207.325 54.5479 219.433 54.5479 219.433" stroke="#535461" strokeWidth="2" strokeMiterlimit="10"/>
<path d="M407.09 192.246C407.09 192.246 400.367 158.77 402.941 154.605C402.941 154.605 403.035 150.734 402.88 145.798C402.88 145.611 402.88 145.423 402.88 145.232C403.333 145.534 403.805 145.806 404.293 146.047C406.664 147.266 409.386 147.618 411.989 147.041L409.953 144.771C409.465 144.229 408.956 143.642 408.85 142.925C408.744 142.208 409.037 141.568 409.29 140.928C411.224 136.038 411.326 129.888 407.6 126.155C404.452 123.017 403.686 118.966 400.269 116.101C397.773 114.002 396.401 110.925 395.106 107.95C394.01 105.435 392.907 102.9 392.28 100.235C391.791 98.1525 391.596 95.9966 390.924 93.963C390.252 91.9294 388.993 89.9528 387.027 89.044C386.326 88.722 385.548 88.5386 384.909 88.1107C384.07 87.5442 383.565 86.6232 382.958 85.8162C379.876 81.7408 369.552 84.1412 364.666 85.7958C363.337 86.2125 362.107 86.8947 361.05 87.801L361.094 87.7276C361.131 87.6665 361.176 87.6053 361.217 87.5442C360.682 87.9771 360.22 88.4931 359.848 89.0725C359.136 90.2014 358.838 91.5178 358.244 92.7404C357.527 94.1872 353.54 98.2259 355.255 99.852C355.375 99.9612 355.513 100.049 355.662 100.113C356.306 100.381 357.014 100.452 357.698 100.317L357.625 100.492C357.039 101.927 356.739 103.462 356.741 105.011C356.741 111.707 362.259 117.136 369.072 117.136C370.353 117.137 371.626 116.941 372.847 116.553C372.875 116.708 372.9 116.863 372.928 117.018C372.928 117.079 372.949 117.14 372.957 117.201L372.741 117.503C372.73 117.484 372.718 117.466 372.704 117.45L366.311 126.391C365.334 127.08 359.706 131.155 359.388 134.212C359.054 137.558 358.72 141.474 358.72 141.474L358.675 142.314C358.396 142.548 358.069 142.718 357.718 142.813C357.366 142.908 356.998 142.925 356.639 142.864C354.644 142.538 354.644 150.2 354.644 150.2C354.644 150.2 353.316 151.422 352.404 150.363C351.492 149.303 349.081 152.894 349.081 152.894L333.973 153.546L333.627 153.566L332.813 151.043C332.725 150.777 332.536 150.557 332.287 150.429C332.037 150.302 331.748 150.278 331.481 150.363C331.418 150.384 331.357 150.41 331.298 150.44L331.241 150.473L331.135 150.546L331.082 150.595C331.053 150.622 331.026 150.65 331 150.681L330.952 150.738L330.927 150.762C330.833 150.892 330.771 151.043 330.745 151.201C330.72 151.36 330.732 151.522 330.781 151.675L331.481 153.839C328.565 154.426 325.584 156.081 328.016 160.637L315.693 158.359L319.68 161.709L340.261 165.96C339.988 166.449 340.167 167.158 341.018 168.156C344.683 172.464 351.362 173.634 354.049 173.935C354.759 175.524 355.646 177.028 356.692 178.418L356.46 182.71C356.46 182.71 349.655 215.419 348.409 217.078C349.038 216.364 349.614 215.606 350.132 214.808C348.157 221.528 345.396 230.726 344.671 232.104C343.506 234.304 342.427 243.209 343.755 243.78C344.162 243.955 345.327 243.869 346.988 243.743V244.481L346.915 272.434C346.915 272.434 347.249 289.579 346.333 291.214C345.416 292.848 345.172 296.275 345.172 296.275C345.172 296.275 341.507 303.036 338.603 305.755C338.584 305.776 338.562 305.795 338.538 305.812L338.449 305.176C338.449 305.176 334.959 309.586 327.238 309.337C327.238 309.337 322.591 312.361 329.482 312.524C336.372 312.687 345.172 312.28 345.172 312.28C345.172 312.28 351.317 302.906 356.464 304.129V311.232H358.04V304.015C358.771 303.533 359.397 302.908 359.879 302.177C360.361 301.447 360.69 300.626 360.846 299.764C360.981 298.876 360.882 297.968 360.559 297.129C360.237 296.291 359.701 295.551 359.005 294.983C358.693 294.701 358.442 294.356 358.269 293.972C358.096 293.588 358.004 293.172 357.999 292.75L357.942 292.799C357.942 292.656 357.906 292.51 357.89 292.359C357.438 288.691 356.871 281.123 358.871 275.523C361.612 267.845 362.442 257.151 360.447 250.785C359.803 248.751 359.274 246.681 358.863 244.587C358.814 244.322 358.769 244.069 358.728 243.833C360.092 244.017 361.443 244.29 362.772 244.648C367.394 245.923 377.506 246.16 386.139 246.091C386.159 246.327 386.184 246.576 386.212 246.824C386.366 248.552 386.688 250.261 387.173 251.927C388.256 255.187 388.753 269.561 388.753 269.561C388.753 269.561 390.15 281.38 389.388 286.189C388.981 288.862 388.574 291.548 388.342 294.246V294.299C388.342 294.299 386.053 300.819 384.38 304.361C384.339 304.451 384.294 304.54 384.253 304.626C383.807 304.667 383.368 304.764 382.946 304.915C382.946 304.915 380.702 309.398 378.467 310.14C376.231 310.882 376.972 313.323 382.034 312.426C387.096 311.53 394.739 310.796 394.739 310.796L395.069 306.223L396.625 304.275L396.218 308.836L397.875 308.51L397.655 302.963L400.2 299.776C400.2 299.776 403.275 297.037 398.706 291.65V291.768C398.657 291.691 398.612 291.609 398.559 291.532V291.507C397.802 290.333 397.199 288.145 398.303 284.261C400.298 277.243 401.459 270.873 401.459 270.873C401.459 270.873 405.914 253.809 400.559 245.736H400.795C400.246 244.6 399.858 243.393 399.642 242.15C399.615 242.003 399.591 241.852 399.569 241.697C403.531 241.469 407.42 240.752 410.593 239.203C410.58 239.187 408.671 198.693 407.09 192.246ZM356.786 164.003V164.085L355.972 164.126L356.786 164.003ZM353.992 164.39C353.858 164.42 353.733 164.48 353.626 164.566C353.276 165.062 353.056 165.638 352.987 166.241L351.716 165.955C351.716 165.955 350.824 165.764 349.541 165.548L348.935 164.937C350.604 164.798 352.339 164.594 353.992 164.39Z" fill="url(#paint1_linear)"/>
<path d="M396.031 303.02L395.546 308.795L397.171 308.469L396.926 302.205L396.031 303.02Z" fill="#1D2366"/>
<path d="M358.961 275.601C357.002 281.184 357.556 288.72 357.996 292.379C358.159 293.732 358.309 294.556 358.309 294.556C358.309 294.556 355.381 301.231 355.137 301.484C354.893 301.737 346.52 306.851 346.52 306.851L340.668 310.27C340.668 310.27 334.731 307.666 337.578 306.77C338.159 306.536 338.683 306.179 339.113 305.722C341.963 303.012 345.543 296.275 345.543 296.275C345.543 296.275 345.787 292.856 346.683 291.23C347.579 289.604 347.253 272.516 347.253 272.516L347.322 244.66V241.029L358.46 241.11C358.53 242.343 358.691 243.569 358.941 244.778C359.34 246.866 359.858 248.928 360.492 250.957C362.455 257.31 361.64 267.951 358.961 275.601Z" fill="#FFB0B1"/>
<path opacity="0.1" d="M358.309 294.556C358.309 294.556 355.381 301.231 355.137 301.484C354.893 301.736 346.52 306.851 346.52 306.851L340.668 310.27C340.668 310.27 334.731 307.666 337.578 306.77C338.159 306.536 338.683 306.179 339.113 305.722L339.365 307.503L341.316 307.422L358.012 292.387C358.159 293.732 358.309 294.556 358.309 294.556Z" fill="black"/>
<path d="M358.106 292.766L341.316 307.903L339.365 307.984L338.958 305.131C338.958 305.131 335.545 309.525 327.963 309.28C327.963 309.28 323.41 312.292 330.158 312.455C336.906 312.618 345.522 312.21 345.522 312.21C345.522 312.21 351.541 302.837 356.579 304.06V311.139H358.126V303.994C358.846 303.51 359.46 302.884 359.931 302.156C360.403 301.427 360.723 300.611 360.871 299.756C361.005 298.875 360.91 297.974 360.595 297.141C360.281 296.307 359.757 295.568 359.075 294.996C358.77 294.71 358.527 294.365 358.36 293.981C358.194 293.598 358.107 293.185 358.106 292.766Z" fill="#1D2366"/>
<path d="M397.578 284.306C396.495 288.178 397.085 290.358 397.826 291.528V291.552C398.777 292.996 399.438 294.611 399.773 296.308L399.838 296.675L392.198 307.821L388.053 309.451C388.053 309.451 381.387 307.173 382.604 306.521C382.91 306.362 383.386 305.514 383.932 304.345C385.561 300.819 387.808 294.315 387.808 294.315V294.262C388.045 291.576 388.419 288.899 388.835 286.234C389.58 281.437 388.212 269.663 388.212 269.663C388.212 269.663 387.723 255.346 386.664 252.09C386.186 250.434 385.868 248.736 385.715 247.02C385.495 244.982 385.447 243.303 385.447 243.303C385.447 243.303 389.836 237.19 397.883 243.792C398.527 244.319 399.093 244.933 399.565 245.618C405.124 253.532 400.648 270.967 400.648 270.967C400.648 270.967 399.528 277.308 397.578 284.306Z" fill="#FFB0B1"/>
<path opacity="0.1" d="M399.85 296.675L392.211 307.821L388.065 309.451C388.065 309.451 381.399 307.173 382.616 306.521C382.922 306.362 383.398 305.514 383.944 304.345C386.766 304.32 388.228 307.01 388.228 307.01L391.803 306.44C391.803 306.44 396.519 297.164 397.578 296.597C398.637 296.031 397.741 292.363 397.741 292.363V291.43C397.769 291.462 397.794 291.499 397.826 291.532V291.556C398.777 293 399.438 294.615 399.773 296.312L399.85 296.675Z" fill="black"/>
<path d="M388.472 307.251C388.472 307.251 386.436 303.509 382.535 304.891C382.535 304.891 380.34 309.374 378.145 310.099C375.95 310.825 376.683 313.27 381.643 312.377C386.603 311.485 394.08 310.747 394.08 310.747L394.406 306.187L399.447 299.76C399.447 299.76 402.452 297.033 397.981 291.666V292.599C397.981 292.599 398.877 296.267 397.818 296.834C396.759 297.4 392.06 306.68 392.06 306.68L388.472 307.251Z" fill="#1D2366"/>
<path opacity="0.1" d="M358.472 241.102C358.542 242.335 358.703 243.561 358.953 244.77C354.367 244.098 350.112 244.432 347.322 244.652V241.021L358.472 241.102Z" fill="black"/>
<path opacity="0.1" d="M400.017 246.633C400.017 246.633 393.502 246.951 385.732 247.016C385.512 244.978 385.463 243.299 385.463 243.299C385.463 243.299 389.853 237.186 397.9 243.788C398.543 244.315 399.109 244.929 399.581 245.614C399.708 245.961 399.853 246.301 400.017 246.633Z" fill="black"/>
<path d="M400.017 245.899C400.017 245.899 371.479 247.281 362.78 244.839C354.082 242.398 345.461 244.513 344.162 243.947C342.863 243.38 343.918 234.508 345.058 232.312C346.198 230.115 352.453 207.9 352.453 207.9L358.472 176.495L364.812 174.746L365.26 174.62L376.308 171.571L384.404 169.334C384.404 169.334 400.502 232.23 399.121 236.868C398.62 238.644 398.539 240.512 398.885 242.325C399.096 243.563 399.477 244.766 400.017 245.899Z" fill="#1D2366"/>
<path d="M337.492 155.017C337.492 155.017 331.791 161.13 336.108 164.537C340.424 167.944 343.262 164.863 343.262 164.863L337.492 155.017Z" fill="#C7DAF5"/>
<path opacity="0.1" d="M337.492 155.017C337.492 155.017 331.791 161.13 336.108 164.537C340.424 167.944 343.262 164.863 343.262 164.863L337.492 155.017Z" fill="black"/>
<path d="M383.553 114.825C383.553 114.825 382.885 115.461 381.879 116.398C380.446 117.739 378.324 119.699 376.443 121.342C373.836 123.612 371.686 125.279 372.456 123.856C373.226 122.434 373.079 119.956 372.696 117.637C372.668 117.482 372.643 117.327 372.615 117.177C372.298 115.474 371.878 113.791 371.356 112.139C371.356 112.139 375.567 106.695 377.897 104.547C378.764 103.732 379.371 103.398 379.407 103.964C379.448 104.726 380.018 106.409 380.727 108.194C380.747 108.251 380.767 108.304 380.792 108.361C381.264 109.584 381.798 110.839 382.266 111.923C382.983 113.586 383.553 114.825 383.553 114.825Z" fill="#FFB0B1"/>
<path opacity="0.1" d="M380.792 108.362C380.396 110.492 379.436 112.476 378.012 114.108C376.588 115.739 374.752 116.958 372.696 117.637C372.372 115.777 371.925 113.94 371.356 112.139C371.356 112.139 379.285 101.89 379.407 103.964C379.436 104.751 380.055 106.495 380.792 108.362Z" fill="black"/>
<path opacity="0.1" d="M371.907 120.376L372.933 118.929C372.933 118.929 373.613 123.078 376.113 121.248C378.614 119.418 378.736 135.019 378.736 135.019L376.052 175.174L356.66 174.013L357.21 154.609L359.405 144.828L364.833 130.609L368.062 125.91L371.907 120.376Z" fill="black"/>
<path d="M378.736 135.268L376.292 171.576L376.036 175.423L365.224 174.775L364.817 174.75L356.672 174.261L357.222 154.854L359.417 145.073L364.845 130.854L368.075 126.155L371.919 120.6L372.945 119.157C372.945 119.157 373.625 123.306 376.125 121.476L376.178 121.44C378.622 119.891 378.736 135.268 378.736 135.268Z" fill="#1D2366"/>
<path d="M359.689 141.674C359.689 141.674 358.716 143.712 356.761 143.382C354.807 143.052 354.811 150.717 354.811 150.717C354.811 150.717 353.512 151.94 352.616 150.88C351.72 149.821 349.358 153.403 349.358 153.403L334.56 154.055C334.56 154.055 341.144 157.067 339.853 166.18C339.853 166.18 362.21 164.794 362.943 162.679C363.676 160.564 359.689 141.674 359.689 141.674Z" fill="white"/>
<path opacity="0.03" d="M359.689 141.674C359.689 141.674 358.716 143.712 356.761 143.382C354.807 143.052 354.811 150.717 354.811 150.717C354.811 150.717 353.512 151.94 352.616 150.88C351.72 149.821 349.358 153.403 349.358 153.403L334.56 154.055C334.56 154.055 341.144 157.067 339.853 166.18C339.853 166.18 362.21 164.794 362.943 162.679C363.676 160.564 359.689 141.674 359.689 141.674Z" fill="black"/>
<path d="M316.683 158.844L320.584 162.178L352.698 168.931L348.715 164.863L316.683 158.844Z" fill="white"/>
<path d="M371.968 121.66C371.434 122.475 369.907 126.648 368.633 130.291C367.57 133.328 366.682 135.997 366.682 135.997C366.682 135.997 364.609 149.503 363.55 151.944C362.492 154.385 363.066 163.906 363.066 163.906L359.12 187.417C359.12 187.417 357.332 199.541 354.571 206.783C351.847 213.911 348.813 217.253 348.719 217.359C349.941 215.704 356.599 183.125 356.599 183.125L358.798 142.037C358.798 142.037 359.12 138.133 359.446 134.795C359.771 131.457 366.368 126.901 366.368 126.901L372.729 117.849C373.369 118.705 372.941 120.197 371.968 121.66Z" fill="white"/>
<path d="M355.381 174.465C355.381 174.465 346.015 174.057 341.479 168.604C336.942 163.152 351.965 166.428 351.965 166.428L355.87 167.325L355.381 174.465Z" fill="#FFB0B1"/>
<path opacity="0.1" d="M399.121 236.872C398.62 238.648 398.539 240.516 398.885 242.329C388.668 243.054 377.738 240.291 377.738 240.291C375.702 242.166 370.339 244.929 370.339 244.929L367.415 208.658C365.545 203.767 364.812 178.145 364.812 178.145C364.812 178.145 364.979 176.804 365.22 174.795C365.22 174.746 365.22 174.693 365.24 174.644C365.969 169.032 367.415 158.497 368.123 157.075C369.101 155.119 365.118 149.915 365.118 149.915L366.93 134.448L367.15 132.582C370.97 130.874 373.898 125.421 373.898 125.421L376.146 121.48C378.589 119.911 378.715 135.288 378.715 135.288L376.272 171.596L384.367 169.358C384.367 169.358 400.502 232.234 399.121 236.872Z" fill="black"/>
<path d="M409.607 239.378C398.47 244.913 378.227 239.786 378.227 239.786C376.19 241.661 370.827 244.424 370.827 244.424L367.899 208.152C366.034 203.262 365.301 177.64 365.301 177.64C365.301 177.64 367.655 158.522 368.632 156.57C368.917 155.999 368.779 155.152 368.441 154.239C366.779 149.894 366.168 145.217 366.657 140.59L367.439 133.943L367.655 132.081C371.479 130.369 374.407 124.916 374.407 124.916L376.443 121.346L380.189 114.768L381.965 111.655L382.266 111.928L384.567 114.014C384.567 114.014 385.544 114.829 387.01 116.052C390.199 118.742 395.709 123.477 398.551 126.375C401.052 128.926 401.842 138.85 402.07 146.32C402.22 151.239 402.131 155.095 402.131 155.095C399.61 159.247 406.203 192.588 406.203 192.588C407.738 199.032 409.607 239.378 409.607 239.378Z" fill="white"/>
<path opacity="0.03" d="M388.228 124.834C388.228 124.834 380.584 139.396 381.472 144.93C382.36 150.465 384.885 156.729 383.667 158.192C383.249 158.746 382.708 159.196 382.087 159.506C381.466 159.817 380.782 159.979 380.088 159.981C378.866 160.062 375.608 162.341 375.608 162.585C375.608 162.83 372.599 162.83 369.907 163.971C367.215 165.112 363.241 165.76 363.241 165.76C363.241 165.76 355.503 165.515 354.783 166.249C354.062 166.982 353.321 171.372 354.864 174.872C356.407 178.373 358.122 180.986 359.417 181.462C360.712 181.939 368.93 179.184 375.596 178.532C382.262 177.88 389.499 172.594 389.499 172.594C389.499 172.594 397.468 169.741 398.865 164.945C400.261 160.148 397.158 133.784 397.158 133.784C397.158 133.784 394.813 121.497 388.228 124.834Z" fill="black"/>
<path opacity="0.03" d="M387.251 123.612C387.251 123.612 379.607 138.177 380.503 143.708C381.399 149.238 383.916 155.506 382.694 156.973C382.277 157.528 381.737 157.979 381.117 158.289C380.496 158.6 379.812 158.762 379.119 158.762C377.897 158.844 374.639 161.122 374.639 161.367C374.639 161.611 371.63 161.611 368.938 162.748C366.246 163.885 362.272 164.537 362.272 164.537C362.272 164.537 354.534 164.293 353.818 165.026C353.101 165.76 352.352 170.153 353.899 173.65C355.447 177.147 357.157 179.763 358.452 180.24C359.747 180.717 367.965 177.962 374.631 177.314C381.297 176.666 388.534 171.372 388.534 171.372C388.534 171.372 396.499 168.519 397.879 163.726C399.26 158.934 396.173 132.561 396.173 132.561C396.173 132.561 393.836 120.278 387.251 123.612Z" fill="black"/>
<path d="M387.988 124.101C387.988 124.101 380.344 138.666 381.24 144.197C382.136 149.727 384.653 155.995 383.435 157.458C383.018 158.014 382.478 158.466 381.857 158.777C381.235 159.088 380.55 159.251 379.856 159.251C378.634 159.333 375.376 161.611 375.376 161.851C375.376 162.092 372.371 162.096 369.675 163.237C366.979 164.378 363.009 165.026 363.009 165.026C363.009 165.026 355.271 164.782 354.551 165.515C353.83 166.249 353.089 170.642 354.632 174.139C356.175 177.636 357.89 180.252 359.185 180.729C360.48 181.206 368.698 178.451 375.364 177.799C382.03 177.147 389.267 171.861 389.267 171.861C389.267 171.861 397.236 169.008 398.633 164.211C400.03 159.414 396.947 133.05 396.947 133.05C396.947 133.05 394.569 120.783 387.988 124.101Z" fill="white"/>
<path opacity="0.1" d="M387.821 163.168C387.821 163.168 381.712 161.945 383.838 163.983C385.964 166.021 385.951 167.806 388.554 167.724C391.156 167.643 387.821 163.168 387.821 163.168Z" fill="black"/>
<path opacity="0.1" d="M398.144 207.011C398.144 207.011 395.383 208.882 400.665 213.194C405.947 217.506 398.144 207.011 398.144 207.011Z" fill="black"/>
<path opacity="0.1" d="M392.874 222.388C392.874 222.632 391.897 231.354 395.554 233.534C399.211 235.715 392.874 222.388 392.874 222.388Z" fill="black"/>
<path d="M334.812 154.035C331.864 154.137 325.495 155.037 328.797 161.204C331.717 166.661 336.624 163.013 339.385 160.246C338.712 157.666 337.075 155.443 334.812 154.035Z" fill="#FFB0B1"/>
<path d="M339.422 160.197L339.544 160.071L339.422 160.197Z" fill="#FFB0B1"/>
<path opacity="0.1" d="M387.01 116.3C383.883 118.44 381.26 120.245 380.747 120.62C379.346 121.66 376.675 127.761 374.952 130.874C373.58 133.381 369.121 134.024 367.439 134.183L367.655 132.321C371.479 130.609 374.407 125.156 374.407 125.156L381.965 111.895L384.567 114.263C384.567 114.263 385.544 115.078 387.01 116.3Z" fill="black"/>
<path d="M387.01 116.056C383.883 118.196 381.26 120.001 380.747 120.38C379.346 121.415 376.675 127.516 374.952 130.63C373.58 133.136 369.121 133.78 367.439 133.939L367.655 132.076C371.479 130.365 374.407 124.912 374.407 124.912L381.965 111.65L384.567 114.01C384.567 114.01 385.544 114.817 387.01 116.056Z" fill="#DCE7FF"/>
<path d="M380.992 105.672C380.993 108.118 380.252 110.507 378.866 112.522C377.229 114.905 374.793 116.622 371.999 117.36C369.206 118.099 366.24 117.811 363.641 116.549C361.041 115.287 358.98 113.134 357.831 110.481C356.682 107.828 356.521 104.851 357.378 102.089C358.235 99.3276 360.053 96.965 362.501 95.43C364.95 93.895 367.867 93.2892 370.724 93.7226C373.58 94.1561 376.187 95.5999 378.071 97.7923C379.955 99.9846 380.991 102.78 380.992 105.672Z" fill="#FFB0B1"/>
<path opacity="0.1" d="M402.069 146.324C400.416 145.306 399.069 143.858 398.172 142.135C397.492 140.79 397.04 139.237 395.88 138.283C394.833 137.427 393.436 137.22 392.133 136.837C387.849 135.569 384.257 131.657 384.123 127.19C384.058 125.087 384.714 122.988 384.416 120.906C384.247 119.727 383.779 118.612 383.056 117.666C382.697 117.213 382.304 116.79 381.879 116.398C381.309 115.86 380.71 115.339 380.189 114.768C379.861 114.415 379.574 114.025 379.334 113.607C379.14 113.264 378.983 112.902 378.866 112.527C378.051 110.032 378.792 107.074 377.897 104.551L377.848 104.412C377.51 103.516 376.821 102.619 375.865 102.55C374.908 102.481 374.089 103.275 373.177 103.63C371.267 104.372 369.206 103.108 367.614 101.82C366.022 100.533 364.226 99.0614 362.202 99.3467C360.862 99.5382 359.804 100.451 358.57 100.924C358.291 101.032 358.004 101.115 357.71 101.172C358.755 98.5663 360.673 96.4054 363.136 95.061C365.6 93.7167 368.454 93.2728 371.209 93.8057C373.963 94.3385 376.447 95.8148 378.232 97.981C380.017 100.147 380.993 102.868 380.991 105.676C380.993 106.524 380.904 107.369 380.727 108.199C380.747 108.256 380.768 108.309 380.792 108.366C381.264 109.588 381.798 110.843 382.266 111.928L384.567 114.014C384.567 114.014 385.544 114.829 387.01 116.052C390.199 118.742 395.709 123.477 398.551 126.375C401.051 128.934 401.833 138.854 402.069 146.324Z" fill="black"/>
<path d="M358.427 93.4781C359.01 92.2922 359.299 90.9636 359.995 89.8388C361.017 88.2086 362.801 87.1653 364.633 86.5336C369.418 84.883 379.53 82.4867 382.551 86.5336C383.146 87.3487 383.639 88.2534 384.461 88.8158C385.088 89.2437 385.846 89.4271 386.534 89.7491C388.46 90.6538 389.69 92.6263 390.346 94.6396C391.001 96.6529 391.197 98.8128 391.677 100.887C392.292 103.548 393.371 106.071 394.446 108.578C395.713 111.536 397.057 114.605 399.5 116.696C402.835 119.549 403.572 123.587 406.667 126.717C410.332 130.434 410.214 136.568 408.325 141.438C408.076 142.078 407.795 142.746 407.893 143.427C407.991 144.107 408.496 144.727 408.972 145.269L410.976 147.531C406.236 148.676 400.872 146.198 398.665 141.849C397.985 140.504 397.533 138.956 396.369 137.998C395.326 137.142 393.925 136.938 392.626 136.555C388.342 135.284 384.75 131.367 384.616 126.901C384.551 124.802 385.206 122.703 384.909 120.625C384.744 119.438 384.274 118.315 383.545 117.364C382.425 115.901 380.735 114.919 379.823 113.289C378.28 110.562 379.452 107.021 378.341 104.095C377.999 103.198 377.314 102.301 376.357 102.232C375.401 102.163 374.582 102.958 373.666 103.312C371.76 104.054 369.699 102.795 368.107 101.503C366.515 100.211 364.719 98.7436 362.691 99.0329C361.351 99.2204 360.297 100.133 359.063 100.61C358.15 100.961 356.302 101.274 355.503 100.504C353.818 98.9514 357.723 94.929 358.427 93.4781Z" fill="#591D4B"/>
<path opacity="0.1" d="M399.797 140.504C399.113 139.16 398.665 137.611 397.501 136.657C396.458 135.801 395.057 135.594 393.754 135.21C389.474 133.943 385.882 130.027 385.744 125.56C385.679 123.461 386.334 121.358 386.041 119.28C385.871 118.101 385.401 116.985 384.677 116.04C383.553 114.577 381.863 113.594 380.955 111.964C379.412 109.242 380.584 105.7 379.469 102.77C379.131 101.878 378.442 100.981 377.489 100.908C376.537 100.834 375.71 101.637 374.798 101.992C372.892 102.733 370.827 101.47 369.239 100.182C367.651 98.8944 365.847 97.4231 363.823 97.7084C362.483 97.9 361.424 98.8129 360.195 99.2856C359.282 99.6361 357.43 99.954 356.631 99.1837C354.954 97.5535 358.859 93.5392 359.559 92.0965C360.142 90.9065 360.431 89.582 361.131 88.4572C361.168 88.3961 361.209 88.3349 361.249 88.2738C360.725 88.7082 360.273 89.2226 359.91 89.798C359.213 90.9228 358.924 92.2433 358.342 93.4374C357.637 94.8801 353.732 98.9066 355.414 100.525C356.228 101.299 358.061 100.981 358.973 100.63C360.195 100.154 361.262 99.2408 362.601 99.0533C364.637 98.7639 366.429 100.235 368.017 101.523C369.606 102.811 371.682 104.074 373.58 103.332C374.492 102.978 375.29 102.179 376.268 102.253C377.245 102.326 377.897 103.218 378.251 104.115C379.363 107.041 378.19 110.583 379.733 113.309C380.645 114.911 382.335 115.913 383.455 117.385C384.184 118.335 384.654 119.458 384.82 120.645C385.117 122.723 384.461 124.822 384.526 126.921C384.661 131.404 388.252 135.304 392.536 136.576C393.827 136.959 395.236 137.163 396.279 138.018C397.448 138.976 397.908 140.525 398.576 141.87C400.783 146.218 406.146 148.696 410.886 147.551L409.941 146.483C405.832 146.544 401.675 144.205 399.797 140.504Z" fill="black"/>
<path opacity="0.1" d="M371.723 121.904C371.19 122.719 369.663 126.892 368.388 130.536C367.195 130.071 366.112 127.108 366.112 127.108L372.473 118.053C373.124 118.949 372.697 120.437 371.723 121.904Z" fill="black"/>
<path d="M371.967 121.66C371.434 122.475 369.907 126.648 368.632 130.291C367.439 129.831 366.356 126.864 366.356 126.864L372.717 117.812C373.368 118.705 372.941 120.197 371.967 121.66Z" fill="#DCE7FF"/>
<path d="M334.983 163.294L331.457 152.164C331.415 152.034 331.399 151.897 331.411 151.76C331.422 151.624 331.46 151.491 331.523 151.37C331.586 151.248 331.672 151.14 331.777 151.052C331.881 150.964 332.002 150.897 332.133 150.856C332.395 150.774 332.679 150.799 332.924 150.926C333.168 151.052 333.352 151.271 333.436 151.533L336.962 162.65L336.612 164.977L334.983 163.294Z" fill="#BE8B87"/>
<path opacity="0.1" d="M331.791 151.186C332.054 151.103 332.339 151.127 332.584 151.254C332.829 151.381 333.014 151.6 333.098 151.863L336.624 162.98L336.36 164.725L336.616 164.994L336.966 162.667L333.419 151.549C333.335 151.287 333.151 151.069 332.907 150.942C332.663 150.815 332.379 150.79 332.116 150.872C331.895 150.944 331.705 151.087 331.575 151.28C331.644 151.243 331.716 151.211 331.791 151.186Z" fill="white"/>
<path d="M334.983 163.294L336.963 162.667L336.673 164.574L336.612 164.994L336.034 164.391L334.983 163.294Z" fill="#EFC8C4"/>
<path d="M336.034 164.391C336.069 164.347 336.112 164.311 336.16 164.285C336.189 164.266 336.222 164.257 336.256 164.257C336.29 164.257 336.323 164.266 336.352 164.285C336.38 164.318 336.403 164.355 336.421 164.395C336.448 164.44 336.485 164.478 336.528 164.507C336.572 164.536 336.622 164.555 336.673 164.562L336.612 164.969L336.034 164.391Z" fill="#727A9C"/>
<path d="M331.437 156.117C331.437 156.117 338.51 156.077 336.844 159.088C335.179 162.1 332.577 162.463 332.577 162.463L331.437 156.117Z" fill="#FFB0B1"/>
<path d="M287.444 20.9558H287.138C274.987 20.9558 264.24 27.3909 258.058 36.8867C251.877 27.3909 241.13 20.9558 228.978 20.9558H228.673C219.554 21.0428 210.837 24.728 204.417 31.2107C197.997 37.6934 194.394 46.4496 194.389 55.5766C194.389 66.9103 199.349 82.992 209.02 96.2249C227.447 121.44 258.058 143.5 258.058 143.5C258.058 143.5 288.669 121.444 307.092 96.2249C316.768 82.992 321.724 66.9103 321.724 55.5766C321.719 46.4503 318.116 37.6947 311.697 31.2121C305.278 24.7296 296.562 21.0439 287.444 20.9558ZM283.074 98.1648C281.69 98.1595 280.34 97.7356 279.201 96.9486C278.063 96.1617 277.188 95.0485 276.693 93.7552H269.428C268.95 93.7522 268.484 93.5998 268.096 93.3192C267.709 93.0387 267.418 92.644 267.266 92.1902L265.034 85.4617L257.973 110.155C257.835 110.63 257.547 111.048 257.152 111.346C256.757 111.643 256.276 111.804 255.782 111.805H255.639C255.123 111.78 254.632 111.579 254.246 111.235C253.861 110.891 253.605 110.424 253.522 109.914L246.245 66.1115L240.926 92.0313C240.804 92.5237 240.521 92.961 240.122 93.2734C239.723 93.5859 239.23 93.7555 238.723 93.7552H228.49C228.183 93.7682 227.877 93.7189 227.589 93.6104C227.302 93.5019 227.04 93.3363 226.818 93.1237C226.597 92.911 226.42 92.6557 226.3 92.3731C226.179 92.0904 226.117 91.7863 226.117 91.479C226.117 91.1718 226.179 90.8677 226.3 90.585C226.42 90.3024 226.597 90.0471 226.818 89.8344C227.04 89.6218 227.302 89.4562 227.589 89.3477C227.877 89.2392 228.183 89.1899 228.49 89.2029H236.931L244.465 54.3539C244.589 53.8387 244.887 53.3825 245.31 53.0632C245.733 52.7439 246.253 52.5815 246.782 52.6036C247.311 52.6258 247.816 52.8311 248.21 53.1846C248.605 53.538 248.864 54.0176 248.945 54.5414L256.376 99.2244L262.705 77.1315C262.836 76.6662 263.115 76.256 263.499 75.9622C263.883 75.6684 264.351 75.5067 264.835 75.5013H264.879C265.358 75.5015 265.824 75.6529 266.212 75.9339C266.599 76.2149 266.888 76.6112 267.038 77.0663L271.073 89.2151H276.603C276.996 88.0197 277.712 86.9562 278.671 86.142C279.63 85.3278 280.795 84.7946 282.038 84.6013C283.281 84.408 284.552 84.562 285.713 85.0464C286.874 85.5308 287.878 86.3268 288.615 87.3464C289.353 88.366 289.794 89.5696 289.891 90.8245C289.988 92.0793 289.737 93.3365 289.165 94.4574C288.593 95.5782 287.722 96.5191 286.65 97.1762C285.577 97.8333 284.344 98.1811 283.086 98.1811L283.074 98.1648Z" fill="#98A1F0"/>
</g>
<defs>
<linearGradient id="paint0_linear" x1="145.106" y1="315.793" x2="145.106" y2="65.0153" gradientUnits="userSpaceOnUse">
<stop stop-color="#808080" stop-opacity="0.25"/>
<stop offset="0.54" stop-color="#808080" stop-opacity="0.12"/>
<stop offset="1" stop-color="#808080" stop-opacity="0.1"/>
</linearGradient>
<linearGradient id="paint1_linear" x1="90898.9" y1="189215" x2="90898.9" y2="60488.7" gradientUnits="userSpaceOnUse">
<stop stop-color="#808080" stop-opacity="0.25"/>
<stop offset="0.54" stop-color="#808080" stop-opacity="0.12"/>
<stop offset="1" stop-color="#808080" stop-opacity="0.1"/>
</linearGradient>
<clipPath id="clip0">
<rect width="450" height="319" fill="white"/>
</clipPath>
</defs>
</svg>
