<svg width="415" height="360" viewBox="0 0 415 360" fill="none" xmlns="http://www.w3.org/2000/svg">
<path fill-rule="evenodd" clip-rule="evenodd" d="M187.769 1.24985C235.361 -6.69837 278.85 24.9177 318.275 49.2611C357.981 73.7777 405.336 99.398 413.909 140.881C422.321 181.583 379.941 214.974 360.317 252.69C343.436 285.133 341.015 325.865 307.131 346.1C273.445 366.217 228.469 359.733 187.769 355.733C151.296 352.149 117.783 341.212 86.6454 324.433C53.2604 306.442 14.1049 288.709 2.94633 256.133C-8.14842 223.742 14.5383 191.047 30.3768 160.161C44.601 132.423 66.5961 110.536 89.4326 87.4792C120.557 56.054 140.741 9.10366 187.769 1.24985Z" fill="#7280FF"/>
<path d="M279.635 100.654H277.151C276.662 100.654 276.265 101.051 276.265 101.541V134.849C276.265 135.339 276.662 135.736 277.151 135.736H279.635C280.125 135.736 280.522 135.339 280.522 134.849V101.541C280.522 101.051 280.125 100.654 279.635 100.654Z" fill="#3F3D56"/>
<path d="M263.464 35H151.253C142.915 35 136.156 41.7592 136.156 50.0971V309.322C136.156 317.66 142.915 324.419 151.253 324.419H263.464C271.802 324.419 278.561 317.66 278.561 309.322V50.0971C278.561 41.7592 271.802 35 263.464 35Z" fill="#3F3D56"/>
<path d="M258.741 42.5385H242.405V44.5035C242.405 45.7267 242.164 46.9379 241.696 48.0679C241.228 49.1979 240.541 50.2246 239.676 51.0893C238.811 51.954 237.784 52.6397 236.654 53.1073C235.523 53.575 234.312 53.8153 233.089 53.8147H181.138C179.915 53.8153 178.703 53.575 177.573 53.1073C176.443 52.6397 175.416 51.954 174.551 51.0893C173.686 50.2246 172.999 49.1979 172.531 48.0679C172.063 46.9379 171.822 45.7267 171.822 44.5035V42.5385H156.527C153.528 42.5385 150.651 43.73 148.53 45.851C146.409 47.9721 145.217 50.8488 145.217 53.8483V305.59C145.217 308.59 146.409 311.466 148.53 313.587C150.651 315.708 153.528 316.9 156.527 316.9H258.741C261.74 316.9 264.617 315.708 266.738 313.587C268.859 311.466 270.05 308.59 270.05 305.59V53.8677C270.053 52.3808 269.762 50.9081 269.195 49.5336C268.628 48.1592 267.795 46.9102 266.745 45.8579C265.694 44.8056 264.447 43.9708 263.073 43.4012C261.7 42.8316 260.227 42.5384 258.741 42.5385V42.5385Z" fill="white"/>
<path d="M212.01 43.6432H195.121C194.293 43.6432 193.622 44.3141 193.622 45.1417V46.1805C193.622 47.0081 194.293 47.679 195.121 47.679H212.01C212.837 47.679 213.508 47.0081 213.508 46.1805V45.1417C213.508 44.3141 212.837 43.6432 212.01 43.6432Z" fill="#E6E8EC"/>
<path d="M218.808 47.9532C220.074 47.9532 221.1 46.9271 221.1 45.6614C221.1 44.3956 220.074 43.3695 218.808 43.3695C217.542 43.3695 216.516 44.3956 216.516 45.6614C216.516 46.9271 217.542 47.9532 218.808 47.9532Z" fill="#E6E8EC"/>
<path d="M208.228 210.202C223.106 210.202 235.167 198.141 235.167 183.263C235.167 168.385 223.106 156.324 208.228 156.324C193.35 156.324 181.289 168.385 181.289 183.263C181.289 198.141 193.35 210.202 208.228 210.202Z" fill="white"/>
<path d="M243.66 179.501C243.66 186.622 241.548 193.583 237.592 199.504C233.635 205.425 228.012 210.04 221.433 212.765C214.854 215.489 207.614 216.202 200.63 214.813C193.646 213.423 187.23 209.994 182.195 204.958C177.16 199.923 173.731 193.507 172.342 186.523C170.953 179.538 171.666 172.299 174.391 165.72C177.117 159.141 181.732 153.518 187.653 149.562C193.574 145.606 200.535 143.494 207.656 143.495C212.385 143.495 217.067 144.426 221.435 146.236C225.803 148.045 229.772 150.698 233.116 154.041C236.459 157.385 239.111 161.354 240.92 165.722C242.729 170.091 243.661 174.773 243.66 179.501V179.501ZM203.494 198.559L230.203 171.851C230.419 171.635 230.59 171.379 230.707 171.097C230.824 170.815 230.885 170.513 230.885 170.208C230.885 169.902 230.824 169.6 230.707 169.318C230.59 169.036 230.419 168.78 230.203 168.565L226.916 165.302C226.701 165.086 226.446 164.915 226.164 164.798C225.882 164.681 225.581 164.621 225.276 164.621C224.971 164.621 224.669 164.681 224.387 164.798C224.106 164.915 223.85 165.086 223.635 165.302L201.851 187.086L191.68 176.891C191.244 176.457 190.653 176.213 190.037 176.213C189.421 176.213 188.831 176.457 188.394 176.891L185.108 180.197C184.674 180.633 184.43 181.224 184.43 181.84C184.43 182.456 184.674 183.046 185.108 183.483L200.209 198.579C200.424 198.795 200.681 198.966 200.963 199.083C201.244 199.2 201.547 199.26 201.852 199.26C202.157 199.26 202.46 199.2 202.741 199.083C203.023 198.966 203.28 198.795 203.495 198.579L203.494 198.559Z" fill="#9CA4F1"/>
<path d="M140.614 92.0575H140.241C139.752 92.0575 139.355 92.4545 139.355 92.9442V101.553C139.355 102.043 139.752 102.44 140.241 102.44H140.614C141.104 102.44 141.501 102.043 141.501 101.553V92.9442C141.501 92.4545 141.104 92.0575 140.614 92.0575Z" fill="#3F3D56"/>
<path d="M140.809 111.068H140.164C139.674 111.068 139.277 111.465 139.277 111.955V128.251C139.277 128.74 139.674 129.137 140.164 129.137H140.809C141.298 129.137 141.695 128.74 141.695 128.251V111.955C141.695 111.465 141.298 111.068 140.809 111.068Z" fill="#3F3D56"/>
<path d="M140.731 135.46H140.202C139.712 135.46 139.315 135.857 139.315 136.347V152.798C139.315 153.288 139.712 153.685 140.202 153.685H140.731C141.22 153.685 141.617 153.288 141.617 152.798V136.347C141.617 135.857 141.22 135.46 140.731 135.46Z" fill="#3F3D56"/>
<path d="M110.791 183.652C110.852 183.712 110.931 183.749 111.016 183.76C111.101 183.771 111.187 183.754 111.262 183.713C111.103 183.715 110.944 183.695 110.791 183.652Z" fill="url(#paint0_linear)"/>
<path d="M128.588 190.614L128.123 193.145L127.765 195.081L127.113 198.622L120.79 203.048C120.79 203.048 120.22 202.561 119.28 201.792C116.689 199.658 111.243 195.314 107.244 192.982C106.215 192.326 105.102 191.813 103.935 191.457L128.588 190.614Z" fill="#FEB9B9"/>
<path d="M123.95 192.497C123.95 192.497 131.322 193.762 131.753 190.614C132.185 187.465 127.959 185.764 124.377 185.552C120.795 185.34 99.2986 186.818 99.2986 186.818C99.2986 186.818 95.5067 191.875 109.201 192.721L123.95 192.497Z" fill="#3F3D56"/>
<path d="M140.071 88.6067H101.506V134.337H140.071V88.6067Z" fill="#2F2E41"/>
<path opacity="0.1" d="M140.071 88.8142H101.506V134.545H140.071V88.8142Z" fill="black"/>
<path d="M56.3067 166.891C55.6716 167.051 54.8601 167.666 53.9575 168.554C50.0707 172.402 44.5038 181.432 44.5038 181.432C37.3866 172.954 45.2624 166.256 48.6195 163.954C49.4357 163.397 49.984 163.09 49.984 163.09L56.3067 166.891Z" fill="#FEB9B9"/>
<path d="M128.165 103.04C128.165 103.04 130.062 116.316 136.595 119.477C143.127 122.638 128.165 128.546 128.165 128.546L107.725 120.953C107.725 120.953 119.316 117.159 116.997 105.989L128.165 103.04Z" fill="#FEB9B9"/>
<path d="M106.248 182.909L105.786 185.431L105.41 187.375L104.758 190.916L98.4352 195.338C98.4352 195.338 97.8652 194.855 96.9251 194.086C94.3339 191.953 88.8882 187.608 84.883 185.276C83.8548 184.62 82.7418 184.107 81.5747 183.752L106.248 182.909Z" fill="#FEB9B9"/>
<path d="M100.779 186.019C100.779 186.019 107.395 186.066 107.793 182.909C108.191 179.752 104.187 178.059 100.779 177.847C97.37 177.636 76.6599 179.211 76.6599 179.211C76.6599 179.211 73.7218 185.174 86.7485 186.019L100.779 186.019Z" fill="#2F2E41"/>
<path d="M147.167 235.619C146.878 235.476 146.588 235.329 146.303 235.187L145.525 234.206L135.329 221.277V221.501C135.26 223.661 134.526 240.771 128.799 242.352C122.688 244.036 115.316 244.459 111.956 233.08C108.595 221.7 102.455 196.833 96.1494 195.356L105.529 187.665C105.529 187.665 111.74 194.929 114.27 201.882C114.175 201.45 109.887 181.411 113.406 177.866H144.18C144.18 177.866 148.93 191.396 152.186 198.099C154.721 203.303 158.526 215.607 160.976 223.933C163.401 232.155 154.88 239.415 147.167 235.619Z" fill="#3F3D56"/>
<path opacity="0.1" d="M146.29 181.644C141.54 184.455 120.685 183.311 113.9 182.853L112.052 182.719C111.853 182.719 112.082 182.607 112.082 182.607L112.272 180.693L117.329 167.841L144.407 152.138C143.859 153.792 143.677 156.323 143.721 159.221C143.846 168.532 146.29 181.644 146.29 181.644Z" fill="black"/>
<path d="M146.29 181.009C141.54 183.821 120.685 182.676 113.9 182.218L112.052 182.089L111.745 182.063L112.082 181.976L113.749 181.545L117.329 167.215L144.407 151.517C143.859 153.171 143.677 155.702 143.72 158.599C143.846 167.902 146.29 181.009 146.29 181.009Z" fill="#EFEFEF"/>
<path opacity="0.1" d="M143.703 158.591C138.197 159.86 126.079 163.586 121.423 172.583C118.318 178.573 115.705 181.143 113.883 182.218L112.034 182.088C112.046 182.051 112.056 182.014 112.064 181.976L113.731 181.544L117.311 167.215L144.389 151.517C143.847 153.162 143.66 155.693 143.703 158.591Z" fill="black"/>
<path opacity="0.1" d="M49.9841 163.1L56.3068 166.892C55.6718 167.051 54.8602 167.666 53.9576 168.554C53.4307 167.017 50.1243 164.87 48.6196 163.955C49.4355 163.406 49.9841 163.1 49.9841 163.1Z" fill="black"/>
<path opacity="0.1" d="M110.907 182.335C110.838 182.371 110.759 182.384 110.682 182.374C110.604 182.363 110.532 182.328 110.476 182.274C110.616 182.315 110.761 182.336 110.907 182.335V182.335Z" fill="black"/>
<path d="M125.215 118.635C125.215 118.635 119.523 119.265 115.52 115.05C115.52 115.05 98.6766 119.9 92.9723 130.856C87.268 141.813 48.4897 163.311 48.4897 163.311C48.4897 163.311 55.2356 167.103 54.6006 168.999L80.1024 154.246C80.1024 154.246 89.1715 147.716 91.6895 146.24C94.2075 144.763 108.131 135.702 111.08 160.357C114.03 185.013 111.08 182.063 111.08 182.063C111.08 182.063 115.296 183.54 121.406 171.737C127.517 159.934 146.481 157.196 146.481 157.196L147.534 144.767C147.534 144.767 151.296 136.527 148.398 133.106C147.52 132.094 146.936 130.86 146.709 129.539C146.23 126.382 146.709 121.122 153.421 116.752C163.747 110.006 167.75 104.53 167.75 104.53C167.75 104.53 167.961 100.522 161.639 98.6261C155.317 96.7299 129.607 86.4043 129.607 86.4043L128.744 89.9887L149.028 104.305C149.028 104.305 138.914 112.51 130.89 112.312C130.89 112.312 132.38 118.423 125.215 118.635Z" fill="#9CA4F1"/>
<path opacity="0.1" d="M129.119 108.818C128.621 107.129 128.232 105.409 127.953 103.67L116.785 106.621C117.278 108.753 117.19 110.978 116.531 113.064C118.814 113.673 121.226 113.596 123.466 112.84C125.705 112.085 127.671 110.686 129.119 108.818V108.818Z" fill="black"/>
<path d="M119.843 112.839C126.476 112.839 131.853 107.462 131.853 100.829C131.853 94.1957 126.476 88.8185 119.843 88.8185C113.21 88.8185 107.833 94.1957 107.833 100.829C107.833 107.462 113.21 112.839 119.843 112.839Z" fill="#FEB9B9"/>
<path opacity="0.1" d="M132.907 197.554C132.907 197.554 139.86 211.253 137.752 215.463Z" fill="black"/>
<path d="M126.23 73.0898C129.564 73.4701 132.73 74.8993 136.012 75.681C136.832 75.936 137.706 75.9688 138.543 75.7759C139.817 75.3829 140.853 74.0486 142.175 74.0873C142.988 74.1132 143.708 74.6662 144.377 75.197C145.451 76.0187 146.461 76.9195 147.4 77.892C149.663 80.3492 151.066 83.6575 153.131 86.3307C155.195 89.004 158.139 92.1388 161.071 90.9129C159.076 98.6865 152.854 103.549 145.785 104.033C142.965 104.227 140.076 103.64 137.346 104.465C136.666 104.744 135.948 104.918 135.217 104.983C133.645 104.983 132.379 103.541 131.399 102.137C129.101 98.8379 127.283 95.0936 124.696 92.0834C123.832 91.086 122.835 90.1401 121.626 89.9588C120.416 89.7776 119.307 90.3561 118.231 90.9133C116.456 91.8333 114.643 92.7831 113.265 94.3683C111.887 95.9536 111.019 98.2938 111.589 100.415C111.896 101.563 112.596 102.6 112.608 103.8C112.634 105.718 110.941 107.117 110.609 108.983C110.534 109.766 110.506 110.554 110.527 111.341C110.38 113.896 108.707 115.987 106.965 117.598C106.282 118.22 105.532 118.894 105.332 119.857C105.198 120.517 105.332 121.212 105.246 121.882C104.991 123.541 103.337 124.383 101.873 124.599C100.162 124.852 98.4151 124.645 96.8112 123.999C98.8584 123.031 100.119 120.276 99.6444 117.81C98.9923 114.39 95.5547 111.932 95.8498 108.452C96.0114 107.384 96.3316 106.346 96.8 105.373C97.5491 103.492 98.0935 101.536 98.4239 99.5383C98.683 97.9965 98.8084 96.3597 98.3244 94.8872C97.8927 93.5482 96.9901 92.4819 96.2254 91.3501C95.1891 89.8104 94.3709 88.1347 93.7941 86.3706C93.5851 85.8473 93.5054 85.2814 93.5618 84.7207C93.735 84.0586 94.1037 83.464 94.62 83.0147C96.4987 81.04 98.5068 78.9897 101.025 78.424C102.226 78.2245 103.448 78.1781 104.661 78.2858C106.771 78.3519 108.883 78.2624 110.979 78.0178C112.706 77.8149 115.626 77.8409 117.09 76.7222C118.454 75.6768 119.223 74.3641 120.903 73.6993C122.604 73.0688 124.433 72.8598 126.232 73.0902L126.23 73.0898Z" fill="#2F2E41"/>
<path d="M349.395 323.7C359.017 323.7 366.817 322.381 366.817 320.753C366.817 319.126 359.017 317.807 349.395 317.807C339.773 317.807 331.973 319.126 331.973 320.753C331.973 322.381 339.773 323.7 349.395 323.7Z" fill="#9CA4F1"/>
<path d="M356.601 315.935C357.395 315.286 357.973 314.412 358.26 313.427C358.477 312.435 358.052 311.258 357.098 310.875C356.032 310.467 354.891 311.208 354.031 311.953C353.17 312.698 352.176 313.552 351.045 313.392C351.628 312.866 352.063 312.198 352.311 311.453C352.558 310.708 352.607 309.911 352.455 309.142C352.404 308.822 352.268 308.523 352.061 308.275C351.472 307.642 350.396 307.911 349.691 308.414C347.438 309.995 346.81 313.06 346.796 315.809C346.567 314.817 346.762 313.781 346.753 312.776C346.745 311.771 346.472 310.608 345.609 310.077C345.077 309.792 344.48 309.651 343.876 309.67C342.862 309.631 341.736 309.735 341.043 310.475C340.176 311.394 340.41 312.937 341.155 313.942C341.901 314.947 343.04 315.592 344.089 316.29C344.927 316.791 345.642 317.473 346.18 318.288C346.244 318.402 346.296 318.522 346.335 318.647H352.665C354.092 317.925 355.416 317.013 356.599 315.937L356.601 315.935Z" fill="#9CA4F1"/>
<path d="M112.522 325C118.872 325 124.02 324.129 124.02 323.056C124.02 321.982 118.872 321.111 112.522 321.111C106.172 321.111 101.024 321.982 101.024 323.056C101.024 324.129 106.172 325 112.522 325Z" fill="#EFEFEF"/>
<path d="M117.277 319.876C117.801 319.447 118.183 318.87 118.372 318.22C118.456 317.894 118.425 317.549 118.286 317.243C118.146 316.937 117.906 316.687 117.606 316.536C116.902 316.267 116.15 316.756 115.582 317.248C115.013 317.739 114.358 318.303 113.611 318.197C113.996 317.85 114.283 317.409 114.446 316.917C114.609 316.426 114.641 315.9 114.541 315.392C114.507 315.182 114.417 314.984 114.281 314.82C113.893 314.403 113.182 314.58 112.717 314.912C111.23 315.957 110.815 317.977 110.807 319.793C110.655 319.138 110.784 318.455 110.778 317.791C110.772 317.128 110.592 316.362 110.023 316.01C109.672 315.822 109.277 315.729 108.879 315.741C108.21 315.716 107.467 315.784 107.009 316.273C106.437 316.88 106.591 317.898 107.083 318.561C107.575 319.224 108.327 319.651 109.019 320.11C109.573 320.439 110.045 320.889 110.4 321.426C110.443 321.502 110.478 321.581 110.503 321.664H114.681C115.623 321.187 116.496 320.584 117.277 319.874V319.876Z" fill="#EFEFEF"/>
<path d="M47.4977 325C53.8477 325 58.9954 324.129 58.9954 323.056C58.9954 321.982 53.8477 321.111 47.4977 321.111C41.1477 321.111 36 321.982 36 323.056C36 324.129 41.1477 325 47.4977 325Z" fill="#EFEFEF"/>
<path d="M52.253 319.876C52.7769 319.447 53.1587 318.87 53.348 318.22C53.4314 317.894 53.4008 317.549 53.2615 317.243C53.1221 316.937 52.8823 316.687 52.5817 316.536C51.8782 316.267 51.1262 316.756 50.5574 317.248C49.9886 317.739 49.3334 318.303 48.5873 318.197C48.9714 317.85 49.2588 317.409 49.4217 316.917C49.5846 316.426 49.6173 315.9 49.5166 315.392C49.4831 315.182 49.3932 314.984 49.2564 314.82C48.8692 314.403 48.1583 314.58 47.6925 314.912C46.2056 315.957 45.7909 317.977 45.7824 319.793C45.631 319.138 45.7595 318.455 45.7537 317.791C45.7479 317.128 45.5679 316.362 44.9987 316.01C44.6476 315.822 44.2531 315.729 43.8549 315.741C43.1858 315.716 42.4423 315.784 41.9847 316.273C41.4128 316.88 41.5672 317.898 42.059 318.561C42.5507 319.224 43.3027 319.651 43.995 320.11C44.5484 320.439 45.0205 320.889 45.3762 321.426C45.419 321.502 45.4536 321.581 45.4792 321.664H49.6567C50.5987 321.187 51.472 320.584 52.253 319.874V319.876Z" fill="#EFEFEF"/>
<path d="M362.385 54.5631C362.385 54.5631 325.902 52.3619 330.2 77.926C330.2 77.926 329.334 82.445 333.441 84.4945C333.441 84.4945 333.506 82.6011 337.185 83.2466C338.495 83.4636 339.825 83.5275 341.149 83.4371C342.936 83.3195 344.636 82.6246 345.993 81.4569V81.4569C345.993 81.4569 356.249 77.2193 360.236 60.4599C360.236 60.4599 363.186 56.8031 363.069 55.8626L356.913 58.4925C356.913 58.4925 359.018 62.9338 357.346 66.6238C357.346 66.6238 357.146 58.6513 355.964 58.8247C355.725 58.8596 352.766 60.3627 352.766 60.3627C352.766 60.3627 356.384 68.0968 353.654 73.7213C353.654 73.7213 354.69 64.1891 351.635 60.9218L347.302 63.4522C347.302 63.4522 351.531 71.4422 348.663 77.9631C348.663 77.9631 349.398 67.9628 346.388 64.0675L342.462 67.1307C342.462 67.1307 346.436 75.0033 344.014 80.4118C344.014 80.4118 343.697 68.7736 341.613 67.8942C341.613 67.8942 338.177 70.9272 337.653 72.1663C337.653 72.1663 340.373 77.8857 338.684 80.9013C338.684 80.9013 337.648 73.1455 336.799 73.1022C336.799 73.1022 333.376 78.2408 333.02 81.7678C333.02 81.7678 333.168 76.5293 335.971 72.617C335.971 72.617 332.661 73.1846 330.728 75.3274C330.728 75.3274 331.261 71.6966 336.816 71.376C336.816 71.376 339.645 67.4764 340.399 67.2426C340.399 67.2426 334.879 66.7779 331.53 68.2652C331.53 68.2652 334.476 64.838 341.413 66.3977L345.291 63.2303C345.291 63.2303 338.02 62.2379 334.936 63.3345C334.936 63.3345 338.484 60.3015 346.335 62.5113L350.556 59.9894C350.556 59.9894 344.356 58.6547 340.664 59.1229C340.664 59.1229 344.563 57.0215 351.795 59.3006L354.828 57.9454C354.828 57.9454 350.287 57.0529 348.957 56.91C347.626 56.7671 347.557 56.4031 347.557 56.4031C350.434 55.9235 353.388 56.252 356.089 57.3522C356.089 57.3522 362.493 54.9662 362.385 54.5631Z" fill="#9CA4F1"/>
<path d="M312.398 41.0291C312.398 41.0291 295.933 40.0367 297.857 51.5882C297.857 51.5882 297.47 53.6292 299.321 54.5562C299.321 54.5562 299.351 53.6896 301.015 53.9885C301.606 54.088 302.207 54.1171 302.804 54.0753C303.613 54.0218 304.381 53.7052 304.993 53.1739V53.1739C304.993 53.1739 309.629 51.2587 311.431 43.685C311.431 43.685 312.761 42.0343 312.709 41.6096L309.927 42.7967C309.927 42.7967 310.876 44.8029 310.131 46.4709C310.131 46.4709 310.04 42.8699 309.507 42.9528C309.399 42.9528 308.06 43.6498 308.06 43.6498C308.06 43.6498 309.698 47.1462 308.463 49.6855C308.463 49.6855 308.93 45.3786 307.549 43.9011L305.59 45.0627C305.59 45.0627 307.501 48.6718 306.205 51.6185C306.205 51.6185 306.539 47.0994 305.178 45.3403L303.406 46.7269C303.406 46.7269 305.2 50.2841 304.108 52.7286C304.108 52.7286 303.961 47.4684 303.021 47.0699C303.021 47.0699 301.469 48.4391 301.231 49.0025C301.231 49.0025 302.461 51.6022 301.699 52.9497C301.699 52.9497 301.231 49.4443 300.832 49.4261C300.832 49.4261 299.286 51.7493 299.125 53.3256C299.203 51.8551 299.663 50.4303 300.46 49.1922C299.567 49.3613 298.744 49.7875 298.09 50.4185C298.09 50.4185 298.333 48.7764 300.841 48.6335C300.841 48.6335 302.141 46.8701 302.462 46.7617C302.462 46.7617 299.966 46.5538 298.454 47.2264C298.454 47.2264 299.784 45.6795 302.917 46.3815L304.65 44.9515C304.65 44.9515 301.363 44.514 299.969 44.9965C299.969 44.9965 301.572 43.6273 305.12 44.624L307.027 43.4844C307.027 43.4844 304.224 42.8823 302.556 43.0972C302.556 43.0972 304.319 42.1482 307.586 43.1747L308.951 42.5636C308.951 42.5636 306.899 42.1606 306.295 42.0955C305.691 42.0305 305.662 41.8659 305.662 41.8659C306.963 41.6495 308.298 41.7996 309.518 42.2992C309.518 42.2992 312.449 41.2096 312.398 41.0291Z" fill="#3F3D56"/>
<path d="M58.4914 217.377C58.4914 217.377 42.0266 216.385 43.9503 227.936C43.9503 227.936 43.5631 229.977 45.4147 230.904C45.4147 230.904 45.4449 230.037 47.1087 230.336C47.6996 230.436 48.3002 230.465 48.898 230.423C49.7062 230.37 50.4747 230.053 51.0861 229.522V229.522C51.0861 229.522 55.7221 227.607 57.5245 220.033C57.5245 220.033 58.8546 218.382 58.8023 217.957L56.0206 219.145C56.0206 219.145 56.9697 221.151 56.2243 222.819C56.2243 222.819 56.1333 219.218 55.6005 219.301C55.4921 219.301 54.1531 219.998 54.1531 219.998C54.1531 219.998 55.791 223.494 54.5562 226.033C54.5562 226.033 55.024 221.726 53.642 220.249L51.6835 221.41C51.6835 221.41 53.5944 225.02 52.2988 227.966C52.2988 227.966 52.6326 223.447 51.2719 221.688L49.4997 223.075C49.4997 223.075 51.2936 226.632 50.2017 229.076C50.2017 229.076 50.0546 223.816 49.114 223.418C49.114 223.418 47.5629 224.787 47.3244 225.35C47.3244 225.35 48.5549 227.95 47.7925 229.297C47.7925 229.297 47.3244 225.792 46.9259 225.774C46.9259 225.774 45.3791 228.097 45.2188 229.673C45.2962 228.203 45.7563 226.778 46.5534 225.54C45.6608 225.709 44.837 226.135 44.1834 226.766C44.1834 226.766 44.4262 225.124 46.9349 224.981C46.9349 224.981 48.2347 223.218 48.5553 223.11C48.5553 223.11 46.0598 222.902 44.5473 223.574C44.5473 223.574 45.8774 222.027 49.0103 222.729L50.7434 221.299C50.7434 221.299 47.456 220.862 46.0621 221.344C46.0621 221.344 47.6651 219.975 51.2139 220.972L53.1205 219.832C53.1205 219.832 50.3171 219.23 48.649 219.445C48.649 219.445 50.4123 218.496 53.6796 219.522L55.0445 218.911C55.0445 218.911 52.9923 218.508 52.3883 218.443C51.7842 218.378 51.7555 218.214 51.7555 218.214C53.0562 217.997 54.3915 218.147 55.6117 218.647C55.6117 218.647 58.5421 217.557 58.4914 217.377Z" fill="#3F3D56"/>
<defs>
<linearGradient id="paint0_linear" x1="111.029" y1="183.764" x2="111.029" y2="183.652" gradientUnits="userSpaceOnUse">
<stop stop-color="#808080" stop-opacity="0.251"/>
<stop offset="0.54" stop-color="#808080" stop-opacity="0.122"/>
<stop offset="1" stop-color="#808080" stop-opacity="0.102"/>
</linearGradient>
</defs>
</svg>
